<svg version="1.1" viewBox="0.0 0.0 960.0 540.0" fill="none" stroke="none" stroke-linecap="square" stroke-miterlimit="10" xmlns:xlink="http://www.w3.org/1999/xlink" xmlns="http://www.w3.org/2000/svg"><clipPath id="gab60a237c4_0_174.0"><path d="m0 0l960.0 0l0 540.0l-960.0 0l0 -540.0z" clip-rule="nonzero"/></clipPath><g clip-path="url(#gab60a237c4_0_174.0)"><path fill="#ffffff" d="m0 0l960.0 0l0 540.0l-960.0 0z" fill-rule="evenodd"/><path fill="#00a1de" d="m0 503.9344l960.0 0l0 36.06299l-960.0 0z" fill-rule="evenodd"/><path fill="#ffffff" d="m29.8976 523.14215l0 3.34375l-1.078125 0l0 -8.53125l2.71875 0q1.1874981 0 1.8593731 0.71875q0.6875 0.703125 0.6875 1.890625q0 1.234375 -0.65625 1.90625q-0.640625 0.65625 -1.8124981 0.671875l-1.71875 0zm0 -0.921875l1.640625 0q0.7187481 0 1.0937481 -0.421875q0.375 -0.421875 0.375 -1.21875q0 -0.78125 -0.390625 -1.234375q-0.390625 -0.46875 -1.0781231 -0.46875l-1.640625 0l0 3.34375zm8.041014 -1.109375q-0.21875 -0.03125 -0.46875 -0.03125q-0.796875 0 -1.109375 0.875l0 4.53125l-1.03125 0l0 -6.34375l1.0 0l0.015625 0.640625q0.421875 -0.75 1.1875 -0.75q0.234375 0 0.40625 0.078125l0 1.0zm0.7050781 1.90625q0 -1.375 0.671875 -2.171875q0.671875 -0.8125 1.765625 -0.8125q1.109375 0 1.765625 0.78125q0.671875 0.78125 0.703125 2.140625l0 0.671875q0 1.375 -0.671875 2.1875q-0.671875 0.796875 -1.78125 0.796875q-1.109375 0 -1.78125 -0.78125q-0.65625 -0.78125 -0.671875 -2.109375l0 -0.703125zm1.03125 0.609375q0 0.96875 0.375 1.53125q0.390625 0.5625 1.046875 0.5625q1.375 0 1.40625 -1.984375l0 -0.71875q0 -0.96875 -0.390625 -1.53125q-0.375 -0.5625 -1.03125 -0.5625q-0.640625 0 -1.03125 0.5625q-0.375 0.5625 -0.375 1.53125l0 0.609375zm5.6640625 2.859375l0 -5.5l-0.828125 0l0 -0.84375l0.828125 0l0 -0.734375q0.015625 -0.96875 0.484375 -1.5q0.46875 -0.546875 1.328125 -0.546875q0.3125 0 0.640625 0.09375l-0.0625 0.890625q-0.21875 -0.0625 -0.46875 -0.0625q-0.890625 0 -0.890625 1.265625l0 0.59375l1.09375 0l0 0.84375l-1.09375 0l0 5.5l-1.03125 0zm3.40625 -0.5625q0 -0.28125 0.15625 -0.46875q0.171875 -0.1875 0.5 -0.1875q0.34375 0 0.515625 0.1875q0.171875 0.1875 0.171875 0.46875q0 0.265625 -0.171875 0.453125q-0.171875 0.171875 -0.515625 0.171875q-0.328125 0 -0.5 -0.171875q-0.15625 -0.1875 -0.15625 -0.453125zm5.984375 0.5625l0 -8.53125l2.03125 0q1.5 0 2.3125 0.9375q0.828125 0.9375 0.828125 2.625l0 1.421875q0 1.703125 -0.84375 2.625q-0.828125 0.921875 -2.421875 0.921875l-1.90625 0zm1.078125 -7.609375l0 6.6875l0.859375 0q1.125 0 1.640625 -0.640625q0.53125 -0.65625 0.546875 -1.921875l0 -1.515625q0 -1.34375 -0.53125 -1.96875q-0.515625 -0.640625 -1.5625 -0.640625l-0.953125 0zm8.240234 2.234375q-0.21875 -0.03125 -0.46875 -0.03125q-0.796875 0 -1.109375 0.875l0 4.53125l-1.03125 0l0 -6.34375l1.0 0l0.015625 0.640625q0.421875 -0.75 1.1875 -0.75q0.234375 0 0.40625 0.078125l0 1.0zm0.3828125 4.8125q0 -0.28125 0.15625 -0.46875q0.171875 -0.1875 0.5 -0.1875q0.34375 0 0.515625 0.1875q0.171875 0.1875 0.171875 0.46875q0 0.265625 -0.171875 0.453125q-0.171875 0.171875 -0.515625 0.171875q-0.328125 0 -0.5 -0.171875q-0.15625 -0.1875 -0.15625 -0.453125zm11.5625 0.5625l-1.078125 0l-3.421875 -6.578125l0 6.578125l-1.078125 0l0 -8.53125l1.078125 0l3.421875 6.609375l0 -6.609375l1.078125 0l0 8.53125zm2.8203125 0l-1.03125 0l0 -6.34375l1.03125 0l0 6.34375zm0.078125 -8.015625q0 0.25 -0.140625 0.4375q-0.140625 0.171875 -0.4375 0.171875q-0.296875 0 -0.453125 -0.171875q-0.140625 -0.1875 -0.140625 -0.4375q0 -0.265625 0.140625 -0.453125q0.15625 -0.1875 0.4375 -0.1875q0.296875 0 0.4375 0.1875q0.15625 0.1875 0.15625 0.453125zm3.7636719 7.25q0.515625 0 0.8125 -0.3125q0.3125 -0.328125 0.34375 -0.921875l0.984375 0q-0.03125 0.921875 -0.65625 1.53125q-0.609375 0.59375 -1.484375 0.59375q-1.1875 0 -1.8125 -0.734375q-0.609375 -0.75 -0.609375 -2.21875l0 -0.703125q0 -1.4375 0.609375 -2.171875q0.625 -0.75 1.796875 -0.75q0.96875 0 1.546875 0.609375q0.578125 0.609375 0.609375 1.6875l-0.984375 0q-0.03125 -0.703125 -0.34375 -1.046875q-0.296875 -0.359375 -0.828125 -0.359375q-0.6875 0 -1.03125 0.453125q-0.328125 0.453125 -0.34375 1.484375l0 0.8125q0 1.125 0.328125 1.59375q0.34375 0.453125 1.0625 0.453125zm3.1210938 -2.703125q0 -1.375 0.671875 -2.171875q0.671875 -0.8125 1.765625 -0.8125q1.109375 0 1.765625 0.78125q0.671875 0.78125 0.703125 2.140625l0 0.671875q0 1.375 -0.671875 2.1875q-0.671875 0.796875 -1.78125 0.796875q-1.109375 0 -1.78125 -0.78125q-0.65625 -0.78125 -0.671875 -2.109375l0 -0.703125zm1.03125 0.609375q0 0.96875 0.375 1.53125q0.390625 0.5625 1.046875 0.5625q1.375 0 1.40625 -1.984375l0 -0.71875q0 -0.96875 -0.390625 -1.53125q-0.375 -0.5625 -1.03125 -0.5625q-0.640625 0 -1.03125 0.5625q-0.375 0.5625 -0.375 1.53125l0 0.609375zm6.3203125 2.859375l-1.03125 0l0 -9.0l1.03125 0l0 9.0zm4.888672 0q-0.09375 -0.203125 -0.125 -0.6875q-0.546875 0.8125 -1.40625 0.8125q-0.859375 0 -1.34375 -0.484375q-0.484375 -0.484375 -0.484375 -1.375q0 -0.96875 0.65625 -1.53125q0.65625 -0.5625 1.796875 -0.578125l0.765625 0l0 -0.671875q0 -0.578125 -0.265625 -0.8125q-0.25 -0.234375 -0.765625 -0.234375q-0.46875 0 -0.765625 0.28125q-0.28125 0.265625 -0.28125 0.703125l-1.03125 0q0 -0.484375 0.28125 -0.921875q0.28125 -0.453125 0.765625 -0.703125q0.5 -0.25 1.09375 -0.25q0.96875 0 1.46875 0.484375q0.515625 0.484375 0.53125 1.40625l0 3.203125q0 0.71875 0.1875 1.265625l0 0.09375l-1.078125 0zm-1.375 -0.828125q0.375 0 0.71875 -0.203125q0.359375 -0.21875 0.515625 -0.53125l0 -1.515625l-0.59375 0q-0.734375 0.015625 -1.171875 0.34375q-0.421875 0.3125 -0.421875 0.875q0 0.546875 0.21875 0.796875q0.21875 0.234375 0.734375 0.234375zm6.951172 -0.796875q0 -0.328125 -0.25 -0.5625q-0.25 -0.25 -0.984375 -0.578125q-0.828125 -0.34375 -1.171875 -0.578125q-0.34375 -0.25 -0.515625 -0.5625q-0.171875 -0.3125 -0.171875 -0.75q0 -0.78125 0.5625 -1.28125q0.578125 -0.515625 1.453125 -0.515625q0.921875 0 1.484375 0.546875q0.5625 0.53125 0.5625 1.375l-1.03125 0q0 -0.4375 -0.296875 -0.734375q-0.28125 -0.296875 -0.71875 -0.296875q-0.453125 0 -0.71875 0.234375q-0.265625 0.234375 -0.265625 0.640625q0 0.3125 0.1875 0.515625q0.203125 0.1875 0.921875 0.5q1.15625 0.453125 1.5625 0.890625q0.421875 0.421875 0.421875 1.078125q0 0.828125 -0.578125 1.328125q-0.5625 0.5 -1.515625 0.5q-0.984375 0 -1.609375 -0.5625q-0.609375 -0.578125 -0.609375 -1.453125l1.046875 0q0.015625 0.53125 0.3125 0.828125q0.3125 0.296875 0.859375 0.296875q0.515625 0 0.78125 -0.234375q0.28125 -0.234375 0.28125 -0.625zm6.6523438 -6.90625l2.234375 6.953125l2.21875 -6.953125l1.390625 0l0 8.53125l-1.078125 0l0 -3.328125l0.109375 -3.328125l-2.234375 6.65625l-0.828125 0l-2.21875 -6.625l0.109375 3.296875l0 3.328125l-1.078125 0l0 -8.53125l1.375 0zm9.814453 8.65625q-1.1875 0 -1.828125 -0.703125q-0.625 -0.71875 -0.640625 -2.078125l0 -0.765625q0 -1.421875 0.609375 -2.21875q0.625 -0.8125 1.734375 -0.8125q1.109375 0 1.65625 0.703125q0.5625 0.703125 0.578125 2.203125l0 0.6875l-3.546875 0l0 0.140625q0 1.03125 0.375 1.5q0.390625 0.453125 1.109375 0.453125q0.46875 0 0.8125 -0.171875q0.34375 -0.171875 0.65625 -0.546875l0.53125 0.65625q-0.671875 0.953125 -2.046875 0.953125zm-0.125 -5.6875q-0.640625 0 -0.953125 0.4375q-0.3125 0.4375 -0.34375 1.375l2.484375 0l0 -0.140625q-0.03125 -0.90625 -0.328125 -1.28125q-0.28125 -0.390625 -0.859375 -0.390625zm6.5566406 3.9375q0 -0.328125 -0.25 -0.5625q-0.25 -0.25 -0.984375 -0.578125q-0.828125 -0.34375 -1.171875 -0.578125q-0.34375 -0.25 -0.515625 -0.5625q-0.171875 -0.3125 -0.171875 -0.75q0 -0.78125 0.5625 -1.28125q0.578125 -0.515625 1.453125 -0.515625q0.921875 0 1.484375 0.546875q0.5625 0.53125 0.5625 1.375l-1.03125 0q0 -0.4375 -0.296875 -0.734375q-0.28125 -0.296875 -0.71875 -0.296875q-0.453125 0 -0.71875 0.234375q-0.265625 0.234375 -0.265625 0.640625q0 0.3125 0.1875 0.515625q0.203125 0.1875 0.921875 0.5q1.15625 0.453125 1.5625 0.890625q0.421875 0.421875 0.421875 1.078125q0 0.828125 -0.578125 1.328125q-0.5625 0.5 -1.515625 0.5q-0.984375 0 -1.609375 -0.5625q-0.609375 -0.578125 -0.609375 -1.453125l1.046875 0q0.015625 0.53125 0.3125 0.828125q0.3125 0.296875 0.859375 0.296875q0.515625 0 0.78125 -0.234375q0.28125 -0.234375 0.28125 -0.625zm4.654297 1.75q-1.1875 0 -1.828125 -0.703125q-0.625 -0.71875 -0.640625 -2.078125l0 -0.765625q0 -1.421875 0.609375 -2.21875q0.625 -0.8125 1.734375 -0.8125q1.109375 0 1.65625 0.703125q0.5625 0.703125 0.578125 2.203125l0 0.6875l-3.546875 0l0 0.140625q0 1.03125 0.375 1.5q0.390625 0.453125 1.109375 0.453125q0.46875 0 0.8125 -0.171875q0.34375 -0.171875 0.65625 -0.546875l0.53125 0.65625q-0.671875 0.953125 -2.046875 0.953125zm-0.125 -5.6875q-0.640625 0 -0.953125 0.4375q-0.3125 0.4375 -0.34375 1.375l2.484375 0l0 -0.140625q-0.03125 -0.90625 -0.328125 -1.28125q-0.28125 -0.390625 -0.859375 -0.390625zm4.8378906 -2.3125l0 1.53125l0.953125 0l0 0.84375l-0.953125 0l0 3.921875q0 0.375 0.109375 0.578125q0.125 0.1875 0.421875 0.1875q0.21875 0 0.421875 -0.0625l-0.015625 0.875q-0.34375 0.125 -0.71875 0.125q-0.609375 0 -0.9375 -0.4375q-0.3125 -0.453125 -0.3125 -1.25l0 -3.9375l-0.96875 0l0 -0.84375l0.96875 0l0 -1.53125l1.03125 0zm3.2167969 2.1875q0.59375 -0.765625 1.515625 -0.765625q1.671875 0 1.703125 2.234375l0 4.21875l-1.03125 0l0 -4.171875q0 -0.734375 -0.25 -1.046875q-0.25 -0.3125 -0.75 -0.3125q-0.390625 0 -0.703125 0.265625q-0.296875 0.25 -0.484375 0.65625l0 4.609375l-1.03125 0l0 -9.0l1.03125 0l0 3.3125zm8.636719 7.265625l-0.875 0l0 -10.109375l0.875 0l0 10.109375z" fill-rule="nonzero"/><path fill="#010000" fill-opacity="0.0" d="m151.47768 515.3531l32.81836 0l0 14.0625l-32.81836 0l0 -14.0625z" fill-rule="nonzero"/><path fill="#ffffff" d="m157.38393 518.8765l-2.25 0l0 7.609375l-1.0625 0l0 -7.609375l-2.234375 0l0 -0.921875l5.546875 0l0 0.921875zm5.5058594 5.78125l0.96875 -4.515625l1.015625 0l-1.546875 6.34375l-0.828125 0l-1.234375 -4.53125l-1.203125 4.53125l-0.84375 0l-1.53125 -6.34375l1.015625 0l0.984375 4.40625l1.171875 -4.40625l0.828125 0l1.203125 4.515625zm4.189453 1.828125l-1.03125 0l0 -6.34375l1.03125 0l0 6.34375zm0.078125 -8.015625q0 0.25 -0.140625 0.4375q-0.140625 0.171875 -0.4375 0.171875q-0.296875 0 -0.453125 -0.171875q-0.140625 -0.1875 -0.140625 -0.4375q0 -0.265625 0.140625 -0.453125q0.15625 -0.1875 0.4375 -0.1875q0.296875 0 0.4375 0.1875q0.15625 0.1875 0.15625 0.453125zm2.9199219 0.140625l0 1.53125l0.953125 0l0 0.84375l-0.953125 0l0 3.921875q0 0.375 0.109375 0.578125q0.125 0.1875 0.421875 0.1875q0.21875 0 0.421875 -0.0625l-0.015625 0.875q-0.34375 0.125 -0.71875 0.125q-0.609375 0 -0.9375 -0.4375q-0.3125 -0.453125 -0.3125 -1.25l0 -3.9375l-0.96875 0l0 -0.84375l0.96875 0l0 -1.53125l1.03125 0zm3.5449219 0l0 1.53125l0.953125 0l0 0.84375l-0.953125 0l0 3.921875q0 0.375 0.109375 0.578125q0.125 0.1875 0.421875 0.1875q0.21875 0 0.421875 -0.0625l-0.015625 0.875q-0.34375 0.125 -0.71875 0.125q-0.609375 0 -0.9375 -0.4375q-0.3125 -0.453125 -0.3125 -1.25l0 -3.9375l-0.96875 0l0 -0.84375l0.96875 0l0 -1.53125l1.03125 0zm4.451172 8.0q-1.1875 0 -1.828125 -0.703125q-0.625 -0.71875 -0.640625 -2.078125l0 -0.765625q0 -1.421875 0.609375 -2.21875q0.625 -0.8125 1.734375 -0.8125q1.109375 0 1.65625 0.703125q0.5625 0.703125 0.578125 2.203125l0 0.6875l-3.546875 0l0 0.140625q0 1.03125 0.375 1.5q0.390625 0.453125 1.109375 0.453125q0.46875 0 0.8125 -0.171875q0.34375 -0.171875 0.65625 -0.546875l0.53125 0.65625q-0.671875 0.953125 -2.046875 0.953125zm-0.125 -5.6875q-0.640625 0 -0.953125 0.4375q-0.3125 0.4375 -0.34375 1.375l2.484375 0l0 -0.140625q-0.03125 -0.90625 -0.328125 -1.28125q-0.28125 -0.390625 -0.859375 -0.390625zm6.0878906 0.1875q-0.21875 -0.03125 -0.46875 -0.03125q-0.796875 0 -1.109375 0.875l0 4.53125l-1.03125 0l0 -6.34375l1.0 0l0.015625 0.640625q0.421875 -0.75 1.1875 -0.75q0.234375 0 0.40625 0.078125l0 1.0z" fill-rule="nonzero"/><path fill="#ffffff" d="m188.95033 528.064l-0.875 0l0 -10.109375l0.875 0l0 10.109375z" fill-rule="nonzero"/><path fill="#010000" fill-opacity="0.0" d="m192.71596 515.3531l47.671875 0l0 14.0625l-47.671875 0l0 -14.0625z" fill-rule="nonzero"/><path fill="#ffffff" d="m194.76283 526.4859l-1.078125 0l0 -8.53125l1.078125 0l0 8.53125zm2.703125 -6.34375l0.03125 0.6875q0.609375 -0.796875 1.546875 -0.796875q1.671875 0 1.703125 2.234375l0 4.21875l-1.03125 0l0 -4.171875q0 -0.734375 -0.25 -1.046875q-0.25 -0.3125 -0.75 -0.3125q-0.390625 0 -0.703125 0.265625q-0.296875 0.25 -0.484375 0.65625l0 4.609375l-1.03125 0l0 -6.34375l0.96875 0zm7.9160156 4.71875q0 -0.328125 -0.25 -0.5625q-0.25 -0.25 -0.984375 -0.578125q-0.828125 -0.34375 -1.171875 -0.578125q-0.34375 -0.25 -0.515625 -0.5625q-0.171875 -0.3125 -0.171875 -0.75q0 -0.78125 0.5625 -1.28125q0.578125 -0.515625 1.453125 -0.515625q0.921875 0 1.484375 0.546875q0.5625 0.53125 0.5625 1.375l-1.03125 0q0 -0.4375 -0.296875 -0.734375q-0.28125 -0.296875 -0.71875 -0.296875q-0.453125 0 -0.71875 0.234375q-0.265625 0.234375 -0.265625 0.640625q0 0.3125 0.1875 0.515625q0.203125 0.1875 0.921875 0.5q1.15625 0.453125 1.5625 0.890625q0.421875 0.421875 0.421875 1.078125q0 0.828125 -0.578125 1.328125q-0.5625 0.5 -1.515625 0.5q-0.984375 0 -1.609375 -0.5625q-0.609375 -0.578125 -0.609375 -1.453125l1.046875 0q0.015625 0.53125 0.3125 0.828125q0.3125 0.296875 0.859375 0.296875q0.515625 0 0.78125 -0.234375q0.28125 -0.234375 0.28125 -0.625zm3.7480469 -6.25l0 1.53125l0.953125 0l0 0.84375l-0.953125 0l0 3.921875q0 0.375 0.109375 0.578125q0.125 0.1875 0.421875 0.1875q0.21875 0 0.421875 -0.0625l-0.015625 0.875q-0.34375 0.125 -0.71875 0.125q-0.609375 0 -0.9375 -0.4375q-0.3125 -0.453125 -0.3125 -1.25l0 -3.9375l-0.96875 0l0 -0.84375l0.96875 0l0 -1.53125l1.03125 0zm5.435547 7.875q-0.09375 -0.203125 -0.125 -0.6875q-0.546875 0.8125 -1.40625 0.8125q-0.859375 0 -1.34375 -0.484375q-0.484375 -0.484375 -0.484375 -1.375q0 -0.96875 0.65625 -1.53125q0.65625 -0.5625 1.796875 -0.578125l0.765625 0l0 -0.671875q0 -0.578125 -0.265625 -0.8125q-0.25 -0.234375 -0.765625 -0.234375q-0.46875 0 -0.765625 0.28125q-0.28125 0.265625 -0.28125 0.703125l-1.03125 0q0 -0.484375 0.28125 -0.921875q0.28125 -0.453125 0.765625 -0.703125q0.5 -0.25 1.09375 -0.25q0.96875 0 1.46875 0.484375q0.515625 0.484375 0.53125 1.40625l0 3.203125q0 0.71875 0.1875 1.265625l0 0.09375l-1.078125 0zm-1.375 -0.828125q0.375 0 0.71875 -0.203125q0.359375 -0.21875 0.515625 -0.53125l0 -1.515625l-0.59375 0q-0.734375 0.015625 -1.171875 0.34375q-0.421875 0.3125 -0.421875 0.875q0 0.546875 0.21875 0.796875q0.21875 0.234375 0.734375 0.234375zm3.6542969 -2.625q0 -1.484375 0.53125 -2.234375q0.546875 -0.765625 1.59375 -0.765625q0.96875 0 1.46875 0.828125l0.046875 -0.71875l0.9375 0l0 6.40625q0 1.171875 -0.609375 1.796875q-0.59375 0.640625 -1.671875 0.640625q-0.46875 0 -1.0625 -0.234375q-0.578125 -0.234375 -0.859375 -0.578125l0.421875 -0.703125q0.640625 0.625 1.421875 0.625q1.296875 0 1.328125 -1.40625l0 -0.828125q-0.5 0.75 -1.4375 0.75q-0.984375 0 -1.53125 -0.734375q-0.546875 -0.75 -0.578125 -2.140625l0 -0.703125zm1.046875 0.59375q0 1.0625 0.3125 1.5625q0.3125 0.5 1.03125 0.5q0.765625 0 1.15625 -0.796875l0 -3.171875q-0.40625 -0.765625 -1.15625 -0.765625q-0.703125 0 -1.03125 0.5q-0.3125 0.5 -0.3125 1.53125l0 0.640625zm7.6933594 -2.515625q-0.21875 -0.03125 -0.46875 -0.03125q-0.796875 0 -1.109375 0.875l0 4.53125l-1.03125 0l0 -6.34375l1.0 0l0.015625 0.640625q0.421875 -0.75 1.1875 -0.75q0.234375 0 0.40625 0.078125l0 1.0zm4.0566406 5.375q-0.09375 -0.203125 -0.125 -0.6875q-0.546875 0.8125 -1.40625 0.8125q-0.859375 0 -1.34375 -0.484375q-0.484375 -0.484375 -0.484375 -1.375q0 -0.96875 0.65625 -1.53125q0.65625 -0.5625 1.796875 -0.578125l0.765625 0l0 -0.671875q0 -0.578125 -0.265625 -0.8125q-0.25 -0.234375 -0.765625 -0.234375q-0.46875 0 -0.765625 0.28125q-0.28125 0.265625 -0.28125 0.703125l-1.03125 0q0 -0.484375 0.28125 -0.921875q0.28125 -0.453125 0.765625 -0.703125q0.5 -0.25 1.09375 -0.25q0.96875 0 1.46875 0.484375q0.515625 0.484375 0.53125 1.40625l0 3.203125q0 0.71875 0.1875 1.265625l0 0.09375l-1.078125 0zm-1.375 -0.828125q0.375 0 0.71875 -0.203125q0.359375 -0.21875 0.515625 -0.53125l0 -1.515625l-0.59375 0q-0.734375 0.015625 -1.171875 0.34375q-0.421875 0.3125 -0.421875 0.875q0 0.546875 0.21875 0.796875q0.21875 0.234375 0.734375 0.234375zm4.841797 -5.515625l0.03125 0.59375q0.578125 -0.703125 1.53125 -0.703125q1.046875 0 1.46875 0.921875q0.609375 -0.921875 1.671875 -0.921875q1.75 0 1.796875 2.1875l0 4.265625l-1.03125 0l0 -4.171875q0 -0.6875 -0.25 -1.015625q-0.25 -0.34375 -0.828125 -0.34375q-0.46875 0 -0.765625 0.359375q-0.296875 0.359375 -0.34375 0.921875l0 4.25l-1.046875 0l0 -4.21875q-0.015625 -1.3125 -1.0625 -1.3125q-0.78125 0 -1.109375 0.78125l0 4.75l-1.03125 0l0 -6.34375l0.96875 0z" fill-rule="nonzero"/><path fill="#ffffff" d="m245.04213 528.064l-0.875 0l0 -10.109375l0.875 0l0 10.109375z" fill-rule="nonzero"/><path fill="#010000" fill-opacity="0.0" d="m248.80775 515.3531l40.763657 0l0 14.0625l-40.763657 0l0 -14.0625z" fill-rule="nonzero"/><path fill="#ffffff" d="m251.94838 522.2359l1.75 -4.28125l1.203125 0l-2.421875 5.34375l0 3.1875l-1.0625 0l0 -3.1875l-2.4375 -5.34375l1.21875 0l1.75 4.28125zm3.3339844 0.78125q0 -1.375 0.671875 -2.171875q0.67185974 -0.8125 1.7656097 -0.8125q1.109375 0 1.765625 0.78125q0.671875 0.78125 0.703125 2.140625l0 0.671875q0 1.375 -0.671875 2.1875q-0.671875 0.796875 -1.78125 0.796875q-1.109375 0 -1.7812347 -0.78125q-0.65625 -0.78125 -0.671875 -2.109375l0 -0.703125zm1.0312347 0.609375q0 0.96875 0.375 1.53125q0.390625 0.5625 1.046875 0.5625q1.375 0 1.40625 -1.984375l0 -0.71875q0 -0.96875 -0.390625 -1.53125q-0.375 -0.5625 -1.03125 -0.5625q-0.640625 0 -1.03125 0.5625q-0.375 0.5625 -0.375 1.53125l0 0.609375zm8.4453125 2.296875q-0.515625 0.6875 -1.515625 0.6875q-0.859375 0 -1.296875 -0.59375q-0.4375 -0.609375 -0.453125 -1.734375l0 -4.140625l1.03125 0l0 4.0625q0 1.484375 0.890625 1.484375q0.953125 0 1.3125 -0.84375l0 -4.703125l1.03125 0l0 6.34375l-0.984375 0l-0.015625 -0.5625zm7.6914062 -7.046875l-2.25 0l0 7.609375l-1.0625 0l0 -7.609375l-2.234375 0l0 -0.921875l5.546875 0l0 0.921875zm3.7988281 7.046875q-0.515625 0.6875 -1.515625 0.6875q-0.859375 0 -1.296875 -0.59375q-0.4375 -0.609375 -0.453125 -1.734375l0 -4.140625l1.03125 0l0 4.0625q0 1.484375 0.890625 1.484375q0.953125 0 1.3125 -0.84375l0 -4.703125l1.03125 0l0 6.34375l-0.984375 0l-0.015625 -0.5625zm7.1601562 -2.296875q0 1.46875 -0.546875 2.234375q-0.53125 0.75 -1.546875 0.75q-1.0 0 -1.5 -0.875l-0.0625 0.75l-0.9375 0l0 -9.0l1.03125 0l0 3.359375q0.515625 -0.8125 1.46875 -0.8125q1.03125 0 1.546875 0.734375q0.53125 0.734375 0.546875 2.21875l0 0.640625zm-1.03125 -0.59375q0 -1.125 -0.328125 -1.59375q-0.3125 -0.484375 -1.015625 -0.484375q-0.796875 0 -1.1875 0.859375l0 3.015625q0.390625 0.859375 1.203125 0.859375q0.703125 0 1.0 -0.484375q0.3125 -0.5 0.328125 -1.53125l0 -0.640625zm4.6210938 3.578125q-1.1875 0 -1.828125 -0.703125q-0.625 -0.71875 -0.640625 -2.078125l0 -0.765625q0 -1.421875 0.609375 -2.21875q0.625 -0.8125 1.734375 -0.8125q1.109375 0 1.65625 0.703125q0.5625 0.703125 0.578125 2.203125l0 0.6875l-3.546875 0l0 0.140625q0 1.03125 0.375 1.5q0.390625 0.453125 1.109375 0.453125q0.46875 0 0.8125 -0.171875q0.34375 -0.171875 0.65625 -0.546875l0.53125 0.65625q-0.671875 0.953125 -2.046875 0.953125zm-0.125 -5.6875q-0.640625 0 -0.953125 0.4375q-0.3125 0.4375 -0.34375 1.375l2.484375 0l0 -0.140625q-0.03125 -0.90625 -0.328125 -1.28125q-0.28125 -0.390625 -0.859375 -0.390625z" fill-rule="nonzero"/><path fill="#000000" fill-opacity="0.0" d="m289.57144 515.3531l0 0l0 14.0625l0 0l0 -14.0625z" fill-rule="nonzero"/><a xlink:href="https://www.google.com/url?q=https://twitter.com/nicolasmeseth&amp;sa=D&amp;ust=1611591946752000&amp;usg=AOvVaw3xWvqprH93Hyd5JnLxp2f_" target="_blank" rel="noreferrer"><path fill="transparent" fill-opacity="0" d="m151.47768 514.9659l32.81836 0l0 14.400024l-32.81836 0l0 -14.400024z" fill-rule="nonzero"/></a><a xlink:href="https://www.google.com/url?q=https://www.instagram.com/nmeseth/&amp;sa=D&amp;ust=1611591946752000&amp;usg=AOvVaw2FDatlpfjVaEN2DBVSZ1nf" target="_blank" rel="noreferrer"><path fill="transparent" fill-opacity="0" d="m192.71596 514.9659l47.671875 0l0 14.400024l-47.671875 0l0 -14.400024z" fill-rule="nonzero"/></a><a xlink:href="https://www.google.com/url?q=https://www.youtube.com/nicolasmeseth&amp;sa=D&amp;ust=1611591946752000&amp;usg=AOvVaw0viodFqJ6DRPzBgVE7hp7w" target="_blank" rel="noreferrer"><path fill="transparent" fill-opacity="0" d="m248.80775 514.9659l40.763687 0l0 14.400024l-40.763687 0l0 -14.400024z" fill-rule="nonzero"/></a><path fill="#ffffff" d="m926.61633 530.85944l0.12512207 0.0056152344l0.21044922 0.09112549l0.08532715 0.07946777l0.073791504 0.09118652l0.074035645 0.2331543l0.011474609 0.14221191l0 0.14788818l-0.011474609 0.14221191l-0.07965088 0.23883057l-0.07385254 0.09680176l-0.08544922 0.07965088l-0.21044922 0.08526611l-0.13079834 0.011474609l-0.31848145 0l0 -1.4448853zm-0.47216797 -0.119506836l0 1.6837158l0.46069336 0l0.10803223 -0.0056152344l0.18774414 -0.04547119l0.08526611 -0.04547119l0.07965088 -0.051330566l0.13098145 -0.13641357l0.04547119 -0.07965088l0.04547119 -0.09112549l0.04547119 -0.19897461l0 -0.1138916l0 -0.15350342l0 -0.10803223l-0.04547119 -0.20477295l-0.04547119 -0.08532715l-0.04547119 -0.08526611l-0.13098145 -0.13665771l-0.07965088 -0.05126953l-0.07946777 -0.039611816l-0.18786621 -0.051330566z" fill-rule="evenodd"/><path fill="#ffffff" d="m892.6621 525.72845l0 2.8272095l0.4607544 0l0 -1.211731l1.2686157 0l0 1.211731l0.48345947 0l0 -2.8272095l-0.48345947 0l0 1.2457275l-1.2686157 0l0 -1.2457275l-0.4607544 0z" fill-rule="evenodd"/><path fill="#ffffff" d="m896.6212 526.064l0.15368652 0.017089844l0.2559204 0.10803223l0.18774414 0.22753906l0.09674072 0.29595947l0 0.16497803l0 0.50616455l0 0.1876831l-0.09674072 0.29577637l-0.18774414 0.20477295l-0.2559204 0.1138916l-0.15368652 0.017089844l-0.14782715 -0.017089844l-0.2559204 -0.1138916l-0.1708374 -0.20477295l-0.09094238 -0.29577637l0 -0.1876831l0 -0.50616455l0 -0.16497803l0.09094238 -0.29595947l0.1708374 -0.22753906l0.2559204 -0.10803223zm-0.2559204 -0.37542725l-0.40960693 0.18774414l-0.30133057 0.31280518l-0.16497803 0.43237305l0 0.25610352l0 0.50616455l0 0.26171875l0.16497803 0.42651367l0.30133057 0.3357544l0.40960693 0.16479492l0.2559204 0.022949219l0.2617798 -0.022949219l0.432312 -0.16479492l0.29577637 -0.3357544l0.16491699 -0.42651367l0.022766113 -0.26171875l0 -0.50616455l-0.022766113 -0.25610352l-0.16491699 -0.43237305l-0.29577637 -0.31280518l-0.432312 -0.18774414z" fill-rule="evenodd"/><path fill="#ffffff" d="m899.1755 525.6886l-0.3925171 0.1708374l-0.29595947 0.31280518l-0.14788818 0.4492798l-0.022705078 0.23895264l0 0.5404053l0.022705078 0.26171875l0.14788818 0.42651367l0.27886963 0.31866455l0.40960693 0.16479492l0.23876953 0.022949219l0.2446289 -0.022949219l0.369812 -0.1307373l0.2786255 -0.23883057l0.17059326 -0.35266113l0.017150879 -0.22753906l-0.46636963 0l-0.0569458 0.2786255l-0.19915771 0.22753906l-0.20483398 0.074035645l-0.15350342 0.016906738l-0.14782715 -0.016906738l-0.22192383 -0.1138916l-0.17059326 -0.2218628l-0.074035645 -0.27868652l-0.016906738 -0.1876831l0 -0.5404053l0.016906738 -0.16491699l0.074035645 -0.3015747l0.17059326 -0.20483398l0.22192383 -0.12512207l0.30133057 0l0.20483398 0.074035645l0.19915771 0.23901367l0.0569458 0.2786255l0.46636963 0l-0.017150879 -0.22192383l-0.17059326 -0.36975098l-0.2559204 -0.2444458l-0.3925171 -0.13098145l-0.48339844 0z" fill-rule="evenodd"/><path fill="#ffffff" d="m901.10944 525.72845l0 2.8272095l0.46636963 0l0 -1.211731l1.2628174 0l0 1.211731l0.46655273 0l0 -2.8272095l-0.46655273 0l0 1.2457275l-1.2628174 0l0 -1.2457275l-0.46636963 0z" fill-rule="evenodd"/><path fill="#ffffff" d="m904.8354 525.6886l-0.37542725 0.1138916l-0.27886963 0.20477295l-0.1307373 0.29577637l-0.017089844 0.17059326l0.017089844 0.14788818l0.11364746 0.2788086l0.40960693 0.29577637l0.44384766 0.1307373l0.30133057 0.09112549l0.27886963 0.2446289l0.016906738 0.16497803l-0.03967285 0.17059326l-0.2788086 0.20483398l-0.23883057 0.016906738l-0.2788086 -0.016906738l-0.2617798 -0.1876831l-0.09088135 -0.18774414l0 -0.13092041l-0.48931885 0l0.022949219 0.20477295l0.16479492 0.3355713l0.31866455 0.22753906l0.3925171 0.10803223l0.2218628 0.022949219l0.22174072 -0.022949219l0.3753662 -0.09094238l0.27886963 -0.20477295l0.13079834 -0.27868652l0.017089844 -0.1876831l0 -0.14788818l-0.13079834 -0.2788086l-0.22192383 -0.22192383l-0.35827637 -0.17059326l-0.22192383 -0.0569458l-0.31280518 -0.10803223l-0.18774414 -0.09655762l-0.11383057 -0.10821533l-0.033996582 -0.1706543l0.033996582 -0.16491699l0.26171875 -0.20483398l0.2446289 -0.017089844l0.2559204 0.017089844l0.2788086 0.26171875l0.03967285 0.20483398l0.46655273 0l-0.017089844 -0.1876831l-0.13079834 -0.29595947l-0.27886963 -0.2444458l-0.3753662 -0.13098145l-0.44360352 0z" fill-rule="evenodd"/><path fill="#ffffff" d="m907.4407 525.6886l-0.40960693 0.1708374l-0.2788086 0.31280518l-0.17059326 0.4492798l0 0.23895264l0 0.5404053l0 0.26171875l0.14782715 0.42651367l0.3015747 0.31866455l0.38690186 0.16479492l0.2444458 0.022949219l0.23901367 -0.022949219l0.3925171 -0.1307373l0.26153564 -0.23883057l0.16497803 -0.35266113l0.039794922 -0.22753906l-0.48345947 0l-0.039794922 0.2786255l-0.20483398 0.22753906l-0.2218628 0.074035645l-0.14788818 0.016906738l-0.13079834 -0.016906738l-0.2446289 -0.1138916l-0.14788818 -0.2218628l-0.09094238 -0.27868652l0 -0.1876831l0 -0.5404053l0 -0.16491699l0.09094238 -0.3015747l0.14788818 -0.20483398l0.2446289 -0.12512207l0.27868652 0l0.2218628 0.074035645l0.20483398 0.23901367l0.039794922 0.2786255l0.48345947 0l-0.039794922 -0.22192383l-0.14788818 -0.36975098l-0.2786255 -0.2444458l-0.3925171 -0.13098145l-0.4607544 0z" fill-rule="evenodd"/><path fill="#ffffff" d="m909.3576 525.72845l0 2.8272095l0.48364258 0l0 -1.211731l1.2628174 0l0 1.211731l0.4663086 0l0 -2.8272095l-0.4663086 0l0 1.2457275l-1.2628174 0l0 -1.2457275l-0.48364258 0z" fill-rule="evenodd"/><path fill="#ffffff" d="m912.29846 525.72845l0 1.8943481l0.017150879 0.22753906l0.14782715 0.35266113l0.27886963 0.26153564l0.40942383 0.10803223l0.22753906 0.022949219l0.25610352 -0.022949219l0.39245605 -0.10803223l0.29577637 -0.26153564l0.15350342 -0.35266113l0.017089844 -0.22753906l0 -1.8943481l-0.46636963 0l0 1.8943481l-0.017089844 0.1307373l-0.074035645 0.22753906l-0.17059326 0.14788818l-0.23883057 0.074035645l-0.14801025 0.016906738l-0.13079834 -0.016906738l-0.22753906 -0.074035645l-0.16497803 -0.14788818l-0.07385254 -0.22753906l-0.017089844 -0.1307373l0 -1.8943481l-0.46655273 0z" fill-rule="evenodd"/><path fill="#ffffff" d="m915.2167 525.72845l0 2.8272095l1.8259277 0l0 -0.3925171l-1.359436 0l0 -2.4346924l-0.4664917 0z" fill-rule="evenodd"/><path fill="#ffffff" d="m917.6001 525.72845l0 2.8272095l1.9170532 0l0 -0.3925171l-1.4334106 0l0 -0.8930664l1.2286377 0l0 -0.36975098l-1.2286377 0l0 -0.802124l1.4163208 0l0 -0.36975098l-1.8999634 0z" fill-rule="evenodd"/><path fill="#ffffff" d="m922.64575 526.064l0.14788818 0.017089844l0.26171875 0.10803223l0.18774414 0.22753906l0.09094238 0.29595947l0 0.16497803l0 0.50616455l0 0.1876831l-0.09094238 0.29577637l-0.18774414 0.20477295l-0.26171875 0.1138916l-0.14788818 0.017089844l-0.14782715 -0.017089844l-0.2617798 -0.1138916l-0.16497803 -0.20477295l-0.09674072 -0.29577637l0 -0.1876831l0 -0.50616455l0 -0.16497803l0.09674072 -0.29595947l0.16497803 -0.22753906l0.2617798 -0.10803223zm-0.26171875 -0.37542725l-0.40960693 0.18774414l-0.29577637 0.31280518l-0.17059326 0.43237305l0 0.25610352l0 0.50616455l0 0.26171875l0.17059326 0.42651367l0.29577637 0.3357544l0.40960693 0.16479492l0.26171875 0.022949219l0.26153564 -0.022949219l0.4267578 -0.16479492l0.3015747 -0.3357544l0.16491699 -0.42651367l0.016906738 -0.26171875l0 -0.50616455l-0.016906738 -0.25610352l-0.16491699 -0.43237305l-0.3015747 -0.31280518l-0.4267578 -0.18774414z" fill-rule="evenodd"/><path fill="#ffffff" d="m925.17706 525.6886l-0.36975098 0.1138916l-0.26153564 0.20477295l-0.14807129 0.29577637l0 0.17059326l0 0.14788818l0.13092041 0.2788086l0.40942383 0.29577637l0.44384766 0.1307373l0.29571533 0.09112549l0.28448486 0.2446289l0.017089844 0.16497803l-0.039855957 0.17059326l-0.2788086 0.20483398l-0.23883057 0.016906738l-0.2788086 -0.016906738l-0.26153564 -0.1876831l-0.09680176 -0.18774414l-0.017089844 -0.13092041l-0.46636963 0l0.022766113 0.20477295l0.16497803 0.3355713l0.31848145 0.22753906l0.38684082 0.10803223l0.22753906 0.022949219l0.22192383 -0.022949219l0.36956787 -0.09094238l0.27886963 -0.20477295l0.1307373 -0.27868652l0.022766113 -0.1876831l-0.022766113 -0.14788818l-0.10803223 -0.2788086l-0.22753906 -0.22192383l-0.35266113 -0.17059326l-0.22192383 -0.0569458l-0.31848145 -0.10803223l-0.18206787 -0.09655762l-0.1307373 -0.10821533l-0.022766113 -0.1706543l0.022766113 -0.16491699l0.2786255 -0.20483398l0.23901367 -0.017089844l0.26153564 0.017089844l0.2788086 0.26171875l0.022766113 0.20483398l0.48345947 0l-0.022766113 -0.1876831l-0.14788818 -0.29595947l-0.26171875 -0.2444458l-0.3866577 -0.13098145l-0.4494629 0z" fill-rule="evenodd"/><path fill="#ffffff" d="m927.077 525.72845l0 2.8272095l0.46636963 0l0 -2.0820312l1.2628174 2.0820312l0.46655273 0l0 -2.8272095l-0.46655273 0l0 2.0649414l-1.2628174 -2.0649414l-0.46636963 0z" fill-rule="evenodd"/><path fill="#ffffff" d="m931.00195 526.28595l0.432312 1.2058716l-0.84173584 0zm-0.22174072 -0.5574951l-1.0239868 2.8272095l0.46655273 0l0.23876953 -0.6884155l1.0807495 0l0.24468994 0.6884155l0.48364258 0l-1.0240479 -2.8272095z" fill-rule="evenodd"/><path fill="#ffffff" d="m933.68695 526.0982l0.23876953 0.017089844l0.2617798 0.20483398l0.017089844 0.1876831l-0.017089844 0.18774414l-0.2446289 0.20477295l-0.20483398 0.017089844l-0.54034424 0l0 -0.81921387zm0.16497803 1.171875l0.2218628 0.016906738l0.22753906 0.24468994l0.016906738 0.20477295l-0.016906738 0.1876831l-0.26171875 0.22192383l-0.22753906 0.017089844l-0.6143799 0l0 -0.8930664zm-1.1149902 -1.541626l0 2.8272095l1.0751343 0l0.22753906 -0.017089844l0.35266113 -0.09674072l0.2617798 -0.20483398l0.10803223 -0.3128662l0.022705078 -0.1876831l-0.022705078 -0.2446289l-0.25610352 -0.35266113l-0.2444458 -0.07385254l0 -0.017089844l0.1876831 -0.074035645l0.20483398 -0.3013916l0.016906738 -0.18206787l0 -0.1876831l-0.13079834 -0.27868652l-0.26171875 -0.20477295l-0.36956787 -0.09112549z" fill-rule="evenodd"/><path fill="#ffffff" d="m936.4572 526.0982l0.2444458 0.017089844l0.25610352 0.24468994l0.022766113 0.20477295l-0.022766113 0.20458984l-0.25610352 0.23901367l-0.2444458 0.022766113l-0.54034424 0l0 -0.93292236zm-1.0239868 -0.36975098l0 2.8272095l0.48364258 0l0 -1.1547852l0.6141968 0l0.5574951 1.1547852l0.5232544 0l0 -0.039794922l-0.6312866 -1.2288818l0.20477295 -0.12512207l0.23883057 -0.35827637l0.022766113 -0.2559204l0 -0.1876831l-0.13079834 -0.3187256l-0.26153564 -0.20477295l-0.35290527 -0.10803223z" fill-rule="evenodd"/><path fill="#ffffff" d="m938.5618 525.01746l0 0.43237305l0.46655273 0l0 -0.43237305zm0.85339355 0l0 0.43237305l0.46636963 0l0 -0.43237305zm-1.3026123 0.71099854l0 1.8943481l0.022705078 0.22753906l0.14788818 0.35266113l0.2786255 0.26153564l0.40960693 0.10803223l0.23901367 0.022949219l0.2444458 -0.022949219l0.40960693 -0.10803223l0.2788086 -0.26153564l0.14788818 -0.35266113l0.017089844 -0.22753906l0 -1.8943481l-0.46087646 0l0 1.8943481l-0.022766113 0.1307373l-0.07385254 0.22753906l-0.16491699 0.14788818l-0.24468994 0.074035645l-0.1307373 0.016906738l-0.14807129 -0.016906738l-0.22174072 -0.074035645l-0.16491699 -0.14788818l-0.079711914 -0.22753906l-0.017089844 -0.1307373l0 -1.8943481z" fill-rule="evenodd"/><path fill="#ffffff" d="m941.79865 525.6886l-0.38684082 0.1708374l-0.3015747 0.31280518l-0.14788818 0.4492798l-0.017089844 0.23895264l0 0.5404053l0.017089844 0.26171875l0.14788818 0.42651367l0.3015747 0.31866455l0.38684082 0.16479492l0.2444458 0.022949219l0.23901367 -0.022949219l0.3925171 -0.1307373l0.26171875 -0.23883057l0.16497803 -0.35266113l0.022766113 -0.22753906l-0.46655273 0l-0.0569458 0.2786255l-0.20477295 0.22753906l-0.20465088 0.074035645l-0.14807129 0.016906738l-0.1307373 -0.016906738l-0.2446289 -0.1138916l-0.16497803 -0.2218628l-0.07385254 -0.27868652l0 -0.1876831l0 -0.5404053l0 -0.16491699l0.07385254 -0.3015747l0.16497803 -0.20483398l0.2446289 -0.12512207l0.2788086 0l0.22174072 0.074035645l0.1876831 0.23901367l0.0569458 0.2786255l0.46655273 0l-0.022766113 -0.22192383l-0.16497803 -0.36975098l-0.26171875 -0.2444458l-0.3925171 -0.13098145l-0.48345947 0z" fill-rule="evenodd"/><path fill="#ffffff" d="m943.7383 525.72845l0 2.8272095l0.4609375 0l0 -0.9328613l0.30133057 -0.3128662l0.91015625 1.2457275l0.5973511 0l-1.1946411 -1.5983887l1.0638428 -1.2288208l-0.5574951 0l-1.1205444 1.3026733l0 -1.3026733l-0.4609375 0z" fill-rule="evenodd"/><path fill="#ffffff" d="m898.5212 530.7514l0 1.1147461l0 0.15368652l0.074035645 0.20483398l0.26159668 0.18206787l0.2446289 0.039611816l0.26171875 -0.039611816l0.2559204 -0.18206787l0.074035645 -0.20483398l0.022705078 -0.15368652l0 -1.1147461l-0.14807129 0l0 1.1147461l-0.022705078 0.20483398l-0.23883057 0.22753906l-0.20477295 0.017089844l-0.18774414 -0.017089844l-0.2446289 -0.22753906l-0.017089844 -0.20483398l0 -1.1147461l-0.13079834 0z" fill-rule="evenodd"/><path fill="#ffffff" d="m900.23346 530.7514l0 1.6553345l0.13079834 0l0 -1.4336548l0.9500122 1.4336548l0.1307373 0l0 -1.6553345l-0.1307373 0l0 1.4334106l-0.9500122 -1.4334106l-0.13079834 0z" fill-rule="evenodd"/><path fill="#ffffff" d="m902.09924 530.7514l0 1.6553345l0.14788818 0l0 -1.6553345l-0.14788818 0z" fill-rule="evenodd"/><path fill="#ffffff" d="m902.7135 530.7514l0.6143799 1.6553345l0.12512207 0l0.637146 -1.6553345l-0.15368652 0l-0.5005493 1.3765259l-0.033996582 0.11383057l-0.039794922 -0.11383057l-0.5005493 -1.3765259l-0.14807129 0z" fill-rule="evenodd"/><path fill="#ffffff" d="m904.45996 530.7514l0 1.6553345l1.0408936 0l0 -0.10821533l-0.91015625 0l0 -0.68829346l0.802124 0l0 -0.11364746l-0.802124 0l0 -0.63153076l0.91015625 0l0 -0.11364746l-1.0408936 0z" fill-rule="evenodd"/><path fill="#ffffff" d="m906.59875 530.86505l0.1876831 0.017089844l0.1876831 0.18774414l0.017150879 0.14788818l0 0.14782715l-0.20483398 0.18774414l-0.6143799 0l0 -0.68829346zm-0.57458496 -0.11364746l0 1.6553345l0.14788818 0l0 -0.72247314l0.50634766 0l0.3866577 0.72247314l0.14807129 0l0 -0.017089844l-0.40960693 -0.7451782l0.15350342 -0.0569458l0.16497803 -0.22192383l0.017089844 -0.14782715l-0.034179688 -0.20483398l-0.26153564 -0.2446289l-0.2446289 -0.016906738z" fill-rule="evenodd"/><path fill="#ffffff" d="m908.18585 530.7343l-0.22753906 0.017089844l-0.29589844 0.22167969l-0.039855957 0.18774414l0.039855957 0.17077637l0.26171875 0.22174072l0.26171875 0.074035645l0.22174072 0.073791504l0.22192383 0.16497803l0.017089844 0.13098145l-0.034240723 0.15350342l-0.2218628 0.16497803l-0.39233398 0l-0.26171875 -0.1876831l-0.017089844 -0.1821289l-0.14788818 0l0.017089844 0.10809326l0.09094238 0.18786621l0.2788086 0.16497803l0.2444458 0.039611816l0.23901367 -0.039611816l0.2446289 -0.14807129l0.07385254 -0.14788818l0.017089844 -0.11364746l-0.017089844 -0.16497803l-0.2786255 -0.2446289l-0.26171875 -0.074035645l-0.22174072 -0.07385254l-0.22192383 -0.16497803l0 -0.11383057l0.017150879 -0.13079834l0.20477295 -0.16497803l0.1876831 -0.022705078l0.20465088 0.022705078l0.2218628 0.20483398l0.017150879 0.14788818l0.1307373 0l-0.016906738 -0.20483398l-0.3015747 -0.26153564l-0.2559204 -0.017089844z" fill-rule="evenodd"/><path fill="#ffffff" d="m909.3576 530.7514l0 1.6553345l0.1307373 0l0 -1.6553345l-0.1307373 0z" fill-rule="evenodd"/><path fill="#ffffff" d="m909.9493 530.7514l0 0.11364746l0.5802002 0l0 1.541687l0.1307373 0l0 -1.541687l0.5574951 0l0 -0.11364746l-1.2684326 0z" fill-rule="evenodd"/><path fill="#ffffff" d="m911.4567 530.7514l0.59710693 1.0408936l0 0.6144409l0.14807129 0l0 -0.5916748l0.59710693 -1.0636597l-0.14782715 0l-0.5233154 0.9328613l-0.5005493 -0.9328613l-0.17059326 0z" fill-rule="evenodd"/><path fill="#ffffff" d="m914.43726 530.84235l0.1138916 0.022705078l0.18206787 0.074035645l0.1876831 0.26153564l0.017089844 0.23901367l0 0.2786255l-0.017089844 0.2617798l-0.1876831 0.2446289l-0.18206787 0.09094238l-0.22753906 0l-0.18206787 -0.09094238l-0.18774414 -0.2446289l-0.017089844 -0.2617798l0 -0.2786255l0.017089844 -0.23901367l0.18774414 -0.26153564l0.18206787 -0.074035645zm-0.14782715 -0.10803223l-0.2444458 0.10803223l-0.14807129 0.1876831l-0.09094238 0.26171875l-0.017089844 0.14788818l0 0.2786255l0.017089844 0.14788818l0.09094238 0.2617798l0.17077637 0.20477295l0.22174072 0.09674072l0.14782715 0.016906738l0.13098145 -0.016906738l0.23883057 -0.09674072l0.17077637 -0.20477295l0.09094238 -0.2617798l0.022705078 -0.14788818l0 -0.2786255l-0.022705078 -0.14788818l-0.09094238 -0.26171875l-0.17077637 -0.1876831l-0.23883057 -0.10803223z" fill-rule="evenodd"/><path fill="#ffffff" d="m915.57495 530.7514l0 1.6553345l0.13098145 0l0 -0.7793579l0.79626465 0l0 -0.1138916l-0.79626465 0l0 -0.6484375l0.927063 0l0 -0.11364746l-1.0580444 0z" fill-rule="evenodd"/><path fill="#ffffff" d="m918.23724 530.922l0.32989502 0.91015625l-0.6654663 0zm-0.079711914 -0.17059326l-0.60858154 1.6553345l0.1251831 0l0.17059326 -0.4609375l0.76226807 0l0.16497803 0.4609375l0.15350342 0l-0.637146 -1.6553345z" fill-rule="evenodd"/><path fill="#ffffff" d="m919.8755 530.86505l0.18206787 0.017089844l0.20477295 0.20483398l0.022766113 0.14788818l-0.022766113 0.14782715l-0.20477295 0.20483398l-0.18206787 0.022705078l-0.43237305 0l0 -0.7451782zm-0.58026123 -0.11364746l0 1.6553345l0.14788818 0l0 -0.68847656l0.43237305 0l0.23901367 -0.017089844l0.2786255 -0.26153564l0.017089844 -0.20477295l-0.017089844 -0.20483398l-0.2786255 -0.26171875l-0.23901367 -0.016906738z" fill-rule="evenodd"/><path fill="#ffffff" d="m922.36694 530.7514l0 1.6553345l0.96710205 0l0 -0.10821533l-0.81921387 0l0 -1.5471191l-0.14788818 0z" fill-rule="evenodd"/><path fill="#ffffff" d="m923.8402 530.7514l0 1.6553345l0.12530518 0l0 -1.6553345l-0.12530518 0z" fill-rule="evenodd"/><path fill="#ffffff" d="m924.61957 530.7514l0 1.6553345l1.0580444 0l0 -0.10821533l-0.9272461 0l0 -0.68829346l0.802124 0l0 -0.11364746l-0.802124 0l0 -0.63153076l0.91015625 0l0 -0.11364746l-1.0409546 0z" fill-rule="evenodd"/><path fill="#ffffff" d="m929.18164 530.7343l-0.2444458 0.017089844l-0.29595947 0.22167969l-0.022705078 0.18774414l0.022705078 0.17077637l0.27886963 0.22174072l0.23876953 0.074035645l0.24468994 0.073791504l0.20477295 0.16497803l0.017089844 0.13098145l-0.017089844 0.15350342l-0.2446289 0.16497803l-0.36975098 0l-0.27868652 -0.1876831l-0.017089844 -0.1821289l-0.1307373 0l0 0.10809326l0.09088135 0.18786621l0.27886963 0.16497803l0.2444458 0.039611816l0.23901367 -0.039611816l0.2446289 -0.14807129l0.09094238 -0.14788818l0 -0.11364746l-0.017089844 -0.16497803l-0.27868652 -0.2446289l-0.2446289 -0.074035645l-0.23876953 -0.07385254l-0.20483398 -0.16497803l-0.022705078 -0.11383057l0.022705078 -0.13079834l0.22174072 -0.16497803l0.1876831 -0.022705078l0.18206787 0.022705078l0.22753906 0.20483398l0.017089844 0.14788818l0.13079834 0l-0.017150879 -0.20483398l-0.30133057 -0.26153564l-0.23901367 -0.017089844z" fill-rule="evenodd"/><path fill="#ffffff" d="m930.61523 530.7343l-0.22753906 0.10803223l-0.16491699 0.1876831l-0.09118652 0.26171875l0 0.14788818l0 0.2786255l0 0.14788818l0.09118652 0.28448486l0.16491699 0.18206787l0.22753906 0.09674072l0.13079834 0.016906738l0.2559204 -0.039611816l0.3015747 -0.2788086l0.0569458 -0.23883057l-0.15374756 0l-0.033996582 0.20458984l-0.2218628 0.20483398l-0.20483398 0.017089844l-0.1138916 0l-0.17059326 -0.09094238l-0.16497803 -0.2446289l-0.039794922 -0.2617798l0 -0.2786255l0.039794922 -0.23901367l0.16497803 -0.26153564l0.17059326 -0.09674072l0.1138916 0l0.20483398 0.022705078l0.2218628 0.20483398l0.033996582 0.20477295l0.15374756 0l-0.0569458 -0.2446289l-0.3015747 -0.2786255l-0.2559204 -0.017089844l-0.13079834 0z" fill-rule="evenodd"/><path fill="#ffffff" d="m931.9179 530.7514l0 1.6553345l0.13079834 0l0 -1.6553345l-0.13079834 0z" fill-rule="evenodd"/><path fill="#ffffff" d="m932.69714 530.7514l0 1.6553345l1.0636597 0l0 -0.10821533l-0.93292236 0l0 -0.68829346l0.802124 0l0 -0.11364746l-0.802124 0l0 -0.63153076l0.91015625 0l0 -0.11364746l-1.0408936 0z" fill-rule="evenodd"/><path fill="#ffffff" d="m934.2217 530.7514l0 1.6553345l0.15350342 0l0 -1.4336548l0.94433594 1.4336548l0.13079834 0l0 -1.6553345l-0.13079834 0l0 1.4334106l-0.94433594 -1.4334106l-0.15350342 0z" fill-rule="evenodd"/><path fill="#ffffff" d="m936.42303 530.7343l-0.22753906 0.10803223l-0.16497803 0.1876831l-0.07385254 0.26171875l-0.022888184 0.14788818l0 0.2786255l0.022888184 0.14788818l0.07385254 0.28448486l0.16497803 0.18206787l0.22753906 0.09674072l0.14788818 0.016906738l0.23901367 -0.039611816l0.30133057 -0.2788086l0.051330566 -0.23883057l-0.12512207 0l-0.0569458 0.20458984l-0.22753906 0.20483398l-0.18206787 0.017089844l-0.113708496 0l-0.1876831 -0.09094238l-0.16497803 -0.2446289l-0.017089844 -0.2617798l0 -0.2786255l0.017089844 -0.23901367l0.16497803 -0.26153564l0.1876831 -0.09674072l0.113708496 0l0.18206787 0.022705078l0.22753906 0.20483398l0.0569458 0.20477295l0.12512207 0l-0.051330566 -0.2446289l-0.30133057 -0.2786255l-0.23901367 -0.017089844l-0.14788818 0z" fill-rule="evenodd"/><path fill="#ffffff" d="m937.62897 530.7514l0 1.6553345l1.0467529 0l0 -0.10821533l-0.9158325 0l0 -0.68829346l0.8019409 0l0 -0.11364746l-0.8019409 0l0 -0.63153076l0.9158325 0l0 -0.11364746l-1.0467529 0z" fill-rule="evenodd"/><path fill="#ffffff" d="m939.5859 530.7343l-0.22192383 0.017089844l-0.3015747 0.22167969l-0.033996582 0.18774414l0.017089844 0.17077637l0.2786255 0.22174072l0.2617798 0.074035645l0.22167969 0.073791504l0.22192383 0.16497803l0 0.13098145l-0.017089844 0.15350342l-0.22174072 0.16497803l-0.3925171 0l-0.26171875 -0.1876831l-0.017089844 -0.1821289l-0.14788818 0l0.017089844 0.10809326l0.09094238 0.18786621l0.26171875 0.16497803l0.2617798 0.039611816l0.2444458 -0.039611816l0.23901367 -0.14807129l0.073791504 -0.14788818l0.022949219 -0.11364746l-0.039855957 -0.16497803l-0.26171875 -0.2446289l-0.26171875 -0.074035645l-0.22174072 -0.07385254l-0.2218628 -0.16497803l-0.017150879 -0.11383057l0.017150879 -0.13079834l0.2218628 -0.16497803l0.18774414 -0.022705078l0.20477295 0.022705078l0.22174072 0.20483398l0.017089844 0.14788818l0.1307373 0l-0.016906738 -0.20483398l-0.31866455 -0.26153564l-0.23876953 -0.017089844z" fill-rule="evenodd"/><path fill="#ffffff" d="m922.5546 512.7875l0 3.1115112l3.8909302 -1.5643921l-3.8909302 -1.5471191z" fill-rule="evenodd"/><path fill="#ffffff" d="m919.3124 511.48483l-7.1275635 2.849762l3.8908691 1.5643921l3.2366943 -1.3026733l0 -3.1114807z" fill-rule="evenodd"/><path fill="#ffffff" d="m911.5533 514.5963l0 3.105896l4.5224 1.8088379l0 -3.1115112l-4.5224 -1.8032227z" fill-rule="evenodd"/><path fill="#ffffff" d="m911.68427 514.80115l4.260498 1.6951904l0 2.8270264l-4.260498 -1.7120972l0 -2.8101196z" fill-rule="evenodd"/><path fill="#ffffff" d="m927.077 514.5963l-7.7646484 3.105896l0 3.1115112l7.7646484 -3.1115112l0 -3.105896z" fill-rule="evenodd"/><path fill="#ffffff" d="m926.9461 514.80115l0 2.8101196l-7.5029907 2.9976196l0 -2.8099365l7.5029907 -2.9978027z" fill-rule="evenodd"/><path fill="#ffffff" d="m921.4568 530.86505l0.1876831 0.017089844l0.20483398 0.20483398l0.017089844 0.14788818l-0.017089844 0.14782715l-0.20483398 0.20483398l-0.1876831 0.022705078l-0.42651367 0l0 -0.7451782zm-0.57440186 -0.11364746l0 1.6553345l0.14788818 0l0 -0.68847656l0.42651367 0l0.2446289 -0.017089844l0.2788086 -0.26153564l0.016906738 -0.20477295l-0.016906738 -0.20483398l-0.2788086 -0.26171875l-0.2446289 -0.016906738z" fill-rule="evenodd"/><path fill="#000000" fill-opacity="0.0" d="m23.194881 67.85324l326.17322 0" fill-rule="evenodd"/><path stroke="#999999" stroke-width="1.0" stroke-linejoin="round" stroke-linecap="butt" d="m23.194881 67.85324l326.17322 0" fill-rule="evenodd"/><path fill="#000000" fill-opacity="0.0" d="m17.370079 11.167979l284.44095 0l0 30.456692l-284.44095 0z" fill-rule="evenodd"/><path fill="#434343" d="m31.791954 20.050697l2.6875 0l0 9.1875q0 1.921875 -1.078125 3.09375q-1.078125 1.171875 -2.765625 1.171875q-1.828125 0 -2.84375 -1.078125q-1.0 -1.09375 -1.0 -3.03125l2.6875 0q0 1.875 1.15625 1.875q1.15625 0 1.15625 -2.15625l0 -9.0625zm14.13031 7.828125q0 2.671875 -1.265625 4.15625q-1.265625 1.46875 -3.5 1.46875q-2.234375 0 -3.515625 -1.453125q-1.265625 -1.46875 -1.28125 -4.109375l0 -2.265625q0 -2.734375 1.265625 -4.265625q1.265625 -1.546875 3.515625 -1.546875q2.203125 0 3.484375 1.515625q1.28125 1.5 1.296875 4.234375l0 2.265625zm-2.6875 -2.21875q0 -1.796875 -0.515625 -2.671875q-0.5 -0.875 -1.578125 -0.875q-1.0625 0 -1.578125 0.84375q-0.515625 0.84375 -0.53125 2.5625l0 2.359375q0 1.734375 0.515625 2.5625q0.53125 0.828125 1.609375 0.828125q1.046875 0 1.546875 -0.796875q0.515625 -0.8125 0.53125 -2.515625l0 -2.296875zm7.3999634 7.65625l-2.671875 0l0 -13.265625l2.671875 0l0 13.265625zm11.531036 0l-2.6875 0l-3.90625 -8.703125l0 8.703125l-2.6875 0l0 -13.265625l2.6875 0l3.921875 8.703125l0 -8.703125l2.671875 0l0 13.265625zm14.488617 -11.03125l-3.28125 0l0 11.03125l-2.6875 0l0 -11.03125l-3.21875 0l0 -2.234375l9.1875 0l0 2.234375zm5.681839 3.71875l2.0 -5.953125l2.90625 0l-3.546875 8.453125l0 4.8125l-2.71875 0l0 -4.8125l-3.5625 -8.453125l2.921875 0l2.0 5.953125zm8.808151 2.640625l0 4.671875l-2.6875 0l0 -13.265625l4.515625 0q1.96875 0 3.140625 1.21875q1.171875 1.21875 1.171875 3.171875q0 1.953125 -1.15625 3.078125q-1.15625 1.125 -3.203125 1.125l-1.78125 0zm0 -2.21875l1.828125 0q0.765625 0 1.1875 -0.5q0.421875 -0.5 0.421875 -1.46875q0 -0.984375 -0.4375 -1.5625q-0.421875 -0.59375 -1.140625 -0.609375l-1.859375 0l0 4.140625zm14.784439 1.15625l-4.171875 0l0 3.515625l4.9375 0l0 2.21875l-7.625 0l0 -13.265625l7.59375 0l0 2.234375l-4.90625 0l0 3.140625l4.171875 0l0 2.15625zm7.9050446 2.25q0 -0.8125 -0.421875 -1.21875q-0.40625 -0.421875 -1.5 -0.859375q-2.0 -0.765625 -2.875 -1.78125q-0.875 -1.015625 -0.875 -2.390625q0 -1.6875 1.1875 -2.703125q1.1875 -1.015625 3.015625 -1.015625q1.234375 0 2.1875 0.515625q0.953125 0.515625 1.46875 1.453125q0.515625 0.9375 0.515625 2.140625l-2.671875 0q0 -0.9375 -0.40625 -1.421875q-0.390625 -0.484375 -1.125 -0.484375q-0.703125 0 -1.09375 0.421875q-0.390625 0.40625 -0.390625 1.109375q0 0.546875 0.4375 0.984375q0.4375 0.4375 1.546875 0.921875q1.9375 0.703125 2.8125 1.71875q0.875 1.015625 0.875 2.59375q0 1.734375 -1.109375 2.71875q-1.09375 0.96875 -2.984375 0.96875q-1.28125 0 -2.34375 -0.53125q-1.046875 -0.53125 -1.65625 -1.515625q-0.59375 -0.984375 -0.59375 -2.328125l2.6875 0q0 1.15625 0.4375 1.671875q0.453125 0.515625 1.46875 0.515625q1.40625 0 1.40625 -1.484375z" fill-rule="nonzero"/><path fill="#000000" fill-opacity="0.0" d="m17.370079 35.83202l267.37006 0l0 30.70866l-267.37006 0z" fill-rule="evenodd"/><path fill="#999999" d="m33.948204 52.246975l-4.484375 0l0 5.859375l-1.65625 0l0 -13.265625l6.890625 0l0 1.4375l-5.234375 0l0 4.546875l4.484375 0l0 1.421875zm10.72937 -7.40625l0 9.4375q-0.03125 1.875 -1.109375 2.953125q-1.0625 1.0625 -2.984375 1.0625q-1.96875 0 -3.015625 -1.046875q-1.03125 -1.046875 -1.046875 -2.96875l0 -9.4375l1.65625 0l0 9.359375q0 1.34375 0.5625 2.015625q0.578125 0.65625 1.84375 0.65625q1.265625 0 1.828125 -0.65625q0.578125 -0.671875 0.578125 -2.015625l0 -9.359375l1.6875 0zm4.2415466 11.828125l5.203125 0l0 1.4375l-6.875 0l0 -13.265625l1.671875 0l0 11.828125zm8.863541 0l5.203125 0l0 1.4375l-6.875 0l0 -13.265625l1.671875 0l0 11.828125zm20.08902 -4.03125q0 2.71875 -1.15625 4.1875q-1.15625 1.46875 -3.296875 1.46875q-2.046875 0 -3.234375 -1.421875q-1.1875 -1.4375 -1.234375 -4.046875l0 -2.484375q0 -2.671875 1.171875 -4.171875q1.171875 -1.515625 3.28125 -1.515625q2.09375 0 3.265625 1.453125q1.171875 1.4375 1.203125 4.125l0 2.40625zm-1.671875 -2.3125q0 -2.109375 -0.6875 -3.125q-0.6875 -1.03125 -2.109375 -1.03125q-1.375 0 -2.078125 1.046875q-0.703125 1.03125 -0.71875 3.046875l0 2.375q0 2.03125 0.703125 3.109375q0.703125 1.0625 2.109375 1.0625q1.40625 0 2.078125 -0.984375q0.671875 -0.984375 0.703125 -3.015625l0 -2.484375zm12.157806 -5.484375l0 9.4375q-0.03125 1.875 -1.109375 2.953125q-1.0625 1.0625 -2.984375 1.0625q-1.96875 0 -3.015625 -1.046875q-1.03125 -1.046875 -1.046875 -2.96875l0 -9.4375l1.65625 0l0 9.359375q0 1.34375 0.5625 2.015625q0.578125 0.65625 1.84375 0.65625q1.265625 0 1.828125 -0.65625q0.578125 -0.671875 0.578125 -2.015625l0 -9.359375l1.6875 0zm10.319672 1.4375l-3.5 0l0 11.828125l-1.65625 0l0 -11.828125l-3.484375 0l0 -1.4375l8.640625 0l0 1.4375zm8.304474 5.703125l-4.6875 0l0 4.6875l5.46875 0l0 1.4375l-7.125 0l0 -13.265625l7.03125 0l0 1.4375l-5.375 0l0 4.265625l4.6875 0l0 1.4375zm6.9206085 0.765625l-2.328125 0l0 5.359375l-1.671875 0l0 -13.265625l3.703125 0q1.953125 0 2.953125 1.015625q1.0 1.015625 1.0 2.96875q0 1.234375 -0.546875 2.15625q-0.53125 0.90625 -1.53125 1.375l2.578125 5.640625l0 0.109375l-1.796875 0l-2.359375 -5.359375zm-2.328125 -1.4375l2.015625 0q1.046875 0 1.671875 -0.671875q0.625 -0.671875 0.625 -1.8125q0 -2.546875 -2.3125 -2.546875l-2.0 0l0 5.03125zm17.064995 -6.46875l1.671875 0l0 9.390625q0 1.90625 -0.96875 2.984375q-0.96875 1.078125 -2.6093674 1.078125q-1.6875 0 -2.625 -1.015625q-0.9375 -1.03125 -0.9375 -2.828125l1.671875 0q0 1.140625 0.5 1.78125q0.5 0.625 1.390625 0.625q0.875 0 1.3906174 -0.6875q0.515625 -0.6875 0.515625 -1.9375l0 -9.390625zm13.080902 7.796875q0 2.71875 -1.15625 4.1875q-1.15625 1.46875 -3.296875 1.46875q-2.046875 0 -3.234375 -1.421875q-1.1875 -1.4375 -1.234375 -4.046875l0 -2.484375q0 -2.671875 1.171875 -4.171875q1.171875 -1.515625 3.28125 -1.515625q2.09375 0 3.265625 1.453125q1.171875 1.4375 1.203125 4.125l0 2.40625zm-1.671875 -2.3125q0 -2.109375 -0.6875 -3.125q-0.6875 -1.03125 -2.109375 -1.03125q-1.375 0 -2.078125 1.046875q-0.703125 1.03125 -0.71875 3.046875l0 2.375q0 2.03125 0.703125 3.109375q0.703125 1.0625 2.109375 1.0625q1.40625 0 2.078125 -0.984375q0.671875 -0.984375 0.703125 -3.015625l0 -2.484375zm5.9859314 7.78125l-1.671875 0l0 -13.265625l1.671875 0l0 13.265625zm11.5859375 0l-1.671875 0l-5.3125 -10.21875l0 10.21875l-1.671875 0l0 -13.265625l1.671875 0l5.328125 10.265625l0 -10.265625l1.65625 0l0 13.265625z" fill-rule="nonzero"/><g filter="url(#shadowFilter-gab60a237c4_0_174.1)"><use xlink:href="#gab60a237c4_0_174.1" transform="matrix(1.0 0.0 0.0 1.0 0.0 2.0)"/></g><defs><filter id="shadowFilter-gab60a237c4_0_174.1" filterUnits="userSpaceOnUse"><feGaussianBlur in="SourceAlpha" stdDeviation="2.0" result="blur"/><feComponentTransfer in="blur" color-interpolation-filters="sRGB"><feFuncR type="linear" slope="0" intercept="0.0"/><feFuncG type="linear" slope="0" intercept="0.0"/><feFuncB type="linear" slope="0" intercept="0.0"/><feFuncA type="linear" slope="0.5" intercept="0"/></feComponentTransfer></filter></defs><g id="gab60a237c4_0_174.1"><path fill="#999999" d="m30.162205 225.24332l127.55907 0l0 31.181091l-127.55907 0z" fill-rule="evenodd"/></g><g filter="url(#shadowFilter-gab60a237c4_0_174.2)"><use xlink:href="#gab60a237c4_0_174.2" transform="matrix(1.0 0.0 0.0 1.0 0.0 2.0)"/></g><defs><filter id="shadowFilter-gab60a237c4_0_174.2" filterUnits="userSpaceOnUse"><feGaussianBlur in="SourceAlpha" stdDeviation="2.0" result="blur"/><feComponentTransfer in="blur" color-interpolation-filters="sRGB"><feFuncR type="linear" slope="0" intercept="0.0"/><feFuncG type="linear" slope="0" intercept="0.0"/><feFuncB type="linear" slope="0" intercept="0.0"/><feFuncA type="linear" slope="0.5" intercept="0"/></feComponentTransfer></filter></defs><g id="gab60a237c4_0_174.2"><path fill="#009ee3" d="m29.510944 285.7399l127.55905 0l0 31.181122l-127.55905 0z" fill-rule="evenodd"/></g><g filter="url(#shadowFilter-gab60a237c4_0_174.3)"><use xlink:href="#gab60a237c4_0_174.3" transform="matrix(1.0 0.0 0.0 1.0 0.0 2.0)"/></g><defs><filter id="shadowFilter-gab60a237c4_0_174.3" filterUnits="userSpaceOnUse"><feGaussianBlur in="SourceAlpha" stdDeviation="2.0" result="blur"/><feComponentTransfer in="blur" color-interpolation-filters="sRGB"><feFuncR type="linear" slope="0" intercept="0.0"/><feFuncG type="linear" slope="0" intercept="0.0"/><feFuncB type="linear" slope="0" intercept="0.0"/><feFuncA type="linear" slope="0.5" intercept="0"/></feComponentTransfer></filter></defs><g id="gab60a237c4_0_174.3"><path fill="#004f71" d="m30.162205 346.23654l127.55907 0l0 31.181091l-127.55907 0z" fill-rule="evenodd"/></g><g filter="url(#shadowFilter-gab60a237c4_0_174.4)"><use xlink:href="#gab60a237c4_0_174.4" transform="matrix(1.0 0.0 0.0 1.0 0.0 2.0)"/></g><defs><filter id="shadowFilter-gab60a237c4_0_174.4" filterUnits="userSpaceOnUse"><feGaussianBlur in="SourceAlpha" stdDeviation="2.0" result="blur"/><feComponentTransfer in="blur" color-interpolation-filters="sRGB"><feFuncR type="linear" slope="0" intercept="0.0"/><feFuncG type="linear" slope="0" intercept="0.0"/><feFuncB type="linear" slope="0" intercept="0.0"/><feFuncA type="linear" slope="0.5" intercept="0"/></feComponentTransfer></filter></defs><g id="gab60a237c4_0_174.4"><path fill="#009ee3" d="m299.51352 225.24332l127.55908 0l0 31.181091l-127.55908 0z" fill-rule="evenodd"/></g><g filter="url(#shadowFilter-gab60a237c4_0_174.5)"><use xlink:href="#gab60a237c4_0_174.5" transform="matrix(1.0 0.0 0.0 1.0 0.0 2.0)"/></g><defs><filter id="shadowFilter-gab60a237c4_0_174.5" filterUnits="userSpaceOnUse"><feGaussianBlur in="SourceAlpha" stdDeviation="2.0" result="blur"/><feComponentTransfer in="blur" color-interpolation-filters="sRGB"><feFuncR type="linear" slope="0" intercept="0.0"/><feFuncG type="linear" slope="0" intercept="0.0"/><feFuncB type="linear" slope="0" intercept="0.0"/><feFuncA type="linear" slope="0.5" intercept="0"/></feComponentTransfer></filter></defs><g id="gab60a237c4_0_174.5"><path fill="#999999" d="m299.51352 285.7399l127.55908 0l0 31.181122l-127.55908 0z" fill-rule="evenodd"/></g><g filter="url(#shadowFilter-gab60a237c4_0_174.6)"><use xlink:href="#gab60a237c4_0_174.6" transform="matrix(1.0 0.0 0.0 1.0 0.0 2.0)"/></g><defs><filter id="shadowFilter-gab60a237c4_0_174.6" filterUnits="userSpaceOnUse"><feGaussianBlur in="SourceAlpha" stdDeviation="2.0" result="blur"/><feComponentTransfer in="blur" color-interpolation-filters="sRGB"><feFuncR type="linear" slope="0" intercept="0.0"/><feFuncG type="linear" slope="0" intercept="0.0"/><feFuncB type="linear" slope="0" intercept="0.0"/><feFuncA type="linear" slope="0.5" intercept="0"/></feComponentTransfer></filter></defs><g id="gab60a237c4_0_174.6"><path fill="#434343" d="m299.51352 346.23654l127.55908 0l0 31.181091l-127.55908 0z" fill-rule="evenodd"/></g><path fill="#434343" d="m513.57477 289.8472l55.78296 0l0 14.23053l-55.78296 0zm0 21.345795l55.78296 0l0 14.23053l-55.78296 0z" fill-rule="evenodd"/><g filter="url(#shadowFilter-gab60a237c4_0_174.7)"><use xlink:href="#gab60a237c4_0_174.7" transform="matrix(1.0 0.0 0.0 1.0 0.0 2.0)"/></g><defs><filter id="shadowFilter-gab60a237c4_0_174.7" filterUnits="userSpaceOnUse"><feGaussianBlur in="SourceAlpha" stdDeviation="2.0" result="blur"/><feComponentTransfer in="blur" color-interpolation-filters="sRGB"><feFuncR type="linear" slope="0" intercept="0.0"/><feFuncG type="linear" slope="0" intercept="0.0"/><feFuncB type="linear" slope="0" intercept="0.0"/><feFuncA type="linear" slope="0.5" intercept="0"/></feComponentTransfer></filter></defs><g id="gab60a237c4_0_174.7"><path fill="#999999" d="m637.2149 225.24332l127.55902 0l0 31.181091l-127.55902 0z" fill-rule="evenodd"/></g><g filter="url(#shadowFilter-gab60a237c4_0_174.8)"><use xlink:href="#gab60a237c4_0_174.8" transform="matrix(1.0 0.0 0.0 1.0 0.0 2.0)"/></g><defs><filter id="shadowFilter-gab60a237c4_0_174.8" filterUnits="userSpaceOnUse"><feGaussianBlur in="SourceAlpha" stdDeviation="2.0" result="blur"/><feComponentTransfer in="blur" color-interpolation-filters="sRGB"><feFuncR type="linear" slope="0" intercept="0.0"/><feFuncG type="linear" slope="0" intercept="0.0"/><feFuncB type="linear" slope="0" intercept="0.0"/><feFuncA type="linear" slope="0.5" intercept="0"/></feComponentTransfer></filter></defs><g id="gab60a237c4_0_174.8"><path fill="#999999" d="m793.78375 225.24332l127.55908 0l0 31.181091l-127.55908 0z" fill-rule="evenodd"/></g><g filter="url(#shadowFilter-gab60a237c4_0_174.9)"><use xlink:href="#gab60a237c4_0_174.9" transform="matrix(1.0 0.0 0.0 1.0 0.0 2.0)"/></g><defs><filter id="shadowFilter-gab60a237c4_0_174.9" filterUnits="userSpaceOnUse"><feGaussianBlur in="SourceAlpha" stdDeviation="2.0" result="blur"/><feComponentTransfer in="blur" color-interpolation-filters="sRGB"><feFuncR type="linear" slope="0" intercept="0.0"/><feFuncG type="linear" slope="0" intercept="0.0"/><feFuncB type="linear" slope="0" intercept="0.0"/><feFuncA type="linear" slope="0.5" intercept="0"/></feComponentTransfer></filter></defs><g id="gab60a237c4_0_174.9"><path fill="#009ee3" d="m637.2149 285.7399l127.55902 0l0 31.181122l-127.55902 0z" fill-rule="evenodd"/></g><g filter="url(#shadowFilter-gab60a237c4_0_174.10)"><use xlink:href="#gab60a237c4_0_174.10" transform="matrix(1.0 0.0 0.0 1.0 0.0 2.0)"/></g><defs><filter id="shadowFilter-gab60a237c4_0_174.10" filterUnits="userSpaceOnUse"><feGaussianBlur in="SourceAlpha" stdDeviation="2.0" result="blur"/><feComponentTransfer in="blur" color-interpolation-filters="sRGB"><feFuncR type="linear" slope="0" intercept="0.0"/><feFuncG type="linear" slope="0" intercept="0.0"/><feFuncB type="linear" slope="0" intercept="0.0"/><feFuncA type="linear" slope="0.5" intercept="0"/></feComponentTransfer></filter></defs><g id="gab60a237c4_0_174.10"><path fill="#009ee3" d="m793.78375 285.7399l127.55908 0l0 31.181122l-127.55908 0z" fill-rule="evenodd"/></g><path fill="#000000" fill-opacity="0.0" d="m168.81242 285.74014l118.96062 0l0 29.070892l-118.96062 0z" fill-rule="evenodd"/><path fill="#434343" d="m190.71304 296.14453l-5.046875 0l0 3.859375l4.78125 0l0 1.359375l-4.78125 0l0 5.296875l-1.65625 0l0 -11.90625l6.703125 0l0 1.390625zm10.960419 6.375q0 0.984375 -0.28125 1.78125q-0.28125 0.796875 -0.828125 1.359375q-0.53125 0.546875 -1.3125 0.859375q-0.78125 0.296875 -1.78125 0.296875q-1.109375 0 -1.890625 -0.28125q-0.78125 -0.296875 -1.265625 -0.828125q-0.484375 -0.53125 -0.703125 -1.28125q-0.21875 -0.75 -0.21875 -1.671875l0 -8.0l1.609375 0l0 7.875q0 0.703125 0.125 1.234375q0.140625 0.53125 0.4375 0.890625q0.3125 0.34375 0.78125 0.53125q0.484375 0.1875 1.171875 0.1875q1.296875 0 1.90625 -0.75q0.625 -0.75 0.625 -2.109375l0 -7.859375l1.625 0l0 7.765625zm9.944794 4.140625l-6.84375 0l0 -11.90625l1.640625 0l0 10.515625l5.203125 0l0 1.390625zm10.257294 0l-6.84375 0l0 -11.90625l1.640625 0l0 10.515625l5.203125 0l0 1.390625zm19.530212 -11.90625l0 8.265625q0 0.765625 -0.234375 1.453125q-0.21875 0.6875 -0.6875 1.203125q-0.453125 0.515625 -1.15625 0.8125q-0.703125 0.296875 -1.65625 0.296875q-0.34375 0 -0.71875 -0.046875q-0.375 -0.046875 -0.71875 -0.125q-0.328125 -0.09375 -0.640625 -0.21875q-0.296875 -0.125 -0.515625 -0.265625l0 -1.640625q0.5625 0.40625 1.25 0.65625q0.6875 0.234375 1.359375 0.234375q1.0 0 1.53125 -0.609375q0.546875 -0.609375 0.546875 -1.75l0 -6.859375l-4.53125 0l0 -1.40625l6.171875 0zm12.022919 5.875q0 1.609375 -0.375 2.78125q-0.375 1.15625 -1.015625 1.921875q-0.640625 0.75 -1.5 1.125q-0.859375 0.359375 -1.828125 0.359375q-1.140625 0 -2.0 -0.40625q-0.84375 -0.421875 -1.40625 -1.203125q-0.5625 -0.78125 -0.84375 -1.90625q-0.265625 -1.125 -0.265625 -2.53125q0 -1.59375 0.375 -2.75q0.375 -1.171875 1.015625 -1.921875q0.640625 -0.765625 1.5 -1.125q0.859375 -0.375 1.8125 -0.375q1.15625 0 2.0 0.421875q0.859375 0.40625 1.421875 1.1875q0.5625 0.78125 0.828125 1.90625q0.28125 1.109375 0.28125 2.515625zm-1.671875 0.125q0 -1.046875 -0.171875 -1.921875q-0.15625 -0.875 -0.515625 -1.5q-0.34375 -0.625 -0.90625 -0.96875q-0.5625 -0.359375 -1.359375 -0.359375q-0.765625 0 -1.3125 0.375q-0.546875 0.375 -0.90625 1.015625q-0.359375 0.625 -0.53125 1.484375q-0.171875 0.84375 -0.171875 1.796875q0 1.0625 0.15625 1.9375q0.171875 0.859375 0.515625 1.484375q0.359375 0.625 0.90625 0.96875q0.5625 0.34375 1.34375 0.34375q0.765625 0 1.3125 -0.359375q0.5625 -0.375 0.921875 -1.0q0.359375 -0.640625 0.53125 -1.484375q0.1875 -0.859375 0.1875 -1.8125zm6.4916687 -4.640625l-2.75 0l0 -1.359375l7.125 0l0 1.359375l-2.734375 0l0 9.15625l2.734375 0l0 1.390625l-7.125 0l0 -1.390625l2.75 0l0 -9.15625zm15.132294 10.546875l-2.125 0l-3.46875 -7.421875l-1.0 -2.390625l0 6.0l0 3.8125l-1.515625 0l0 -11.90625l2.09375 0l3.3125 7.03125l1.1875 2.71875l0 -6.375l0 -3.375l1.515625 0l0 11.90625z" fill-rule="nonzero"/><path fill="#000000" fill-opacity="0.0" d="m637.2149 406.73315l127.55902 0l0 31.181091l-127.55902 0z" fill-rule="evenodd"/><path stroke="#434343" stroke-width="1.3333333333333333" stroke-miterlimit="800.0" stroke-linecap="butt" d="m637.2149 406.73315l127.55902 0l0 31.181091l-127.55902 0z" fill-rule="evenodd"/><path fill="#434343" d="m689.6673 429.24368l-2.125 0l-3.46875 -7.421875l-1.0 -2.390625l0 6.0l0 3.8125l-1.515625 0l0 -11.90625l2.09375 0l3.3125 7.03125l1.1875 2.71875l0 -6.375l0 -3.375l1.515625 0l0 11.90625zm10.351074 -4.140625q0 0.984375 -0.28125 1.78125q-0.28125 0.796875 -0.828125 1.359375q-0.53125 0.546875 -1.3125 0.859375q-0.78125 0.296875 -1.78125 0.296875q-1.109375 0 -1.890625 -0.28125q-0.78125 -0.296875 -1.265625 -0.828125q-0.484375 -0.53125 -0.703125 -1.28125q-0.21875 -0.75 -0.21875 -1.671875l0 -8.0l1.609375 0l0 7.875q0 0.703125 0.125 1.234375q0.140625 0.53125 0.4375 0.890625q0.3125 0.34375 0.78125 0.53125q0.484375 0.1875 1.171875 0.1875q1.296875 0 1.90625 -0.75q0.625 -0.75 0.625 -2.109375l0 -7.859375l1.625 0l0 7.765625zm9.944763 4.140625l-6.84375 0l0 -11.90625l1.640625 0l0 10.515625l5.203125 0l0 1.390625zm10.257324 0l-6.84375 0l0 -11.90625l1.640625 0l0 10.515625l5.203125 0l0 1.390625z" fill-rule="nonzero"/><g filter="url(#shadowFilter-gab60a237c4_0_174.11)"><use xlink:href="#gab60a237c4_0_174.11" transform="matrix(1.0 0.0 0.0 1.0 0.0 2.0)"/></g><defs><filter id="shadowFilter-gab60a237c4_0_174.11" filterUnits="userSpaceOnUse"><feGaussianBlur in="SourceAlpha" stdDeviation="2.0" result="blur"/><feComponentTransfer in="blur" color-interpolation-filters="sRGB"><feFuncR type="linear" slope="0" intercept="0.0"/><feFuncG type="linear" slope="0" intercept="0.0"/><feFuncB type="linear" slope="0" intercept="0.0"/><feFuncA type="linear" slope="0.5" intercept="0"/></feComponentTransfer></filter></defs><g id="gab60a237c4_0_174.11"><path fill="#434343" d="m793.78375 406.73315l127.55908 0l0 31.181091l-127.55908 0z" fill-rule="evenodd"/></g><path fill="#000000" fill-opacity="0.0" d="m36.414635 180.3517l124.22047 0l0 29.070877l-124.22047 0z" fill-rule="evenodd"/><path fill="#434343" d="m52.383385 201.2717l-6.84375 0l0 -11.90625l1.640625 0l0 10.515625l5.203125 0l0 1.390625zm9.882294 0l-6.765625 0l0 -11.90625l6.765625 0l0 1.359375l-5.140625 0l0 3.703125l4.953125 0l0 1.359375l-4.953125 0l0 4.09375l5.140625 0l0 1.390625zm10.241669 -10.515625l-5.046875 0l0 3.859375l4.78125 0l0 1.359375l-4.78125 0l0 5.296875l-1.65625 0l0 -11.90625l6.703125 0l0 1.390625zm11.147919 0l-3.515625 0l0 10.515625l-1.640625 0l0 -10.515625l-3.53125 0l0 -1.390625l8.6875 0l0 1.390625zm20.514587 0l-3.515625 0l0 10.515625l-1.640625 0l0 -10.515625l-3.53125 0l0 -1.390625l8.6875 0l0 1.390625zm10.960419 10.515625l-1.765625 0l-0.84375 -2.59375l-4.953125 0l-0.828125 2.59375l-1.6875 0l3.953125 -11.90625l2.21875 0l3.90625 11.90625zm-3.0625 -4.046875l-2.015625 -6.359375l-2.015625 6.359375l4.03125 0zm12.397919 0.484375q0 0.859375 -0.328125 1.515625q-0.328125 0.65625 -0.953125 1.125q-0.609375 0.453125 -1.484375 0.6875q-0.859375 0.234375 -1.921875 0.234375l-3.125 0l0 -11.90625l3.40625 0q3.984375 0 3.984375 2.890625q0 0.96875 -0.46875 1.671875q-0.453125 0.6875 -1.484375 1.015625q0.46875 0.09375 0.90625 0.3125q0.4375 0.21875 0.765625 0.578125q0.328125 0.34375 0.515625 0.8125q0.1875 0.46875 0.1875 1.0625zm-2.109375 -5.234375q0 -0.359375 -0.109375 -0.671875q-0.109375 -0.328125 -0.390625 -0.5625q-0.265625 -0.234375 -0.734375 -0.375q-0.453125 -0.140625 -1.171875 -0.140625l-1.671875 0l0 3.734375l1.625 0q0.546875 0 1.0 -0.109375q0.453125 -0.125 0.765625 -0.375q0.328125 -0.25 0.5 -0.609375q0.1875 -0.375 0.1875 -0.890625zm0.390625 5.296875q0 -0.46875 -0.1875 -0.828125q-0.1875 -0.359375 -0.5625 -0.609375q-0.359375 -0.25 -0.890625 -0.390625q-0.515625 -0.140625 -1.171875 -0.140625l-1.65625 0l0 4.109375l1.703125 0q1.40625 0 2.078125 -0.515625q0.6875 -0.53125 0.6875 -1.625zm11.694786 3.5l-6.8437424 0l0 -11.90625l1.6406174 0l0 10.515625l5.203125 0l0 1.390625zm9.882294 0l-6.765625 0l0 -11.90625l6.765625 0l0 1.359375l-5.140625 0l0 3.703125l4.953125 0l0 1.359375l-4.953125 0l0 4.09375l5.140625 0l0 1.390625z" fill-rule="nonzero"/><path fill="#000000" fill-opacity="0.0" d="m299.51453 180.3517l137.95276 0l0 29.070877l-137.95276 0z" fill-rule="evenodd"/><path fill="#434343" d="m316.09265 201.2717l-1.828125 0l-1.78125 -3.8125q-0.203125 -0.4375 -0.421875 -0.71875q-0.203125 -0.28125 -0.453125 -0.453125q-0.234375 -0.171875 -0.515625 -0.234375q-0.28125 -0.078125 -0.640625 -0.078125l-0.765625 0l0 5.296875l-1.625 0l0 -11.90625l3.1875 0q1.046875 0 1.78125 0.234375q0.75 0.21875 1.21875 0.640625q0.484375 0.40625 0.703125 0.984375q0.234375 0.578125 0.234375 1.28125q0 0.546875 -0.171875 1.046875q-0.15625 0.5 -0.484375 0.90625q-0.3125 0.40625 -0.796875 0.703125q-0.484375 0.28125 -1.09375 0.4375q0.5 0.171875 0.84375 0.609375q0.359375 0.421875 0.71875 1.140625l1.890625 3.921875zm-2.59375 -8.640625q0 -0.953125 -0.609375 -1.421875q-0.59375 -0.484375 -1.671875 -0.484375l-1.53125 0l0 3.9375l1.3125 0q0.578125 0 1.03125 -0.125q0.453125 -0.140625 0.78125 -0.390625q0.328125 -0.265625 0.5 -0.640625q0.1875 -0.375 0.1875 -0.875zm7.5854187 -1.90625l-2.75 0l0 -1.359375l7.125 0l0 1.359375l-2.734375 0l0 9.15625l2.734375 0l0 1.390625l-7.125 0l0 -1.390625l2.75 0l0 -9.15625zm15.116669 0.6875q-0.671875 -0.359375 -1.375 -0.546875q-0.703125 -0.203125 -1.53125 -0.203125q-0.953125 0 -1.6875 0.34375q-0.734375 0.328125 -1.25 0.953125q-0.5 0.609375 -0.765625 1.46875q-0.265625 0.859375 -0.265625 1.90625q0 1.09375 0.21875 1.96875q0.21875 0.859375 0.671875 1.46875q0.46875 0.59375 1.1875 0.921875q0.734375 0.3125 1.75 0.3125q0.171875 0 0.375 -0.015625q0.203125 -0.015625 0.390625 -0.046875q0.203125 -0.03125 0.390625 -0.078125q0.1875 -0.046875 0.328125 -0.109375l0 -3.78125l-2.421875 0l0 -1.34375l4.03125 0l0 6.078125q-0.375 0.1875 -0.796875 0.328125q-0.40625 0.125 -0.84375 0.21875q-0.421875 0.09375 -0.859375 0.125q-0.421875 0.046875 -0.828125 0.046875q-1.21875 0 -2.203125 -0.375q-0.96875 -0.375 -1.65625 -1.125q-0.6875 -0.765625 -1.0625 -1.875q-0.375 -1.125 -0.375 -2.609375q0 -1.453125 0.40625 -2.609375q0.421875 -1.171875 1.15625 -1.96875q0.75 -0.8125 1.78125 -1.234375q1.046875 -0.421875 2.3125 -0.421875q0.796875 0 1.515625 0.140625q0.734375 0.140625 1.40625 0.4375l0 1.625zm10.335419 9.859375l-1.609375 0l0 -5.46875l-5.015625 0l0 5.46875l-1.609375 0l0 -11.90625l1.609375 0l0 5.03125l5.015625 0l0 -5.03125l1.609375 0l0 11.90625zm10.476044 -10.515625l-3.515625 0l0 10.515625l-1.640625 0l0 -10.515625l-3.53125 0l0 -1.390625l8.6875 0l0 1.390625zm20.514587 0l-3.515625 0l0 10.515625l-1.640625 0l0 -10.515625l-3.53125 0l0 -1.390625l8.6875 0l0 1.390625zm10.960419 10.515625l-1.765625 0l-0.84375 -2.59375l-4.953125 0l-0.828125 2.59375l-1.6875 0l3.953125 -11.90625l2.21875 0l3.90625 11.90625zm-3.0625 -4.046875l-2.015625 -6.359375l-2.015625 6.359375l4.03125 0zm12.397919 0.484375q0 0.859375 -0.328125 1.515625q-0.328125 0.65625 -0.953125 1.125q-0.609375 0.453125 -1.484375 0.6875q-0.859375 0.234375 -1.921875 0.234375l-3.125 0l0 -11.90625l3.40625 0q3.984375 0 3.984375 2.890625q0 0.96875 -0.46875 1.671875q-0.453125 0.6875 -1.484375 1.015625q0.46875 0.09375 0.90625 0.3125q0.4375 0.21875 0.765625 0.578125q0.328125 0.34375 0.515625 0.8125q0.1875 0.46875 0.1875 1.0625zm-2.109375 -5.234375q0 -0.359375 -0.109375 -0.671875q-0.109375 -0.328125 -0.390625 -0.5625q-0.265625 -0.234375 -0.734375 -0.375q-0.453125 -0.140625 -1.171875 -0.140625l-1.671875 0l0 3.734375l1.625 0q0.546875 0 1.0 -0.109375q0.453125 -0.125 0.765625 -0.375q0.328125 -0.25 0.5 -0.609375q0.1875 -0.375 0.1875 -0.890625zm0.390625 5.296875q0 -0.46875 -0.1875 -0.828125q-0.1875 -0.359375 -0.5625 -0.609375q-0.359375 -0.25 -0.890625 -0.390625q-0.515625 -0.140625 -1.171875 -0.140625l-1.65625 0l0 4.109375l1.703125 0q1.40625 0 2.078125 -0.515625q0.6875 -0.53125 0.6875 -1.625zm11.694794 3.5l-6.84375 0l0 -11.90625l1.640625 0l0 10.515625l5.203125 0l0 1.390625zm9.882294 0l-6.765625 0l0 -11.90625l6.765625 0l0 1.359375l-5.140625 0l0 3.703125l4.953125 0l0 1.359375l-4.953125 0l0 4.09375l5.140625 0l0 1.390625z" fill-rule="nonzero"/><g filter="url(#shadowFilter-gab60a237c4_0_174.12)"><use xlink:href="#gab60a237c4_0_174.12" transform="matrix(1.0 0.0 0.0 1.0 0.0 2.0)"/></g><defs><filter id="shadowFilter-gab60a237c4_0_174.12" filterUnits="userSpaceOnUse"><feGaussianBlur in="SourceAlpha" stdDeviation="2.0" result="blur"/><feComponentTransfer in="blur" color-interpolation-filters="sRGB"><feFuncR type="linear" slope="0" intercept="0.0"/><feFuncG type="linear" slope="0" intercept="0.0"/><feFuncB type="linear" slope="0" intercept="0.0"/><feFuncA type="linear" slope="0.5" intercept="0"/></feComponentTransfer></filter></defs><g id="gab60a237c4_0_174.12"><path fill="#004f71" d="m637.2149 346.23654l127.55902 0l0 31.181091l-127.55902 0z" fill-rule="evenodd"/></g><path fill="#000000" fill-opacity="0.0" d="m794.4328 346.23654l127.55908 0l0 31.181091l-127.55908 0z" fill-rule="evenodd"/><path stroke="#434343" stroke-width="1.3333333333333333" stroke-miterlimit="800.0" stroke-linecap="butt" d="m794.4328 346.23654l127.55908 0l0 31.181091l-127.55908 0z" fill-rule="evenodd"/><path fill="#434343" d="m846.88525 368.74707l-2.125 0l-3.46875 -7.421875l-1.0 -2.390625l0 6.0l0 3.8125l-1.515625 0l0 -11.90625l2.09375 0l3.3125 7.03125l1.1875 2.71875l0 -6.375l0 -3.375l1.515625 0l0 11.90625zm10.351074 -4.140625q0 0.984375 -0.28125 1.78125q-0.28125 0.796875 -0.828125 1.359375q-0.53125 0.546875 -1.3125 0.859375q-0.78125 0.296875 -1.78125 0.296875q-1.109375 0 -1.890625 -0.28125q-0.78125 -0.296875 -1.265625 -0.828125q-0.484375 -0.53125 -0.703125 -1.28125q-0.21875 -0.75 -0.21875 -1.671875l0 -8.0l1.609375 0l0 7.875q0 0.703125 0.125 1.234375q0.140625 0.53125 0.4375 0.890625q0.3125 0.34375 0.78125 0.53125q0.484375 0.1875 1.171875 0.1875q1.296875 0 1.90625 -0.75q0.625 -0.75 0.625 -2.109375l0 -7.859375l1.625 0l0 7.765625zm9.944763 4.140625l-6.84375 0l0 -11.90625l1.640625 0l0 10.515625l5.203125 0l0 1.390625zm10.257324 0l-6.84375 0l0 -11.90625l1.640625 0l0 10.515625l5.203125 0l0 1.390625z" fill-rule="nonzero"/><path fill="#000000" fill-opacity="0.0" d="m223.28725 102.57354l513.41736 0l0 29.07087l-513.41736 0z" fill-rule="evenodd"/><path fill="#434343" d="m303.42227 111.18104l-4.546875 0l0 12.3125l-1.109375 0l0 -12.3125l-4.546875 0l0 -0.953125l10.203125 0l0 0.953125zm2.9690552 4.125q0.546875 -0.890625 1.375 -1.359375q0.84375 -0.484375 1.84375 -0.484375q1.578125 0 2.34375 0.890625q0.78125 0.890625 0.796875 2.671875l0 6.46875l-1.09375 0l0 -6.484375q0 -1.3125 -0.5625 -1.953125q-0.546875 -0.65625 -1.75 -0.65625q-1.015625 0 -1.796875 0.640625q-0.78125 0.625 -1.15625 1.703125l0 6.75l-1.078125 0l0 -14.0l1.078125 0l0 5.8125zm12.97345 8.375q-1.25 0 -2.265625 -0.625q-1.015625 -0.625 -1.59375 -1.71875q-0.5625 -1.109375 -0.5625 -2.484375l0 -0.390625q0 -1.421875 0.546875 -2.5625q0.5625 -1.140625 1.546875 -1.78125q0.984375 -0.65625 2.125 -0.65625q1.796875 0 2.84375 1.21875q1.0625 1.21875 1.0625 3.34375l0 0.609375l-7.03125 0l0 0.21875q0 1.671875 0.953125 2.796875q0.96875 1.109375 2.421875 1.109375q0.875 0 1.546875 -0.3125q0.671875 -0.328125 1.21875 -1.03125l0.6875 0.515625q-1.203125 1.75 -3.5 1.75zm-0.203125 -9.296875q-1.21875 0 -2.0625 0.90625q-0.84375 0.890625 -1.03125 2.421875l5.921875 0l0 -0.125q-0.046875 -1.421875 -0.8125 -2.3125q-0.765625 -0.890625 -2.015625 -0.890625zm15.111877 0.1875q-0.34375 -0.0625 -0.734375 -0.0625q-1.015625 0 -1.71875 0.5625q-0.703125 0.5625 -1.015625 1.65625l0 6.765625l-1.078125 0l0 -9.859375l1.0625 0l0.015625 1.5625q0.875 -1.734375 2.78125 -1.734375q0.453125 0 0.71875 0.109375l-0.03125 1.0zm0.9378967 3.84375q0 -1.421875 0.546875 -2.546875q0.5625 -1.140625 1.5625 -1.765625q1.015625 -0.640625 2.28125 -0.640625q1.96875 0 3.1875 1.375q1.234375 1.375 1.234375 3.65625l0 0.234375q0 1.421875 -0.5625 2.5625q-0.546875 1.140625 -1.546875 1.765625q-1.0 0.625 -2.28125 0.625q-1.96875 0 -3.203125 -1.375q-1.21875 -1.390625 -1.21875 -3.671875l0 -0.21875zm1.09375 0.3125q0 1.765625 0.921875 2.90625q0.921875 1.125 2.40625 1.125q1.46875 0 2.375 -1.125q0.921875 -1.140625 0.921875 -3.0l0 -0.21875q0 -1.125 -0.421875 -2.0625q-0.40625 -0.9375 -1.171875 -1.453125q-0.75 -0.515625 -1.734375 -0.515625q-1.453125 0 -2.375 1.140625q-0.921875 1.140625 -0.921875 3.0l0 0.203125zm12.323578 2.5l0.15625 0.84375l0.21875 -0.890625l2.375 -7.546875l0.921875 0l2.34375 7.484375l0.265625 1.03125l0.203125 -0.953125l2.015625 -7.5625l1.140625 0l-2.875 9.859375l-0.921875 0l-2.53125 -7.8125l-0.125 -0.546875l-0.125 0.546875l-2.484375 7.8125l-0.921875 0l-2.859375 -9.859375l1.109375 0l2.09375 7.59375zm17.611938 -0.234375q0 -0.8125 -0.65625 -1.296875q-0.65625 -0.5 -1.96875 -0.78125q-1.3125 -0.28125 -2.03125 -0.640625q-0.71875 -0.359375 -1.078125 -0.875q-0.34375 -0.515625 -0.34375 -1.25q0 -1.171875 0.96875 -1.921875q0.984375 -0.765625 2.5 -0.765625q1.65625 0 2.640625 0.8125q1.0 0.8125 1.0 2.125l-1.09375 0q0 -0.875 -0.71875 -1.4375q-0.71875 -0.578125 -1.828125 -0.578125q-1.078125 0 -1.734375 0.484375q-0.640625 0.46875 -0.640625 1.234375q0 0.734375 0.53125 1.140625q0.546875 0.40625 1.984375 0.75q1.4375 0.328125 2.140625 0.71875q0.71875 0.375 1.0625 0.921875q0.359375 0.53125 0.359375 1.296875q0 1.25 -1.015625 2.0q-1.0 0.75 -2.625 0.75q-1.71875 0 -2.796875 -0.828125q-1.0625 -0.84375 -1.0625 -2.125l1.09375 0q0.0625 0.96875 0.796875 1.5q0.75 0.53125 1.96875 0.53125q1.140625 0 1.84375 -0.5q0.703125 -0.5 0.703125 -1.265625zm8.858093 2.5l0 -8.96875l-1.625 0l0 -0.890625l1.625 0l0 -1.1875q0 -1.515625 0.765625 -2.328125q0.78125 -0.8125 2.15625 -0.8125q0.609375 0 1.15625 0.15625l-0.09375 0.90625q-0.453125 -0.109375 -0.984375 -0.109375q-0.90625 0 -1.40625 0.5625q-0.5 0.5625 -0.5 1.59375l0 1.21875l2.34375 0l0 0.890625l-2.34375 0l0 8.96875l-1.09375 0zm9.941864 -8.921875q-0.34375 -0.0625 -0.734375 -0.0625q-1.015625 0 -1.71875 0.5625q-0.703125 0.5625 -1.015625 1.65625l0 6.765625l-1.078125 0l0 -9.859375l1.0625 0l0.015625 1.5625q0.875 -1.734375 2.78125 -1.734375q0.453125 0 0.71875 0.109375l-0.03125 1.0zm0.9378967 3.84375q0 -1.421875 0.546875 -2.546875q0.5625 -1.140625 1.5625 -1.765625q1.015625 -0.640625 2.28125 -0.640625q1.96875 0 3.1875 1.375q1.234375 1.375 1.234375 3.65625l0 0.234375q0 1.421875 -0.5625 2.5625q-0.546875 1.140625 -1.546875 1.765625q-1.0 0.625 -2.28125 0.625q-1.96875 0 -3.203125 -1.375q-1.21875 -1.390625 -1.21875 -3.671875l0 -0.21875zm1.09375 0.3125q0 1.765625 0.921875 2.90625q0.921875 1.125 2.40625 1.125q1.46875 0 2.375 -1.125q0.921875 -1.140625 0.921875 -3.0l0 -0.21875q0 -1.125 -0.421875 -2.0625q-0.40625 -0.9375 -1.171875 -1.453125q-0.75 -0.515625 -1.734375 -0.515625q-1.453125 0 -2.375 1.140625q-0.921875 1.140625 -0.921875 3.0l0 0.203125zm10.948578 -5.09375l0.046875 1.609375q0.546875 -0.890625 1.359375 -1.328125q0.828125 -0.453125 1.828125 -0.453125q2.328125 0 2.953125 1.90625q0.53125 -0.921875 1.40625 -1.40625q0.890625 -0.5 1.953125 -0.5q3.171875 0 3.234375 3.453125l0 6.578125l-1.09375 0l0 -6.5q0 -1.3125 -0.5625 -1.953125q-0.5625 -0.640625 -1.828125 -0.640625q-1.171875 0.015625 -1.984375 0.765625q-0.8125 0.734375 -0.90625 1.8125l0 6.515625l-1.09375 0l0 -6.578125q0 -1.265625 -0.59375 -1.890625q-0.578125 -0.625 -1.8125 -0.625q-1.015625 0 -1.765625 0.59375q-0.734375 0.578125 -1.09375 1.734375l0 6.765625l-1.09375 0l0 -9.859375l1.046875 0zm28.023407 5.03125q0 2.3125 -1.03125 3.671875q-1.015625 1.34375 -2.734375 1.34375q-2.0625 0 -3.109375 -1.53125l-0.046875 1.34375l-1.03125 0l0 -14.0l1.09375 0l0 5.578125q1.03125 -1.609375 3.078125 -1.609375q1.75 0 2.765625 1.328125q1.015625 1.328125 1.015625 3.71875l0 0.15625zm-1.09375 -0.1875q0 -1.953125 -0.765625 -3.015625q-0.75 -1.0625 -2.125 -1.0625q-1.046875 0 -1.78125 0.515625q-0.71875 0.515625 -1.09375 1.515625l0 4.4375q0.8125 1.859375 2.890625 1.859375q1.34375 0 2.109375 -1.0625q0.765625 -1.0625 0.765625 -3.1875zm2.886139 -0.0625q0 -1.421875 0.546875 -2.546875q0.5625 -1.140625 1.5625 -1.765625q1.015625 -0.640625 2.28125 -0.640625q1.96875 0 3.1875 1.375q1.234375 1.375 1.234375 3.65625l0 0.234375q0 1.421875 -0.5625 2.5625q-0.546875 1.140625 -1.546875 1.765625q-1.0 0.625 -2.28125 0.625q-1.96875 0 -3.203125 -1.375q-1.21875 -1.390625 -1.21875 -3.671875l0 -0.21875zm1.09375 0.3125q0 1.765625 0.921875 2.90625q0.921875 1.125 2.40625 1.125q1.46875 0 2.375 -1.125q0.921875 -1.140625 0.921875 -3.0l0 -0.21875q0 -1.125 -0.421875 -2.0625q-0.40625 -0.9375 -1.171875 -1.453125q-0.75 -0.515625 -1.734375 -0.515625q-1.453125 0 -2.375 1.140625q-0.921875 1.140625 -0.921875 3.0l0 0.203125zm11.651733 -7.609375l0 2.515625l2.046875 0l0 0.890625l-2.046875 0l0 6.578125q0 0.8125 0.296875 1.21875q0.296875 0.390625 1.0 0.390625q0.265625 0 0.875 -0.078125l0.046875 0.890625q-0.421875 0.15625 -1.171875 0.15625q-1.109375 0 -1.625 -0.65625q-0.515625 -0.65625 -0.515625 -1.921875l0 -6.578125l-1.8125 0l0 -0.890625l1.8125 0l0 -2.515625l1.09375 0zm5.384674 4.1875q0.546875 -0.890625 1.375 -1.359375q0.84375 -0.484375 1.84375 -0.484375q1.578125 0 2.34375 0.890625q0.78125 0.890625 0.796875 2.671875l0 6.46875l-1.09375 0l0 -6.484375q0 -1.3125 -0.5625 -1.953125q-0.546875 -0.65625 -1.75 -0.65625q-1.015625 0 -1.796875 0.640625q-0.78125 0.625 -1.15625 1.703125l0 6.75l-1.078125 0l0 -14.0l1.078125 0l0 5.8125zm15.384979 -4.1875l0 2.515625l2.046875 0l0 0.890625l-2.046875 0l0 6.578125q0 0.8125 0.296875 1.21875q0.296875 0.390625 1.0 0.390625q0.265625 0 0.875 -0.078125l0.046875 0.890625q-0.421875 0.15625 -1.171875 0.15625q-1.109375 0 -1.625 -0.65625q-0.515625 -0.65625 -0.515625 -1.921875l0 -6.578125l-1.8125 0l0 -0.890625l1.8125 0l0 -2.515625l1.09375 0zm10.525299 12.375q-0.15625 -0.46875 -0.203125 -1.375q-0.578125 0.75 -1.46875 1.15625q-0.890625 0.40625 -1.875 0.40625q-1.421875 0 -2.3125 -0.796875q-0.875 -0.796875 -0.875 -2.0q0 -1.4375 1.203125 -2.28125q1.203125 -0.84375 3.34375 -0.84375l1.96875 0l0 -1.109375q0 -1.0625 -0.65625 -1.671875q-0.640625 -0.609375 -1.890625 -0.609375q-1.140625 0 -1.890625 0.59375q-0.75 0.578125 -0.75 1.40625l-1.09375 -0.015625q0 -1.171875 1.09375 -2.03125q1.09375 -0.859375 2.6875 -0.859375q1.65625 0 2.609375 0.828125q0.953125 0.8125 0.984375 2.28125l0 4.671875q0 1.4375 0.296875 2.140625l0 0.109375l-1.171875 0zm-3.421875 -0.78125q1.09375 0 1.953125 -0.53125q0.859375 -0.53125 1.25 -1.40625l0 -2.171875l-1.953125 0q-1.625 0.015625 -2.546875 0.59375q-0.921875 0.578125 -0.921875 1.59375q0 0.828125 0.609375 1.375q0.625 0.546875 1.609375 0.546875zm15.133728 -4.046875q0 2.3125 -1.03125 3.671875q-1.015625 1.34375 -2.734375 1.34375q-2.0625 0 -3.109375 -1.53125l-0.046875 1.34375l-1.03125 0l0 -14.0l1.09375 0l0 5.578125q1.03125 -1.609375 3.078125 -1.609375q1.75 0 2.765625 1.328125q1.015625 1.328125 1.015625 3.71875l0 0.15625zm-1.09375 -0.1875q0 -1.953125 -0.765625 -3.015625q-0.75 -1.0625 -2.125 -1.0625q-1.046875 0 -1.78125 0.515625q-0.71875 0.515625 -1.09375 1.515625l0 4.4375q0.8125 1.859375 2.890625 1.859375q1.34375 0 2.109375 -1.0625q0.765625 -1.0625 0.765625 -3.1875zm4.7142944 5.015625l-1.09375 0l0 -14.0l1.09375 0l0 14.0zm6.7750244 0.1875q-1.25 0 -2.265625 -0.625q-1.015625 -0.625 -1.59375 -1.71875q-0.5625 -1.109375 -0.5625 -2.484375l0 -0.390625q0 -1.421875 0.546875 -2.5625q0.5625 -1.140625 1.546875 -1.78125q0.984375 -0.65625 2.125 -0.65625q1.796875 0 2.84375 1.21875q1.0625 1.21875 1.0625 3.34375l0 0.609375l-7.03125 0l0 0.21875q0 1.671875 0.953125 2.796875q0.96875 1.109375 2.421875 1.109375q0.875 0 1.546875 -0.3125q0.671875 -0.328125 1.21875 -1.03125l0.6875 0.515625q-1.203125 1.75 -3.5 1.75zm-0.203125 -9.296875q-1.21875 0 -2.0625 0.90625q-0.84375 0.890625 -1.03125 2.421875l5.921875 0l0 -0.125q-0.046875 -1.421875 -0.8125 -2.3125q-0.765625 -0.890625 -2.015625 -0.890625zm11.934692 6.609375q0 -0.8125 -0.65625 -1.296875q-0.65625 -0.5 -1.96875 -0.78125q-1.3125 -0.28125 -2.03125 -0.640625q-0.71875 -0.359375 -1.078125 -0.875q-0.34375 -0.515625 -0.34375 -1.25q0 -1.171875 0.96875 -1.921875q0.984375 -0.765625 2.5 -0.765625q1.65625 0 2.640625 0.8125q1.0 0.8125 1.0 2.125l-1.09375 0q0 -0.875 -0.71875 -1.4375q-0.71875 -0.578125 -1.828125 -0.578125q-1.078125 0 -1.734375 0.484375q-0.640625 0.46875 -0.640625 1.234375q0 0.734375 0.53125 1.140625q0.546875 0.40625 1.984375 0.75q1.4375 0.328125 2.140625 0.71875q0.71875 0.375 1.0625 0.921875q0.359375 0.53125 0.359375 1.296875q0 1.25 -1.015625 2.0q-1.0 0.75 -2.625 0.75q-1.71875 0 -2.796875 -0.828125q-1.0625 -0.84375 -1.0625 -2.125l1.09375 0q0.0625 0.96875 0.796875 1.5q0.75 0.53125 1.96875 0.53125q1.140625 0 1.84375 -0.5q0.703125 -0.5 0.703125 -1.265625zm14.295563 2.5q-0.15625 -0.46875 -0.203125 -1.375q-0.578125 0.75 -1.46875 1.15625q-0.890625 0.40625 -1.875 0.40625q-1.421875 0 -2.3125 -0.796875q-0.875 -0.796875 -0.875 -2.0q0 -1.4375 1.203125 -2.28125q1.203125 -0.84375 3.34375 -0.84375l1.96875 0l0 -1.109375q0 -1.0625 -0.65625 -1.671875q-0.640625 -0.609375 -1.890625 -0.609375q-1.140625 0 -1.890625 0.59375q-0.75 0.578125 -0.75 1.40625l-1.09375 -0.015625q0 -1.171875 1.09375 -2.03125q1.09375 -0.859375 2.6875 -0.859375q1.65625 0 2.609375 0.828125q0.953125 0.8125 0.984375 2.28125l0 4.671875q0 1.4375 0.296875 2.140625l0 0.109375l-1.171875 0zm-3.421875 -0.78125q1.09375 0 1.953125 -0.53125q0.859375 -0.53125 1.25 -1.40625l0 -2.171875l-1.953125 0q-1.625 0.015625 -2.546875 0.59375q-0.921875 0.578125 -0.921875 1.59375q0 0.828125 0.609375 1.375q0.625 0.546875 1.609375 0.546875zm11.743103 -8.140625q-0.34375 -0.0625 -0.734375 -0.0625q-1.015625 0 -1.71875 0.5625q-0.703125 0.5625 -1.015625 1.65625l0 6.765625l-1.078125 0l0 -9.859375l1.0625 0l0.015625 1.5625q0.875 -1.734375 2.78125 -1.734375q0.453125 0 0.71875 0.109375l-0.03125 1.0zm5.3688965 9.109375q-1.25 0 -2.265625 -0.625q-1.015625 -0.625 -1.59375 -1.71875q-0.5625 -1.109375 -0.5625 -2.484375l0 -0.390625q0 -1.421875 0.546875 -2.5625q0.5625 -1.140625 1.546875 -1.78125q0.984375 -0.65625 2.125 -0.65625q1.796875 0 2.84375 1.21875q1.0625 1.21875 1.0625 3.34375l0 0.609375l-7.03125 0l0 0.21875q0 1.671875 0.953125 2.796875q0.96875 1.109375 2.421875 1.109375q0.875 0 1.546875 -0.3125q0.671875 -0.328125 1.21875 -1.03125l0.6875 0.515625q-1.203125 1.75 -3.5 1.75zm-0.203125 -9.296875q-1.21875 0 -2.0625 0.90625q-0.84375 0.890625 -1.03125 2.421875l5.921875 0l0 -0.125q-0.046875 -1.421875 -0.8125 -2.3125q-0.765625 -0.890625 -2.015625 -0.890625zm11.783752 9.109375l-1.09375 0l0 -9.859375l1.09375 0l0 9.859375zm-1.28125 -12.703125q0 -0.3125 0.203125 -0.53125q0.203125 -0.21875 0.546875 -0.21875q0.34375 0 0.546875 0.21875q0.203125 0.21875 0.203125 0.53125q0 0.3125 -0.203125 0.515625q-0.203125 0.203125 -0.546875 0.203125q-0.34375 0 -0.546875 -0.203125q-0.203125 -0.203125 -0.203125 -0.515625zm5.2750244 2.84375l0.046875 1.6875q0.546875 -0.90625 1.375 -1.375q0.828125 -0.484375 1.84375 -0.484375q1.578125 0 2.34375 0.890625q0.78125 0.890625 0.796875 2.671875l0 6.46875l-1.09375 0l0 -6.484375q0 -1.3125 -0.5625 -1.953125q-0.546875 -0.65625 -1.75 -0.65625q-1.015625 0 -1.796875 0.640625q-0.78125 0.625 -1.15625 1.703125l0 6.75l-1.078125 0l0 -9.859375l1.03125 0zm15.440979 -2.515625l0 2.515625l2.046875 0l0 0.890625l-2.046875 0l0 6.578125q0 0.8125 0.296875 1.21875q0.296875 0.390625 1.0 0.390625q0.265625 0 0.875 -0.078125l0.046875 0.890625q-0.421875 0.15625 -1.171875 0.15625q-1.109375 0 -1.625 -0.65625q-0.515625 -0.65625 -0.515625 -1.921875l0 -6.578125l-1.8125 0l0 -0.890625l1.8125 0l0 -2.515625l1.09375 0zm5.3846436 4.1875q0.546875 -0.890625 1.375 -1.359375q0.84375 -0.484375 1.84375 -0.484375q1.578125 0 2.34375 0.890625q0.78125 0.890625 0.796875 2.671875l0 6.46875l-1.09375 0l0 -6.484375q0 -1.3125 -0.5625 -1.953125q-0.546875 -0.65625 -1.75 -0.65625q-1.015625 0 -1.796875 0.640625q-0.78125 0.625 -1.15625 1.703125l0 6.75l-1.078125 0l0 -14.0l1.078125 0l0 5.8125zm12.97345 8.375q-1.25 0 -2.265625 -0.625q-1.015625 -0.625 -1.59375 -1.71875q-0.5625 -1.109375 -0.5625 -2.484375l0 -0.390625q0 -1.421875 0.546875 -2.5625q0.5625 -1.140625 1.546875 -1.78125q0.984375 -0.65625 2.125 -0.65625q1.796875 0 2.84375 1.21875q1.0625 1.21875 1.0625 3.34375l0 0.609375l-7.03125 0l0 0.21875q0 1.671875 0.953125 2.796875q0.96875 1.109375 2.421875 1.109375q0.875 0 1.546875 -0.3125q0.671875 -0.328125 1.21875 -1.03125l0.6875 0.515625q-1.203125 1.75 -3.5 1.75zm-0.203125 -9.296875q-1.21875 0 -2.0625 0.90625q-0.84375 0.890625 -1.03125 2.421875l5.921875 0l0 -0.125q-0.046875 -1.421875 -0.8125 -2.3125q-0.765625 -0.890625 -2.015625 -0.890625zm15.111877 0.1875q-0.34375 -0.0625 -0.734375 -0.0625q-1.015625 0 -1.71875 0.5625q-0.703125 0.5625 -1.015625 1.65625l0 6.765625l-1.078125 0l0 -9.859375l1.0625 0l0.015625 1.5625q0.875 -1.734375 2.78125 -1.734375q0.453125 0 0.71875 0.109375l-0.03125 1.0zm5.3688965 9.109375q-1.25 0 -2.265625 -0.625q-1.015625 -0.625 -1.59375 -1.71875q-0.5625 -1.109375 -0.5625 -2.484375l0 -0.390625q0 -1.421875 0.546875 -2.5625q0.5625 -1.140625 1.546875 -1.78125q0.984375 -0.65625 2.125 -0.65625q1.796875 0 2.84375 1.21875q1.0625 1.21875 1.0625 3.34375l0 0.609375l-7.03125 0l0 0.21875q0 1.671875 0.953125 2.796875q0.96875 1.109375 2.421875 1.109375q0.875 0 1.546875 -0.3125q0.671875 -0.328125 1.21875 -1.03125l0.6875 0.515625q-1.203125 1.75 -3.5 1.75zm-0.203125 -9.296875q-1.21875 0 -2.0625 0.90625q-0.84375 0.890625 -1.03125 2.421875l5.921875 0l0 -0.125q-0.046875 -1.421875 -0.8125 -2.3125q-0.765625 -0.890625 -2.015625 -0.890625zm11.934753 6.609375q0 -0.8125 -0.65625 -1.296875q-0.65625 -0.5 -1.96875 -0.78125q-1.3125 -0.28125 -2.03125 -0.640625q-0.71875 -0.359375 -1.078125 -0.875q-0.34375 -0.515625 -0.34375 -1.25q0 -1.171875 0.96875 -1.921875q0.984375 -0.765625 2.5 -0.765625q1.65625 0 2.640625 0.8125q1.0 0.8125 1.0 2.125l-1.09375 0q0 -0.875 -0.71875 -1.4375q-0.71875 -0.578125 -1.828125 -0.578125q-1.078125 0 -1.734375 0.484375q-0.640625 0.46875 -0.640625 1.234375q0 0.734375 0.53125 1.140625q0.546875 0.40625 1.984375 0.75q1.4375 0.328125 2.140625 0.71875q0.71875 0.375 1.0625 0.921875q0.359375 0.53125 0.359375 1.296875q0 1.25 -1.015625 2.0q-1.0 0.75 -2.625 0.75q-1.71875 0 -2.796875 -0.828125q-1.0625 -0.84375 -1.0625 -2.125l1.09375 0q0.0625 0.96875 0.796875 1.5q0.75 0.53125 1.96875 0.53125q1.140625 0 1.84375 -0.5q0.703125 -0.5 0.703125 -1.265625zm9.884033 1.25q-0.984375 1.4375 -3.140625 1.4375q-1.578125 0 -2.40625 -0.921875q-0.8125 -0.921875 -0.828125 -2.703125l0 -6.421875l1.078125 0l0 6.28125q0 2.8125 2.28125 2.8125q2.359375 0 3.0 -1.953125l0 -7.140625l1.09375 0l0 9.859375l-1.0625 0l-0.015625 -1.25zm5.123169 1.25l-1.09375 0l0 -14.0l1.09375 0l0 14.0zm4.6500244 -12.375l0 2.515625l2.046875 0l0 0.890625l-2.046875 0l0 6.578125q0 0.8125 0.296875 1.21875q0.296875 0.390625 1.0 0.390625q0.265625 0 0.875 -0.078125l0.046875 0.890625q-0.421875 0.15625 -1.171875 0.15625q-1.109375 0 -1.625 -0.65625q-0.515625 -0.65625 -0.515625 -1.921875l0 -6.578125l-1.8125 0l0 -0.890625l1.8125 0l0 -2.515625l1.09375 0zm14.749329 9.875q0 -0.8125 -0.65625 -1.296875q-0.65625 -0.5 -1.96875 -0.78125q-1.3125 -0.28125 -2.03125 -0.640625q-0.71875 -0.359375 -1.078125 -0.875q-0.34375 -0.515625 -0.34375 -1.25q0 -1.171875 0.96875 -1.921875q0.984375 -0.765625 2.5 -0.765625q1.65625 0 2.640625 0.8125q1.0 0.8125 1.0 2.125l-1.09375 0q0 -0.875 -0.71875 -1.4375q-0.71875 -0.578125 -1.828125 -0.578125q-1.078125 0 -1.734375 0.484375q-0.640625 0.46875 -0.640625 1.234375q0 0.734375 0.53125 1.140625q0.546875 0.40625 1.984375 0.75q1.4375 0.328125 2.140625 0.71875q0.71875 0.375 1.0625 0.921875q0.359375 0.53125 0.359375 1.296875q0 1.25 -1.015625 2.0q-1.0 0.75 -2.625 0.75q-1.71875 0 -2.796875 -0.828125q-1.0625 -0.84375 -1.0625 -2.125l1.09375 0q0.0625 0.96875 0.796875 1.5q0.75 0.53125 1.96875 0.53125q1.140625 0 1.84375 -0.5q0.703125 -0.5 0.703125 -1.265625zm7.352783 2.6875q-1.25 0 -2.265625 -0.625q-1.015625 -0.625 -1.59375 -1.71875q-0.5625 -1.109375 -0.5625 -2.484375l0 -0.390625q0 -1.421875 0.546875 -2.5625q0.5625 -1.140625 1.546875 -1.78125q0.984375 -0.65625 2.125 -0.65625q1.796875 0 2.84375 1.21875q1.0625 1.21875 1.0625 3.34375l0 0.609375l-7.03125 0l0 0.21875q0 1.671875 0.953125 2.796875q0.96875 1.109375 2.421875 1.109375q0.875 0 1.546875 -0.3125q0.671875 -0.328125 1.21875 -1.03125l0.6875 0.515625q-1.203125 1.75 -3.5 1.75zm-0.203125 -9.296875q-1.21875 0 -2.0625 0.90625q-0.84375 0.890625 -1.03125 2.421875l5.921875 0l0 -0.125q-0.046875 -1.421875 -0.8125 -2.3125q-0.765625 -0.890625 -2.015625 -0.890625zm7.7160034 -3.265625l0 2.515625l2.046875 0l0 0.890625l-2.046875 0l0 6.578125q0 0.8125 0.296875 1.21875q0.296875 0.390625 1.0 0.390625q0.265625 0 0.875 -0.078125l0.046875 0.890625q-0.421875 0.15625 -1.171875 0.15625q-1.109375 0 -1.625 -0.65625q-0.515625 -0.65625 -0.515625 -1.921875l0 -6.578125l-1.8125 0l0 -0.890625l1.8125 0l0 -2.515625l1.09375 0z" fill-rule="nonzero"/></g></svg>