<svg version="1.1" xmlns="http://www.w3.org/2000/svg" viewBox="0 0 1957.600098474121 476.40000915527344" width="1957.600098474121" height="476.40000915527344">
  <!-- svg-source:excalidraw -->
  
  <defs>
    <style>
      @font-face {
        font-family: "Virgil";
        src: url("https://excalidraw.com/Virgil.woff2");
      }
      @font-face {
        font-family: "Cascadia";
        src: url("https://excalidraw.com/Cascadia.woff2");
      }
    </style>
  </defs>
  <g transform="translate(791.6000595092773 10) rotate(0 38 17.5)"><text x="0" y="25" font-family="Virgil, Segoe UI Emoji" font-size="28px" fill="#000000" text-anchor="start" style="white-space: pre;" direction="ltr">Data</text></g><g transform="translate(614.8000106811523 113.19999694824219) rotate(0 54 12.5)"><text x="0" y="18" font-family="Virgil, Segoe UI Emoji" font-size="20px" fill="#000000" text-anchor="start" style="white-space: pre;" direction="ltr">Structured</text></g><g transform="translate(1031.4001693725586 113.19999694824219) rotate(0 65 12.5)"><text x="0" y="18" font-family="Virgil, Segoe UI Emoji" font-size="20px" fill="#000000" text-anchor="start" style="white-space: pre;" direction="ltr">Unstructured</text></g><g stroke-linecap="round" transform="translate(383.59993743896484 310.00010681152344) rotate(0 70 35.5999755859375)"><path d="M66.97 -0.08 C77.86 -1.13, 91.27 0.53, 101.7 3.11 C112.13 5.68, 123.26 10.34, 129.54 15.38 C135.82 20.43, 138.99 27.34, 139.39 33.36 C139.78 39.38, 137.3 46.03, 131.91 51.5 C126.52 56.96, 116.83 62.95, 107.04 66.13 C97.25 69.31, 84.66 70.46, 73.17 70.58 C61.68 70.7, 48.58 69.64, 38.09 66.86 C27.61 64.08, 16.45 58.71, 10.25 53.91 C4.06 49.1, 1.3 43.72, 0.92 38.05 C0.54 32.39, 2.82 25.27, 7.98 19.92 C13.15 14.58, 19.88 9.07, 31.89 5.96 C43.9 2.86, 69.6 1.87, 80.04 1.3 C90.48 0.74, 94.72 2.12, 94.53 2.56 M38.05 4.39 C47.7 1.5, 64.1 0.86, 76.09 1.15 C88.09 1.44, 100.61 2.86, 110.03 6.11 C119.46 9.37, 127.79 15.4, 132.64 20.67 C137.48 25.93, 140.05 32.11, 139.09 37.71 C138.12 43.31, 133.05 49.25, 126.84 54.26 C120.63 59.28, 112.34 64.99, 101.82 67.8 C91.29 70.61, 75.55 71.37, 63.68 71.12 C51.8 70.86, 39.9 69.39, 30.57 66.26 C21.24 63.14, 12.87 58.03, 7.71 52.36 C2.55 46.69, -1.19 38.13, -0.37 32.25 C0.44 26.37, 6.06 22.11, 12.61 17.08 C19.16 12.05, 34.55 4.09, 38.9 2.07 C43.26 0.05, 38.37 4.1, 38.75 4.97" stroke="#000000" stroke-width="1" fill="none"></path></g><g transform="translate(388.59993743896484 333.10008239746094) rotate(0 65 12.5)"><text x="65" y="18" font-family="Virgil, Segoe UI Emoji" font-size="20px" fill="#000000" text-anchor="middle" style="white-space: pre;" direction="ltr">Binary</text></g><g stroke-linecap="round" transform="translate(313.40001678466797 267.59999084472656) rotate(0 70 35.5999755859375)"><path d="M44.93 2.61 C54.89 0.21, 70.12 0.07, 81.79 0.89 C93.45 1.71, 105.99 3.78, 114.94 7.55 C123.88 11.33, 131.31 17.91, 135.47 23.55 C139.63 29.19, 141.74 35.48, 139.9 41.39 C138.05 47.29, 131.92 54.42, 124.39 58.99 C116.87 63.57, 105.81 67.02, 94.74 68.83 C83.68 70.63, 69.44 70.97, 58 69.84 C46.56 68.72, 35.1 65.8, 26.08 62.07 C17.07 58.34, 8.13 52.95, 3.89 47.48 C-0.34 42.02, -1.21 34.93, 0.68 29.27 C2.57 23.61, 6.03 18.37, 15.24 13.52 C24.46 8.66, 47.3 2.32, 55.97 0.13 C64.64 -2.06, 67.16 -0.15, 67.27 0.38 M99.58 2.63 C110 4.21, 120.3 8.49, 127.2 13.49 C134.09 18.5, 139.91 26.77, 140.93 32.66 C141.96 38.54, 138.33 43.75, 133.36 48.82 C128.38 53.89, 120.38 59.24, 111.08 63.08 C101.77 66.92, 89.38 70.88, 77.53 71.85 C65.68 72.83, 50.52 71.31, 39.99 68.92 C29.46 66.53, 20.81 62.48, 14.33 57.53 C7.85 52.58, 2.55 45.22, 1.11 39.24 C-0.32 33.26, 1.23 27.14, 5.75 21.66 C10.26 16.17, 18.89 10.1, 28.22 6.3 C37.55 2.51, 49.77 -0.62, 61.71 -1.13 C73.65 -1.64, 94.03 2.45, 99.87 3.26 C105.71 4.08, 97.46 3.05, 96.75 3.76" stroke="none" stroke-width="0" fill="#ffffff"></path><path d="M98.78 3.39 C109.31 5.17, 119.85 9.21, 126.69 13.86 C133.53 18.51, 138.51 25.17, 139.83 31.29 C141.15 37.42, 139.37 45.08, 134.61 50.6 C129.85 56.12, 121.01 60.99, 111.25 64.43 C101.48 67.86, 87.67 70.62, 76.03 71.22 C64.39 71.82, 52.03 70.61, 41.41 68.04 C30.78 65.47, 18.99 60.68, 12.28 55.82 C5.57 50.97, 2.06 44.71, 1.15 38.91 C0.23 33.12, 2.13 26.55, 6.8 21.04 C11.46 15.54, 19.89 9.3, 29.14 5.87 C38.39 2.43, 49.02 0.23, 62.31 0.41 C75.59 0.6, 99.54 5.4, 108.86 6.97 C118.18 8.55, 118.65 9.39, 118.23 9.85 M67.16 -1.13 C78.03 -1.88, 91.83 0.81, 102.14 3.88 C112.45 6.95, 122.87 12.24, 129.03 17.31 C135.2 22.38, 138.69 28.32, 139.15 34.29 C139.6 40.26, 137.11 47.66, 131.76 53.14 C126.42 58.63, 117.17 64.37, 107.09 67.21 C97.02 70.06, 83.17 70.45, 71.31 70.22 C59.45 69.99, 46.32 68.51, 35.95 65.82 C25.59 63.12, 15.09 58.91, 9.1 54.04 C3.1 49.16, 0.2 42.26, -0.01 36.57 C-0.21 30.88, 2.14 25.22, 7.86 19.91 C13.57 14.6, 24.18 7.94, 34.3 4.7 C44.42 1.46, 63.07 1.3, 68.59 0.49 C74.12 -0.33, 67.41 -0.84, 67.45 -0.21" stroke="#000000" stroke-width="1" fill="none"></path></g><g transform="translate(318.40001678466797 290.69996643066406) rotate(0 65 12.5)"><text x="65" y="18" font-family="Virgil, Segoe UI Emoji" font-size="20px" fill="#000000" text-anchor="middle" style="white-space: pre;" direction="ltr">Nominal</text></g><g stroke-linecap="round" transform="translate(537.2000350952148 315.99998474121094) rotate(0 70 35.5999755859375)"><path d="M70.71 0.82 C81.75 0.11, 94.77 1.3, 104.83 4.31 C114.9 7.32, 125.3 13.81, 131.1 18.88 C136.9 23.95, 139.87 28.87, 139.62 34.73 C139.37 40.58, 135.57 48.66, 129.61 54.01 C123.65 59.37, 114 64.14, 103.87 66.86 C93.74 69.58, 80.39 70.45, 68.85 70.32 C57.3 70.19, 44.56 69.05, 34.59 66.07 C24.62 63.09, 14.93 57.65, 9.03 52.43 C3.13 47.21, -1 40.46, -0.79 34.76 C-0.58 29.06, 4.38 23.14, 10.27 18.22 C16.15 13.3, 23.95 8.28, 34.54 5.23 C45.12 2.18, 66.96 0.5, 73.77 -0.07 C80.58 -0.64, 75.49 1.28, 75.42 1.81 M99.77 3.85 C110.54 5.6, 121.14 9.57, 127.96 14.53 C134.78 19.48, 139.69 27.59, 140.71 33.58 C141.72 39.57, 139.15 45.23, 134.06 50.47 C128.98 55.7, 120.03 61.44, 110.18 64.99 C100.32 68.53, 86.31 71.43, 74.92 71.73 C63.52 72.03, 52.18 69.52, 41.8 66.79 C31.42 64.06, 19.34 59.96, 12.62 55.36 C5.9 50.76, 2.44 45.11, 1.47 39.21 C0.5 33.32, 1.86 25.42, 6.81 20 C11.76 14.59, 21.52 9.96, 31.16 6.71 C40.79 3.46, 53.45 1.22, 64.61 0.49 C75.76 -0.24, 92.44 1.98, 98.07 2.35 C103.7 2.72, 98.53 2.24, 98.4 2.7" stroke="#000000" stroke-width="1" fill="none"></path></g><g transform="translate(542.2000350952148 339.09996032714844) rotate(0 65 12.5)"><text x="65" y="18" font-family="Virgil, Segoe UI Emoji" font-size="20px" fill="#000000" text-anchor="middle" style="white-space: pre;" direction="ltr">Ordinal</text></g><g stroke-linecap="round" transform="translate(704.7999496459961 306.20005798339844) rotate(0 70 42.5)"><path d="M100.04 4.84 C109.87 6.75, 119.8 11.59, 126.21 16.75 C132.62 21.9, 136.98 29.13, 138.5 35.76 C140.03 42.39, 138.76 50.14, 135.36 56.54 C131.96 62.94, 125.91 69.61, 118.11 74.16 C110.32 78.7, 99.12 82.26, 88.6 83.82 C78.09 85.38, 65.43 84.94, 55.03 83.51 C44.63 82.08, 34.62 79.36, 26.22 75.24 C17.82 71.13, 8.91 65.02, 4.63 58.83 C0.36 52.64, -0.64 44.61, 0.56 38.12 C1.77 31.62, 6.04 25.32, 11.86 19.86 C17.67 14.41, 26.31 8.82, 35.44 5.4 C44.57 1.98, 55.53 -0.44, 66.64 -0.65 C77.75 -0.86, 95.87 3.09, 102.11 4.14 C108.35 5.2, 104.66 5.11, 104.07 5.67 M51.07 2.91 C60.58 1.01, 73.57 0.33, 84.49 1.64 C95.41 2.95, 107.98 6.7, 116.58 10.77 C125.18 14.84, 132.43 19.85, 136.11 26.08 C139.79 32.32, 140.14 41.7, 138.66 48.17 C137.17 54.64, 132.9 59.48, 127.2 64.92 C121.49 70.36, 113.67 77.54, 104.44 80.79 C95.21 84.05, 82.84 84.47, 71.81 84.46 C60.78 84.44, 48.2 83.72, 38.24 80.71 C28.28 77.7, 18.37 71.62, 12.04 66.41 C5.71 61.2, 1.61 55.57, 0.26 49.44 C-1.09 43.31, 0.4 36.04, 3.94 29.64 C7.48 23.24, 13.57 15.91, 21.52 11.03 C29.46 6.16, 46.38 1.78, 51.61 0.42 C56.84 -0.94, 52.78 2.23, 52.89 2.86" stroke="#000000" stroke-width="1" fill="none"></path></g><g transform="translate(709.7999496459961 336.20005798339844) rotate(0 65 12.5)"><text x="65" y="18" font-family="Virgil, Segoe UI Emoji" font-size="20px" fill="#000000" text-anchor="middle" style="white-space: pre;" direction="ltr">Discrete</text></g><g stroke-linecap="round" transform="translate(965.5998764038086 374.40000915527344) rotate(0 56.5 24)"><path d="M66.64 -0.43 C76.06 0.1, 87.42 2.87, 94.81 6.14 C102.19 9.4, 108.51 14.94, 110.95 19.14 C113.4 23.34, 112.91 27.3, 109.49 31.34 C106.06 35.38, 98.34 40.45, 90.41 43.36 C82.48 46.28, 71.93 48.36, 61.9 48.82 C51.87 49.28, 39.29 48.15, 30.24 46.13 C21.19 44.1, 12.53 40.48, 7.59 36.69 C2.66 32.9, 0.06 27.95, 0.64 23.4 C1.22 18.85, 5.07 13.05, 11.06 9.37 C17.05 5.7, 26.8 2.84, 36.57 1.35 C46.34 -0.14, 63.65 0.43, 69.68 0.43 C75.7 0.42, 72.96 0.84, 72.71 1.32 M39.63 -0.01 C48.49 -1.36, 60.36 0.75, 70.35 1.88 C80.34 3.01, 92.36 3.57, 99.57 6.77 C106.78 9.97, 112.24 16.8, 113.62 21.08 C114.99 25.36, 111.92 28.44, 107.83 32.43 C103.75 36.41, 97.57 42.47, 89.11 44.99 C80.65 47.51, 67.41 47.42, 57.08 47.54 C46.76 47.65, 35.66 47.77, 27.16 45.66 C18.66 43.54, 10.29 38.74, 6.07 34.86 C1.85 30.98, 0.81 26.88, 1.82 22.39 C2.83 17.89, 5.78 11.41, 12.13 7.89 C18.48 4.36, 35.49 2.42, 39.92 1.24 C44.36 0.05, 38.64 0.44, 38.73 0.79" stroke="#000000" stroke-width="1" fill="none"></path></g><g transform="translate(970.5998764038086 385.90000915527344) rotate(0 51.5 12.5)"><text x="51.5" y="18" font-family="Virgil, Segoe UI Emoji" font-size="20px" fill="#000000" text-anchor="middle" style="white-space: pre;" direction="ltr">Ratio</text></g><g transform="translate(473.9999008178711 187.70008850097656) rotate(0 56 12.5)"><text x="0" y="18" font-family="Virgil, Segoe UI Emoji" font-size="20px" fill="#000000" text-anchor="start" style="white-space: pre;" direction="ltr">Categorical</text></g><g transform="translate(741.8000106811523 188.3000030517578) rotate(0 36 12.5)"><text x="0" y="18" font-family="Virgil, Segoe UI Emoji" font-size="20px" fill="#000000" text-anchor="start" style="white-space: pre;" direction="ltr">Numeric</text></g><g stroke-linecap="round"><g transform="translate(798.6118068080395 50.41083792038262) rotate(0 -65.9477230081335 27.19859389510006)"><path d="M-0.19 -0.79 C-22.18 8.14, -109.93 44.68, -131.71 53.9 M-1.75 1.41 C-23.37 10.47, -107.74 46.1, -129.36 55.19" stroke="#000000" stroke-width="1" fill="none"></path></g></g><g stroke-linecap="round"><g transform="translate(693.2000350952148 140.00001525878906) rotate(0 37.69968895129858 22.063859345391393)"><path d="M-0.6 -1.03 C12.04 6.62, 63.18 37.84, 76 45.16 M1.29 1.05 C13.82 8.46, 62.99 36.55, 75.47 43.64" stroke="#000000" stroke-width="1" fill="none"></path></g></g><g stroke-linecap="round"><g transform="translate(635.6000595092773 143.19996643066406) rotate(0 -49.920287726446986 21.927991761853917)"><path d="M0.76 0.99 C-15.98 8.34, -83.81 36.43, -100.6 43.39 M-0.3 0.46 C-16.63 7.48, -81.47 34.14, -98.2 41.37" stroke="#000000" stroke-width="1" fill="none"></path></g></g><g stroke-linecap="round"><g transform="translate(507.5999984741211 214.40000915527344) rotate(0 -39.111576783200746 28.670772070642556)"><path d="M-0.08 0.23 C-12.82 9.71, -64.3 47.01, -77.06 56.6 M-1.58 -0.69 C-14.44 9, -65.52 48.6, -78.15 58.03" stroke="#000000" stroke-width="1" fill="none"></path></g></g><g stroke-linecap="round"><g transform="translate(548.3999862670898 216.80006408691406) rotate(0 30.979373411247536 47.41292937233115)"><path d="M-0.59 1.04 C9.63 16.59, 50.03 78.66, 60.44 94.28 M1.31 0.54 C11.95 15.66, 52.56 77.1, 62.54 92.52" stroke="#000000" stroke-width="1" fill="none"></path></g></g><g stroke-linecap="round"><g transform="translate(775.5999984741211 215.1999969482422) rotate(0 -5.995954915042944 41.73107867821119)"><path d="M-0.53 -0.6 C-2.61 13.25, -10.26 68.69, -12.28 82.76 M1.39 1.7 C-0.89 15.75, -10.84 70.71, -13.38 84.06" stroke="#000000" stroke-width="1" fill="none"></path></g></g><g stroke-linecap="round"><g transform="translate(794.0000228881836 215.1999969482422) rotate(0 76.9499249449745 49.92448629204188)"><path d="M-0.6 0.48 C24.62 17.04, 126.49 83.75, 152.29 100.17 M1.29 -0.32 C26.78 15.81, 129.06 81.58, 154.5 98.3" stroke="#000000" stroke-width="1" fill="none"></path></g></g><g transform="translate(976.4000473022461 233.0000457763672) rotate(0 117.5 17.5)"><text x="0" y="25" font-family="Virgil, Segoe UI Emoji" font-size="28px" fill="#000000" text-anchor="start" style="white-space: pre;" direction="ltr">Everything else :)</text></g><g stroke-linecap="round"><g transform="translate(860.558083099369 42.21086046509447) rotate(0 100.77598363483321 30.884537401851276)"><path d="M1.06 -0.99 C34.4 9.32, 166.2 51.05, 199.21 61.58 M0.16 1.11 C33.93 11.58, 167.84 52.36, 201.39 62.76" stroke="#000000" stroke-width="1" fill="none"></path></g></g><g stroke-linecap="round"><g transform="translate(1092.400047302246 152.00001525878906) rotate(0 0.7120583010304244 30.441616463698466)"><path d="M-0.31 0.42 C-0.04 10.23, 0.4 49.87, 0.59 59.92 M1.73 -0.4 C1.96 10.1, 0.03 51.44, -0.21 61.29" stroke="#000000" stroke-width="1" fill="none"></path></g></g><g transform="translate(900.4000473022461 327.6999969482422) rotate(0 52 12.5)"><text x="0" y="18" font-family="Virgil, Segoe UI Emoji" font-size="20px" fill="#000000" text-anchor="start" style="white-space: pre;" direction="ltr">Continuous</text></g><g stroke-linecap="round" transform="translate(836.6999740600586 373.99998474121094) rotate(0 56.5 24)"><path d="M53.77 -0.67 C63.34 -1.3, 75.64 1.5, 84.49 3.62 C93.33 5.74, 101.99 8.46, 106.85 12.07 C111.72 15.68, 114.55 20.89, 113.67 25.28 C112.79 29.68, 108.1 34.93, 101.56 38.44 C95.01 41.95, 84 44.85, 74.38 46.35 C64.77 47.84, 53.64 48.44, 43.88 47.42 C34.11 46.39, 23.02 43.41, 15.79 40.21 C8.56 37, 2.63 32.42, 0.49 28.2 C-1.65 23.97, -0.81 18.69, 2.95 14.83 C6.71 10.98, 14.28 7.59, 23.04 5.05 C31.79 2.52, 49.35 0.41, 55.48 -0.39 C61.61 -1.2, 59.53 -0.37, 59.83 0.25 M72.24 -0.08 C81.49 0.53, 92.86 3.62, 99.76 7.37 C106.66 11.11, 112.31 17.73, 113.63 22.39 C114.95 27.05, 112.44 31.7, 107.69 35.33 C102.93 38.96, 93.72 42.06, 85.11 44.17 C76.5 46.28, 65.89 47.9, 56.04 48 C46.18 48.1, 34.35 47.3, 25.99 44.76 C17.63 42.22, 10.3 37.06, 5.88 32.75 C1.46 28.44, -1.95 23.21, -0.51 18.9 C0.92 14.6, 7.63 9.81, 14.49 6.93 C21.35 4.05, 30.86 2.81, 40.65 1.62 C50.43 0.43, 67.75 0.02, 73.19 -0.21 C78.64 -0.44, 73.55 -0.53, 73.31 0.24" stroke="#000000" stroke-width="1" fill="none"></path></g><g transform="translate(841.6999740600586 385.49998474121094) rotate(0 51.5 12.5)"><text x="51.5" y="18" font-family="Virgil, Segoe UI Emoji" font-size="20px" fill="#000000" text-anchor="middle" style="white-space: pre;" direction="ltr">Interval</text></g><g stroke-linecap="round"><g transform="translate(952.4000473022461 354.40000915527344) rotate(0 -15.468172952523389 9.00240806750952)"><path d="M-1.02 -1.09 C-6.44 1.98, -26.56 16.03, -31.58 19.1 M0.64 0.95 C-4.5 3.61, -24.61 14.49, -29.48 17.34" stroke="#000000" stroke-width="1" fill="none"></path></g></g><g stroke-linecap="round"><g transform="translate(963.5999984741211 356.80003356933594) rotate(0 15.303268747031666 7.476424050629134)"><path d="M0.35 0.34 C5.54 2.92, 26.38 12.94, 31.53 15.49 M-0.93 -0.53 C4.18 1.75, 25.86 11.53, 31.18 13.93" stroke="#000000" stroke-width="1" fill="none"></path></g></g><g stroke-opacity="0.5" fill-opacity="0.5" transform="translate(666.8000106811523 88.00001525878906) rotate(0 29.99998474121088 189.1999969482422)" stroke="none"><path d="M-395.5 183.55 C-395.5 183.55, -395.5 183.55, -395.5 183.55 M-395.5 183.55 C-395.5 183.55, -395.5 183.55, -395.5 183.55 M-401.91 199.85 C-392.61 183.09, -377.06 171.8, -371.94 159.66 M-402.78 198.3 C-392.21 185.85, -380.46 172.11, -370.63 160.96 M-407.82 207.78 C-392.73 195.7, -382.06 180.63, -359.82 152.67 M-406.55 206.67 C-389.27 187.8, -373.15 168.92, -356.98 153.44 M-406.17 215.86 C-384.41 191.84, -362.89 165.77, -350.03 151.96 M-407.44 216.55 C-391.66 199.32, -377.23 181.47, -350.33 151.15 M-406.61 223.55 C-381.81 193.41, -352.79 161.88, -339.67 141.1 M-406.91 221.66 C-383.02 193.56, -357.85 165.7, -338.72 142.94 M-408.36 229.69 C-381.01 195.57, -352.83 161.43, -333.42 139.26 M-408.75 228.86 C-391.23 207.78, -374.73 188.76, -331.47 141.54 M-408.81 235.53 C-379.62 202.54, -352.59 173.89, -320.79 134.15 M-407.37 234.45 C-375.08 193.65, -340.25 154.51, -319.3 132.82 M-405.31 241.53 C-383.03 213.67, -359.53 187.06, -310.53 130.46 M-406.43 239.28 C-383.51 215.1, -362.89 189.22, -310.43 129.42 M-407.56 243.51 C-381.19 213.1, -354.24 181.43, -302.97 124.13 M-406.96 246.13 C-367.74 200.74, -329.58 156.37, -301.77 125.41 M-404.87 249.83 C-366.14 207.37, -328.9 164.26, -292.34 117.29 M-405.47 249.22 C-380.52 221.64, -355.31 191.69, -290.97 118.44 M-403.22 254.32 C-374.82 221.62, -346.72 188.52, -285.67 118.13 M-404.76 254.41 C-362.69 206.35, -319.46 156.17, -284.15 115.91 M-403.8 257.28 C-373.97 225.12, -345.94 193.08, -275.11 112.01 M-403.2 258.44 C-371.12 225.04, -338.64 187.3, -273.96 111.38 M-400.78 262.57 C-357.99 217.13, -319.74 167.4, -264.65 107.48 M-400.37 263.27 C-367.35 223.48, -334.31 186.33, -265.05 106.9 M-398.43 265.6 C-346.76 211.65, -298.7 153.51, -258.44 105.36 M-396.94 264.84 C-351.71 211.82, -305.35 160, -258.45 105.1 M-397.06 270.48 C-362.22 230.7, -332.88 195.2, -248.05 99.69 M-396.01 268.52 C-353.78 222.11, -312.03 172.82, -247.17 97.34 M-393.11 272.53 C-337.79 211.81, -284.71 147.79, -237.21 93.62 M-392.71 272.15 C-330.8 199.83, -268.08 127.77, -236.68 92.66 M-391.96 275.22 C-328.13 205.19, -266.24 133.6, -230.76 92.08 M-390.68 275.65 C-338.77 215.25, -286.43 155.33, -229.57 90.27 M-389.43 280.17 C-330.07 212.63, -268.2 144.43, -216.39 81.5 M-389.05 279.89 C-330.03 212.46, -271.29 144.01, -215.61 80.74 M-385.14 283.1 C-317.15 205.18, -249.92 128.61, -207.12 79.7 M-385.61 281.82 C-314.9 200.84, -247.09 121.87, -208 77.69 M-382.29 283.46 C-339.25 233.32, -294.16 184.18, -198.11 72.94 M-382.4 284.07 C-318.26 208.64, -252.59 133.79, -198.81 73.78 M-380.65 288.55 C-306.45 199.29, -227.95 110.76, -186.35 64.16 M-381.46 289.31 C-320.75 218.08, -260.12 148.82, -187.01 65.37 M-376.66 290.43 C-327.1 233.25, -275.23 174.51, -183.14 66.12 M-377.79 291.48 C-338.32 244.26, -297.15 196.99, -181.51 65.7 M-373.3 294.71 C-301.98 212.65, -231.56 129.86, -174.65 63.38 M-373.75 293.15 C-319.55 228.95, -264.66 165.72, -175.66 64.81 M-369.36 296.45 C-296.15 209.2, -221.58 125.36, -169.85 63.56 M-370.22 295.04 C-297.96 212.82, -226.84 130.04, -168.58 62.87 M-366.69 295.58 C-315.51 237.87, -264.36 181.42, -156.58 56.53 M-366.47 296.12 C-304.71 224.3, -244.05 153.7, -158.33 55.9 M-361.99 296.48 C-306.01 232.66, -251.75 167.28, -148.61 51.2 M-361.23 296.64 C-308.41 237.63, -255.14 176.2, -148.36 51.53 M-355.41 295.95 C-274.94 204.3, -195.02 111.04, -134.31 43.22 M-356.53 296.79 C-287.49 215.92, -218.43 136.6, -135.24 43.04 M-350.11 296.26 C-305.65 243.52, -262.18 190.67, -125.57 38.56 M-351.29 297.34 C-304.19 241.02, -256.4 185.32, -125.09 37.83 M-347.96 297.55 C-283.72 228.62, -221.98 155.96, -119.31 36.49 M-346.46 298.47 C-273.88 212.82, -200.12 129.37, -119.06 36.29 M-341.79 296.65 C-261.5 202.78, -179.51 110.23, -111.52 32.01 M-341.38 297.32 C-257.4 199.19, -172.2 100.6, -110.99 32.65 M-335 296.8 C-276.44 228.9, -218.43 159.76, -102.31 27.81 M-336.18 297.35 C-279.43 230.04, -220.89 164.75, -101.06 28.36 M-331.9 298.64 C-269.92 228.19, -209.3 157.27, -92.53 23.27 M-330.88 298.16 C-256.05 210.25, -180.56 123.59, -92.07 24.56 M-325.77 298.66 C-265.61 231.48, -206.64 162.75, -81.47 16.71 M-325.71 298.59 C-266.26 231.75, -207.86 165.31, -80.14 15.6 M-321.49 298.37 C-234.62 196.69, -146.2 96.71, -73.78 13.82 M-320.27 298.45 C-258.17 227.58, -196.99 156.63, -72.72 13.21 M-316.07 299.12 C-242.73 212.24, -165.99 125.83, -65.18 11.67 M-316.38 300.46 C-216.88 186.38, -118.48 72.63, -66.07 12.09 M-313.1 301.17 C-247.66 226.24, -182.07 149.94, -60.25 11.05 M-312.28 302.17 C-252.51 234.27, -192.51 166.48, -59.47 10.61 M-306.32 300.77 C-218.64 200.68, -130.86 100.2, -52.96 10.17 M-307.62 301 C-244.82 229.29, -182.51 158.39, -54.07 10.5 M-302.75 302.06 C-227.41 212.61, -150.43 125.18, -44.61 7.25 M-302.18 301.47 C-217.72 202.7, -131.5 104.03, -45.74 7.16 M-298.25 302.58 C-245.43 237.74, -189.69 175.52, -36.88 1.44 M-298.4 302.72 C-233.18 224.48, -166.25 148.54, -36.4 2.54 M-293.98 302.31 C-197.37 191.78, -100.32 79.81, -30.87 2.24 M-292.48 302.97 C-213.43 214.17, -134.59 123.82, -31.57 2.47 M-286.58 302.83 C-183.33 183.03, -83.33 66.33, -25.25 0.3 M-286.49 301.91 C-201.99 202.94, -115.46 105.34, -25.16 1.47 M-281.07 301.73 C-212.48 220.23, -143.39 139.78, -20.03 0.08 M-281.09 301.95 C-212.1 224.65, -143.94 145.82, -19.24 0.13 M-278.6 304.11 C-198.32 213.42, -118.13 120.73, -13.38 1.4 M-278 304.61 C-198.22 212.61, -119.68 122.08, -14.35 0.48 M-273.31 307.06 C-177.09 192.88, -79.19 81.68, -8.9 1.81 M-273.78 306.5 C-212.55 235.81, -150.73 165.5, -8.84 1.09 M-269.07 305.99 C-212.28 241.1, -154.63 174.44, -4.46 0.83 M-268.68 306.27 C-205.4 233.91, -141.56 159.26, -3.89 1.52 M-4.38 1.52 C-3.7 1.02, -3.33 0.44, -2.7 0.31 M-4.17 1.75 C-3.97 1.27, -3.63 1.02, -2.88 0.07 M-264.35 308.13 C-175.66 205.97, -87.17 102.61, 1.67 1.3 M-265.24 307.87 C-164.43 192.87, -65.09 79.9, 1.08 0.84 M-259.7 308.45 C-191.32 226.97, -119.69 145.79, 6.16 0.92 M-261.03 308.35 C-175.58 208.45, -90.53 110.21, 6.77 1.25 M-258.33 311.4 C-178.1 220.69, -98.9 129.79, 9.36 4.26 M-257.38 311.83 C-168.58 209.98, -81.11 108.65, 10.57 3.04 M-252.86 312.46 C-181.3 229.49, -110.48 148.02, 14.86 4.51 M-253.05 311.36 C-200.64 249.57, -146.15 188.16, 14.61 4.13 M-248 313.67 C-175.6 227.63, -102.29 142.78, 19.28 4.34 M-248.34 312.94 C-168.67 221.13, -90.4 131.06, 20.19 4.74 M-243.54 313.6 C-165.16 224.44, -88.05 133.38, 25.36 4.15 M-243.95 314.44 C-182.58 244.37, -121.55 173.93, 25.53 5.12 M-240.38 315.58 C-156.54 220.13, -77.22 127.37, 29.47 4.63 M-239.15 314.65 C-161.04 224.88, -82.6 136.18, 29.38 6.13 M-234.26 316.41 C-139.84 203.71, -42.61 92.35, 32.94 8.35 M-234.79 316.42 C-142.4 207.61, -48.87 100.34, 32.6 7.05 M-231.75 317.44 C-142.13 216.03, -54.88 114.87, 38.02 7.69 M-231.54 318.65 C-160.44 236.3, -89.15 154.61, 36.92 9.14 M-226.58 319.81 C-146.06 226.43, -65.47 132.63, 44.41 7.72 M-227.54 319.39 C-121.35 196.11, -14.16 72.31, 43.85 7.27 M-223.29 319.55 C-128.13 207.7, -31.12 97.28, 47.48 8.48 M-223.27 320.4 C-166.25 253.73, -109.38 188.49, 48.02 8.66 M-218.69 323.28 C-164.33 257.18, -108.77 192.66, 51.66 9.07 M-218.79 322.21 C-112.64 200.12, -6.23 77.59, 51.87 10.23 M-215.76 324.2 C-127.16 222.97, -41 122.85, 56.53 11.31 M-215.45 323.73 C-146.86 245.21, -78.72 167.01, 55.64 11.19 M-211.36 326.61 C-109.03 206.82, -5.8 89.63, 59.43 11.67 M-211.69 326.24 C-146.41 253.3, -81.66 178.12, 60.05 13.28 M-207.15 325.58 C-151.92 263.81, -98.53 199.77, 65.67 14.91 M-207.35 326.8 C-112.66 217.97, -19.33 109.85, 64.21 13.87 M-201.55 327.13 C-94.6 201.48, 12.96 78.27, 67.61 17.51 M-201.43 326.63 C-138.93 254.95, -77.82 183.73, 67.58 17.29 M-196.54 327.85 C-114.66 231.61, -31.88 136.51, 71.07 18.54 M-196.61 326.65 C-91.66 205.43, 15.58 81.24, 72.05 17.62 M-190.58 326.97 C-128.66 256.17, -65.4 183.48, 76.73 18.28 M-191.52 326.65 C-99.24 221.63, -7.55 115.81, 76.52 18.62 M-186.16 327.28 C-82.59 206.81, 22.72 85.57, 78.59 21.85 M-187.1 328.01 C-98.91 225.12, -8.99 122.52, 79.33 21.15 M-180.77 326.64 C-87.9 219.53, 6.65 113.19, 84.62 22.45 M-180.09 326.33 C-91.5 221.92, -0.71 117.47, 83.61 22.51 M-176.34 326.32 C-81.54 219.57, 13.34 111.52, 87.22 24.81 M-175.8 327.33 C-114.4 257.54, -53.29 188.54, 87.31 24.59 M-172.62 329.17 C-67.36 208.9, 37.73 87.78, 92.33 25.13 M-171.89 328.27 C-98.41 244.07, -25.08 159.95, 92.26 25.58 M-167.79 328.39 C-80.37 229.48, 4.41 132.37, 94.1 28.8 M-166.6 328.9 C-67.75 212.87, 33.71 96.75, 94.2 27.83 M-162.13 329.91 C-81.86 235.91, 1.49 143.87, 97.79 29.36 M-162.98 330.25 C-63.54 214.48, 36.68 99.85, 98.97 29.91 M-156.89 331.31 C-61.8 218.21, 35.65 106.73, 101.48 32.41 M-157.37 331.23 C-95.68 260.29, -32.35 187.63, 101.49 32.56 M-153.8 330.51 C-96.37 266.35, -40.14 201.08, 103.63 35.23 M-152.93 330.74 C-54.9 219.59, 42.28 106.87, 103.78 36.08 M-148.19 332.13 C-94.4 272.17, -41.1 211.38, 106 39.44 M-148.32 332.41 C-79.73 250.72, -8.34 168.88, 105.94 39.44 M-143.79 330.98 C-54.63 230.85, 34.25 127.44, 109.79 40.3 M-142.28 331.74 C-48.82 221.87, 47.21 112.04, 110.5 40.73 M-138.79 333.75 C-65.23 250.32, 5.99 168.43, 112.74 44.1 M-138.37 332.64 C-62.16 243.42, 14.23 155.3, 113.18 43 M-133.51 331.59 C-59.34 246.87, 14.15 160.75, 116.02 47.46 M-133.08 332.06 C-43.41 225.93, 48.09 121.23, 115.87 46.13 M-127.64 331.35 C-57.71 250.86, 10.71 170.61, 119.91 48.63 M-127.1 331.8 C-34.77 227.31, 55.97 122.02, 119.41 48.86 M-120.83 331 C-32.58 229.66, 55.59 128.97, 121.15 52.36 M-121.69 331.93 C-40.12 239.95, 39.28 148.88, 122.37 51.88 M-117.05 333.15 C-57.79 264.92, 0.01 199.22, 124.98 54.46 M-116.76 331.83 C-52.19 260.46, 10.48 187.98, 125.24 53.49 M-110.79 332.76 C-57.18 269.73, -1.23 205.7, 130.41 56.2 M-111.06 331.61 C-33.07 242.08, 45.02 152.48, 129.25 55.09 M-105.65 330.71 C-56.44 272.91, -4.15 214.08, 132.78 58.49 M-104.58 331.72 C-9.88 221.66, 85.07 113.01, 132.44 57.96 M-100.47 331.51 C-38.87 259.83, 24.85 185.25, 135.75 58.8 M-100.09 330.58 C-50.89 273.98, -1.21 217.31, 135.5 59.75 M-95.5 331.39 C-44.44 276.33, 3.84 219.49, 138.21 62.06 M-94.16 331.18 C-16.74 242.55, 61.96 151.29, 139.42 62.99 M-89.01 331.72 C-34.84 264.93, 23.41 201.53, 142.77 62.97 M-89.4 332.01 C-13.46 245.56, 60.77 160.11, 142.74 63.25 M-85.64 334.38 C-22.36 259.13, 45.17 183.21, 147.36 64.94 M-86.12 333.29 C-23.47 259.83, 39.72 187.21, 146.71 65.8 M-80.74 332.24 C-30.58 278.2, 17.06 224.47, 151.92 66.72 M-79.93 332.79 C4.74 234.53, 92.44 134.07, 150.59 67.95 M-76.49 333.97 C-29.93 279, 19.54 225.78, 151.95 71.53 M-76.5 333.55 C-1.95 248.72, 72.88 163.15, 152.44 72.11 M-71.28 335.68 C-24.2 281.42, 20.78 228.67, 154.32 74.65 M-71.11 334.86 C17.99 233.16, 106.95 131.39, 155.96 74.25 M-66.15 335.61 C-18.21 280.43, 28.54 227.84, 159.14 77.06 M-66.61 336.42 C-7 265.67, 54.38 195.92, 159.63 76.54 M-62.81 335.55 C18.65 246.15, 98.57 153.67, 162.43 79.09 M-62.77 337.04 C17.46 245.64, 97.74 152.72, 160.89 79.07 M-56.76 337.44 C-0.89 274.87, 53.55 209.39, 164.79 83.55 M-58.55 337.4 C32.18 237.63, 119.78 135.33, 164.33 83.25 M-52.49 338.16 C31.35 241.46, 117.41 141.53, 166.93 87.01 M-53.14 339.14 C25.61 248.8, 103.93 158.59, 166.77 86.52 M-48.06 340.58 C21.78 258.34, 93.02 175.22, 169.82 89.42 M-49.15 340.64 C6.32 276.34, 61 212.88, 168.75 89.58 M-42.97 339.09 C20.65 264.9, 85.76 189.81, 172.11 93.41 M-44.89 340.24 C11.12 278.52, 64.68 216.32, 170.87 92.4 M-40.08 340.12 C42.92 245.07, 128.25 147.63, 175.59 95.16 M-38.7 341.37 C23.51 267.96, 88.01 193.46, 174.69 94.89 M-34.48 342.06 C30.89 267.89, 96.32 191.76, 177.38 97.79 M-34.97 342.18 C8.66 292.22, 51.77 242.73, 176.38 98.85 M-31.42 343.85 C11.18 294.51, 56.03 244.28, 180.63 101.41 M-30.16 343.73 C23.96 281.62, 77.91 220.45, 180.97 99.44 M-27.37 345.1 C32.91 276.31, 92.52 209.35, 185.46 101.77 M-26.2 344.69 C44.93 263.02, 116.31 181.08, 183.81 101.51 M-22.47 343.74 C42.12 274.23, 107.06 200.63, 186.03 105.71 M-22 344.07 C53.54 262.26, 127.45 177.71, 186.56 104.61 M-14.67 343.67 C43.42 274.74, 102.73 204.5, 190.12 107.85 M-15.1 343.53 C42.52 275.81, 102.14 206.08, 188.97 108.44 M-11.67 343.54 C34.37 291.48, 81.68 235.67, 192.05 111.77 M-10.54 343.99 C46.48 278.18, 102.97 213.17, 192.17 111.79 M-6.13 344.74 C57.39 269.81, 120.14 197.27, 194.79 112.86 M-5.27 345.42 C46.73 282.54, 101.82 219.94, 195.46 113.3 M-1.61 345.82 C57.72 279.29, 116.44 211.51, 199.97 115.94 M-1.08 346.38 C49.81 287.23, 99.95 229.54, 198.56 116.41 M3.67 345.02 C62.6 276.37, 122.08 208.19, 201.11 118.8 M3.98 346.82 C77.57 261.43, 149.61 176.98, 200.79 119.61 M6.63 347.66 C51.17 298.78, 92.74 248.72, 203.98 121.81 M8.44 347.62 C71.34 274.67, 133.65 202.08, 205.02 120.39 M12.02 349.02 C70.74 280.01, 126.19 214.99, 210.24 121.57 M13.63 348.32 C66.14 284.8, 119.85 224.69, 208.57 121.58 M18.52 348.19 C69.77 288.68, 126.53 225.15, 211.51 124.63 M17.28 348.75 C69.38 290.41, 122.02 229.13, 211.46 126.2 M23.93 347.12 C82.25 278.42, 140.43 209.56, 213.63 130.33 M24.1 348.25 C89.95 272.55, 155.68 196.76, 214.45 128.51 M27.25 349.3 C104.31 260.34, 181.57 172.68, 217.81 132.12 M28.78 348.12 C91.2 278.18, 152.8 206.3, 217.03 131.95 M32.07 348.04 C91.13 285.2, 144.48 221.22, 222.48 132.33 M33.52 347.83 C98.88 274.55, 163.82 199.17, 221.29 132.07 M36.35 349.07 C78.1 301.25, 120.34 254.37, 225.18 134.66 M36.65 350.4 C84.21 297.47, 130.53 242.81, 225.57 134.67 M43.68 351.49 C104.15 277.05, 166.55 204.81, 227.77 136.42 M41.68 351.18 C99.5 285.06, 157.87 218.5, 228.33 136.94 M47.09 349.12 C94.25 297.05, 138.53 246.17, 230.21 141.28 M47.47 350.71 C91.96 300.63, 134.93 251.42, 230.42 140.45 M51.56 349.35 C99.03 298.7, 143.53 247.96, 232.72 143.87 M53.37 351.03 C102.73 293.49, 151.94 237.53, 234.4 142.8 M57.34 352.49 C111.55 292.34, 164.39 230.26, 237.42 145.67 M56.23 352.74 C94.74 309.07, 133.19 264.07, 236.34 144.62 M62.21 350.82 C100.23 310.18, 136.18 268.42, 239.21 148.04 M63.17 351.28 C123.22 284.67, 180.97 216.34, 240.04 148.1 M67.85 351.36 C112.07 304.19, 153.67 253.12, 243.62 148.96 M67.03 351.38 C132.1 281.46, 194.42 208.92, 243.28 149.33 M72.29 352.78 C123.05 293.37, 174.07 234.37, 245.68 151.34 M72.41 353.54 C140.04 274.46, 209.33 194.83, 246.39 152.29 M79.18 351.4 C126.82 294.97, 177.17 237.35, 251.87 155.3 M76.98 353.21 C138.94 279.73, 200.43 209.13, 250.14 153.46 M82.98 352.74 C149.45 277.76, 212.85 204.89, 252.93 156.85 M84.49 350.82 C123.81 304.53, 166.74 255.36, 254 155.83 M89.57 353.07 C138.57 294.27, 185.97 235.12, 254.86 159.92 M88.88 352.06 C151.16 282.74, 212.55 211.7, 256.31 160.5 M93.1 351.47 C128.07 313.89, 161.83 275.09, 260.79 161.94 M93.78 352.96 C134.74 306.24, 177.14 257.6, 260.16 161.11 M99.24 355.35 C136.9 307.83, 179.61 264.24, 262.06 165.96 M97.27 354.27 C139.14 306.25, 180.81 257.4, 260.83 165.97 M104.35 355.02 C155.19 293.84, 207.48 232.82, 261.82 170.87 M102.82 354.23 C145.97 304.47, 189.95 254.42, 263.12 169.89 M106.51 354.26 C162.62 289.71, 219.21 223.17, 264.6 172.27 M107.85 355.84 C160.7 293.78, 213.64 233.66, 265.16 173.21 M112.85 355.31 C170.46 285.15, 230.96 215.78, 267.79 177.02 M113.36 355.11 C165.23 293.12, 217.94 232.21, 268.26 175.97 M119.16 356.2 C150.39 318.83, 182.02 284.24, 270.04 180.19 M117.05 356.07 C156 310.8, 193.42 265.92, 271.49 178.27 M122.07 356.3 C182.06 291, 239.7 223.41, 273.38 181.76 M123.48 355.05 C182.63 285.6, 242.54 216.89, 275.55 179.89 M126.95 355.55 C185.45 289.02, 243.93 222.59, 278.56 184.94 M128.36 355.95 C170.65 305.87, 214.4 257.73, 277.45 183.66 M133.43 357.35 C168.87 314.23, 200.71 274.92, 282.2 186.72 M132.1 356.49 C183.66 300.01, 234.28 241.93, 281.42 185.51 M138.82 357.36 C173.7 315.54, 211.44 273.9, 283.58 188.06 M136.79 356.79 C176.73 312.16, 215.61 267.91, 284.73 186.54 M142.89 358.94 C177.21 315.83, 215.38 275.83, 286.22 191.37 M141.8 358 C197.75 294.77, 252.89 231.36, 287.81 189.92 M145.83 360.02 C199.82 297.9, 252.77 237.2, 289.96 193.21 M146.92 358.81 C178.54 321.34, 211.63 282.12, 290.88 192.16 M151.61 359.45 C181.69 325.72, 211.42 289.8, 292 197.01 M151.64 358.64 C191.94 312.66, 233.31 263.35, 293.47 195.09 M155.76 361.81 C193.19 314.62, 230.01 271.5, 296.92 198.05 M155.24 360.04 C209.48 298.49, 264.36 234.84, 298.61 196.42 M161.64 363.05 C201.95 312.97, 243.47 263.65, 299.87 200.43 M160.3 361.6 C209.23 302.61, 260.1 243.17, 299.59 200.76 M164.67 362.21 C208.77 312.39, 252.6 260.63, 304.4 199.91 M165.74 362 C214.13 303.84, 262.98 246.63, 305.91 201.03 M170.43 363.7 C223.22 302.04, 277.48 239.96, 309.7 201.82 M170.31 362.56 C202.41 322.81, 235.58 285.36, 309.72 202.68 M175.14 364.15 C229.3 301.15, 285.31 237.55, 312.33 205.87 M174.23 363.99 C215.79 316.08, 255.94 267.81, 313.09 203.51 M178.7 366.47 C223.31 315.66, 265.23 266.21, 317.34 205.62 M177.56 364.87 C215.44 321.37, 251.29 278.31, 316.55 206.6 M182.71 366.72 C220.89 323.01, 256.46 279.81, 321.72 207.29 M183.66 365.5 C212.28 331.72, 240.76 298.99, 321.22 205.92 M185.14 366.66 C220.79 328.88, 254.56 291.49, 324.09 205.87 M186.15 368.35 C239.16 308.07, 291.12 247.54, 326.28 207.53 M190.76 367.43 C246.25 305.95, 299.3 245, 328.28 207.88 M191.83 367.6 C224.15 329, 256.23 292.54, 328.46 208.69 M198.29 366.7 C237.15 321.76, 279.26 273.35, 332.36 210.11 M196.55 367.67 C249.42 307.87, 301.57 248.39, 334.05 210.99 M202.72 367.01 C243.98 323.28, 281.8 279.33, 337.15 211.7 M203.71 366.24 C246.83 315.58, 293.52 263.18, 336.81 211.75 M208.7 366.56 C247.37 319.52, 290.83 273.92, 340.36 215.06 M208.57 368.32 C247.28 324.34, 284.29 282.02, 340.59 214.74 M211.11 366.34 C239.18 334.54, 268.87 303.59, 343.71 214.52 M212.71 367.81 C242.91 332.4, 272.49 297.16, 346.22 215.68 M218.06 368.26 C254.35 325.98, 292.13 285.3, 347.54 215.47 M216.08 369.08 C265.57 314.12, 314.47 257.14, 349.87 217 M220.47 371.62 C257.65 330.93, 292.8 289.16, 353.8 219.03 M220.78 370.26 C253.94 333.02, 285.65 295.85, 352.48 218.23 M224 373.47 C267.62 323.7, 310.61 273.09, 357.38 219.85 M224.63 371.08 C263.94 326.09, 304.53 280.46, 356.67 220.34 M231.79 373.89 C269.53 329.61, 306.25 287.94, 359.71 223.2 M230.91 371.9 C266 331.48, 300.56 291.07, 359.96 221.29 M236.52 370.99 C279.92 322.57, 322.97 275.9, 363.78 224.19 M236.6 371.77 C268.49 332.87, 301.58 295.55, 364.26 222.36 M238.97 373.5 C283.82 323.57, 323.9 273.71, 371 225.02 M241.53 372.62 C267.54 341.07, 293.49 310.38, 370.12 224.88 M246.15 373.1 C278.67 332.52, 315.07 293.32, 375.18 223.87 M245.29 372.9 C294.51 315.77, 342.17 261.47, 373.2 226.01 M254 372.87 C279.14 341.95, 304.76 309.95, 377.42 226.9 M252.34 371.2 C294.42 323.47, 334.26 274.88, 378.33 225.07 M257.03 373.43 C295.21 325.14, 336.35 282.83, 385.07 225.08 M256.77 372.51 C292.64 331.96, 328.69 291.3, 384.63 225.67 M259.67 371.39 C308.21 316.67, 360.37 260.36, 389.74 225.98 M261.95 372.1 C299.26 328.62, 338.54 285.93, 388.83 227.79 M267.9 375.24 C304.47 325.17, 345.75 279.05, 390.97 225.85 M267.31 373.59 C314.84 314.72, 365.6 258.14, 393.04 227.1 M270.74 375.17 C300.56 337.71, 333.12 300.97, 397.69 227.17 M272.12 374.1 C316.31 322.05, 359.64 272.09, 397.52 228.84 M276.47 373.58 C317.84 325.77, 362.86 273.39, 401.12 228.73 M274.83 375.01 C304.47 343.96, 331.12 311.01, 401.76 229.14 M278.08 374.41 C307.01 345.39, 335.61 309.33, 406.8 227.65 M280.87 376.62 C322.38 325.85, 364.84 276.03, 407.73 229.36 M287.51 375.98 C328.86 329.46, 365.43 284.57, 413.07 230.03 M285.98 375.2 C317.38 340.48, 347.19 305.63, 412.61 229.98 M292.55 374.04 C326.32 334.81, 357.67 293.58, 415.65 231.17 M291.42 375.41 C323.52 339.09, 355.5 302.24, 416.54 231.14 M294.91 377.06 C339.67 322.81, 383.74 271.94, 421.91 233.15 M295.2 377.78 C323.21 345.18, 352.08 310.99, 421.14 233.47 M299.15 377.32 C328.66 345.13, 355.77 313.25, 422.47 232.71 M299.27 377.12 C339.87 329.1, 381.5 280.08, 424.33 234.27 M306.21 380.45 C338.93 336.47, 376.82 294.6, 427.97 234.72 M304.24 378.39 C349.05 326.25, 393.58 275.97, 427.29 236.26 M310.2 379 C355.78 322.33, 404.07 266.82, 431.96 240.81 M308.42 379.48 C349.68 329.48, 391.59 281.61, 430.62 238.5 M316 378.54 C349.91 337.45, 392.08 290.83, 434.36 240.4 M314.61 379.59 C347.65 342.52, 379.13 305.68, 433.98 240.65 M318.73 380.64 C366.86 325.56, 410.13 272.03, 439.77 244.03 M319.78 379.57 C353.1 341.24, 385.04 302.9, 437.59 242.64 M326.64 379.52 C361.95 335.94, 401.71 289.18, 440.21 243.15 M325.2 378.77 C370.35 326.71, 417.01 274.32, 441.28 245.75 M329.88 379.56 C368.62 335.2, 409.82 288.77, 446.66 245.45 M331.48 377.86 C361.68 341.09, 396.44 303.45, 447.16 244.15 M336.84 378.88 C379.37 326.12, 425.3 274.23, 449.37 246.7 M334 380.71 C362.79 347.28, 392.17 315.85, 450.19 246.08 M342.81 378.38 C383.9 327.08, 429.14 278.33, 456.49 249.23 M341.9 378.67 C378.52 336.08, 415.67 292.53, 456.04 246.6 M344.36 380.1 C380.29 340.2, 414.14 300.6, 458.49 250.34 M345.65 379.26 C383.78 339.14, 419.13 297.29, 457.68 251.27 M351.39 380.49 C379.56 348.95, 403.12 320.62, 460.81 255.02 M351.28 378.66 C385.12 339.98, 420.07 300.08, 461.3 253.16 M356.72 380.99 C378.48 354.09, 401.45 328.89, 463.53 256.61 M357.26 378.65 C383.28 350.04, 406.8 320.67, 464.16 256.78 M361.58 380.83 C386.69 350.03, 413.63 319.45, 466.83 257.76 M362.12 378.63 C384.8 353.91, 405.21 327.96, 465.33 259.35 M367.12 380.85 C401.1 342.5, 435.5 300.14, 468.51 263.84 M367.29 379.75 C401.89 338.09, 436.4 297.76, 469.34 263.44 M370.68 382.34 C399.21 349.96, 428.48 313.94, 471.53 266.68 M371.44 380.98 C399.41 349.77, 425.77 317.24, 471 267.06 M375.81 379.28 C410.73 343.47, 443.48 301.1, 468.23 275.42 M377.9 379.72 C405.22 345.98, 436.02 312.68, 469.81 273.72 M384.67 378.23 C407.22 350.45, 428.87 323.55, 469.01 281.79 M383.11 378.91 C404.87 354.82, 425.73 332.15, 469.92 280.05 M389.43 377.14 C421.31 339.69, 451.96 302.82, 471.4 283.21 M389.34 378.13 C406.56 359.59, 422.95 340.36, 471.31 284.14 M393.1 379.34 C413.76 356.59, 433.92 331.01, 469.57 292.85 M391.71 380.86 C417.76 350.45, 444.5 317.73, 468.6 291.9 M397.72 380.13 C423.73 353.76, 446.81 325.37, 463.67 303.42 M397.61 379.41 C421.47 355.1, 442.44 327.84, 464.62 302.14 M404.64 378.64 C426.91 353.35, 453.18 322.79, 463.41 310.95 M405.18 379.99 C422.97 358.78, 440.6 337.12, 465.13 308.6 M412.63 373.61 C423.58 362.65, 432.5 353.64, 455.22 325.76 M412.62 374.78 C421.87 365, 431.54 352.39, 456.28 326.23 M425.41 367.44 C431.59 361.61, 439.75 350.45, 449.8 337.73 M426.01 367.33 C433.96 358.82, 440.99 348.15, 451.33 336.76" stroke="#009ee3" stroke-width="0.5" fill="none"></path><path fill="#fff" d="M 0,2.59 Q 0,2.59 -1.15,2.61 -2.3,2.64 -4.11,2.70 -5.92,2.77 -7.21,2.76 -8.49,2.76 -10.75,2.75 -13.01,2.74 -14.92,2.79 -16.84,2.83 -18.49,2.88 -20.15,2.92 -21.30,2.98 -22.45,3.03 -24.67,3.18 -26.90,3.33 -29.92,3.47 -32.94,3.61 -35.39,4.24 -37.84,4.87 -40.36,5.57 -42.89,6.27 -45.10,6.98 -47.31,7.69 -49.67,8.44 -52.02,9.18 -53.53,9.62 -55.04,10.05 -56.29,10.49 -57.53,10.92 -58.91,11.18 -60.29,11.43 -62.42,11.62 -64.56,11.81 -65.68,12.38 -66.79,12.95 -68.92,13.42 -71.05,13.89 -72.41,14.18 -73.76,14.47 -75.77,15.11 -77.77,15.75 -78.68,16.49 -79.59,17.24 -80.98,18.25 -82.37,19.27 -84.06,20.05 -85.75,20.84 -88.05,21.73 -90.34,22.62 -92.42,23.63 -94.50,24.65 -96.55,25.75 -98.59,26.85 -100.11,27.82 -101.64,28.79 -104.20,30.10 -106.77,31.41 -109.29,32.43 -111.81,33.45 -113.96,34.53 -116.11,35.61 -119.03,36.36 -121.95,37.11 -124.24,37.84 -126.52,38.58 -129.00,39.99 -131.48,41.40 -133.73,42.71 -135.98,44.01 -138.52,45.70 -141.06,47.38 -143.10,48.59 -145.14,49.79 -147.41,50.99 -149.67,52.20 -152.01,53.40 -154.35,54.60 -156.72,55.80 -159.10,57.00 -162.44,58.45 -165.78,59.89 -168.80,61.19 -171.82,62.49 -174.75,63.51 -177.69,64.54 -180.35,65.22 -183.02,65.89 -185.92,66.85 -188.82,67.81 -191.79,69.54 -194.76,71.28 -197.27,72.52 -199.77,73.77 -202.41,75.19 -205.04,76.62 -207.41,77.50 -209.77,78.38 -211.62,79.20 -213.47,80.02 -215.22,80.67 -216.97,81.33 -218.93,82.62 -220.89,83.92 -223.89,85.67 -226.90,87.42 -229.53,89.06 -232.16,90.70 -234.95,92.12 -237.74,93.54 -240.50,95.04 -243.25,96.54 -245.15,97.44 -247.04,98.34 -248.10,99.37 -249.16,100.41 -250.75,101.26 -252.33,102.11 -254.34,103.04 -256.35,103.97 -258.19,104.66 -260.03,105.36 -261.99,105.88 -263.96,106.40 -265.75,107.42 -267.53,108.44 -269.37,109.22 -271.21,110.00 -273.31,110.95 -275.41,111.89 -277.61,113.38 -279.80,114.87 -281.79,115.82 -283.79,116.76 -286.08,117.39 -288.37,118.03 -290.95,119.80 -293.53,121.57 -298.47,124.01 -303.41,126.46 -308.02,128.63 -312.63,130.80 -316.14,132.84 -319.66,134.89 -323.28,136.70 -326.90,138.52 -328.84,139.72 -330.78,140.92 -332.94,141.53 -335.10,142.13 -336.04,142.67 -336.98,143.21 -338.30,143.91 -339.61,144.61 -341.00,145.52 -342.39,146.43 -344.53,147.92 -346.67,149.41 -350.21,150.64 -353.75,151.88 -355.73,152.96 -357.71,154.04 -359.25,155.01 -360.79,155.98 -362.05,157.05 -363.30,158.11 -364.87,159.13 -366.44,160.14 -368.18,161.44 -369.92,162.74 -372.73,165.14 -375.54,167.54 -377.86,169.62 -380.17,171.70 -382.41,173.32 -384.64,174.94 -386.41,176.67 -388.18,178.39 -389.90,180.07 -391.62,181.74 -392.73,183.13 -393.84,184.52 -395.02,185.87 -396.21,187.22 -396.81,188.21 -397.41,189.20 -398.09,190.48 -398.77,191.77 -399.83,193.32 -400.90,194.87 -401.22,196.26 -401.54,197.66 -401.79,199.41 -402.05,201.16 -402.66,203.62 -403.27,206.07 -404.03,207.78 -404.79,209.49 -405.09,211.12 -405.39,212.74 -405.57,214.59 -405.76,216.44 -405.75,217.71 -405.75,218.98 -405.93,221.18 -406.11,223.39 -406.18,224.70 -406.26,226.02 -406.28,227.28 -406.30,228.54 -406.32,229.99 -406.34,231.44 -406.25,233.12 -406.17,234.79 -406.23,237.64 -406.30,240.50 -405.79,243.19 -405.28,245.87 -405.04,248.08 -404.80,250.30 -404.12,251.83 -403.43,253.36 -402.81,254.83 -402.18,256.30 -400.97,258.15 -399.76,260.00 -398.46,262.85 -397.17,265.69 -395.82,267.66 -394.47,269.63 -393.38,270.89 -392.29,272.16 -391.28,273.71 -390.27,275.27 -388.66,276.94 -387.06,278.61 -386.18,279.60 -385.31,280.58 -383.64,281.73 -381.97,282.88 -381.01,284.62 -380.04,286.36 -378.69,287.36 -377.35,288.35 -375.79,289.37 -374.24,290.38 -372.39,291.04 -370.54,291.69 -367.05,292.24 -363.56,292.78 -360.91,293.04 -358.26,293.30 -355.85,293.91 -353.44,294.52 -352.04,294.65 -350.65,294.78 -348.07,294.92 -345.50,295.06 -341.85,295.14 -338.20,295.22 -335.04,295.27 -331.87,295.31 -328.81,295.81 -325.74,296.30 -322.13,297.22 -318.52,298.13 -313.22,298.50 -307.91,298.87 -302.62,299.27 -297.32,299.67 -294.39,299.84 -291.47,300.01 -288.35,300.32 -285.23,300.62 -283.58,300.90 -281.93,301.18 -280.43,301.24 -278.93,301.31 -277.51,301.82 -276.08,302.33 -274.59,302.71 -273.10,303.09 -272.03,303.18 -270.96,303.28 -267.60,304.41 -264.25,305.53 -261.35,306.24 -258.45,306.95 -255.77,307.75 -253.08,308.56 -249.44,309.60 -245.80,310.64 -243.07,311.56 -240.34,312.49 -238.96,312.76 -237.59,313.03 -236.44,313.35 -235.29,313.67 -233.67,314.28 -232.06,314.90 -230.70,315.34 -229.34,315.77 -228.00,315.91 -226.67,316.05 -224.98,316.93 -223.29,317.81 -222.12,318.28 -220.95,318.76 -218.67,319.77 -216.39,320.79 -214.43,321.22 -212.46,321.65 -208.63,322.10 -204.80,322.55 -200.44,322.77 -196.07,322.98 -191.87,323.32 -187.66,323.65 -184.26,324.04 -180.85,324.43 -178.67,324.83 -176.49,325.24 -173.33,325.64 -170.16,326.04 -167.24,326.21 -164.31,326.39 -160.46,326.93 -156.62,327.47 -153.21,327.70 -149.81,327.92 -147.16,328.26 -144.50,328.59 -140.23,328.73 -135.96,328.86 -132.06,328.92 -128.16,328.98 -125.35,329.01 -122.54,329.04 -119.51,329.05 -116.48,329.06 -111.74,329.07 -107.00,329.07 -103.61,329.07 -100.21,329.08 -96.88,329.31 -93.56,329.54 -90.34,329.64 -87.13,329.74 -84.01,330.49 -80.89,331.24 -77.61,331.77 -74.32,332.30 -71.30,332.76 -68.28,333.22 -64.89,333.88 -61.51,334.54 -57.33,335.27 -53.16,336.01 -48.65,336.55 -44.15,337.09 -39.64,338.02 -35.12,338.95 -29.58,339.79 -24.04,340.64 -19.16,341.23 -14.28,341.82 -10.81,342.30 -7.33,342.78 -3.09,343.45 1.14,344.11 4.05,344.39 6.96,344.67 9.62,345.02 12.28,345.38 15.41,345.52 18.54,345.66 23.61,346.19 28.69,346.72 34.03,347.17 39.38,347.62 43.51,348.04 47.64,348.46 51.65,348.64 55.67,348.82 59.94,349.12 64.20,349.43 69.66,349.56 75.12,349.69 79.74,349.74 84.36,349.80 90.06,350.29 95.76,350.77 100.01,351.21 104.26,351.64 108.55,351.83 112.85,352.01 115.88,352.32 118.91,352.63 122.74,353.23 126.58,353.82 131.86,354.53 137.14,355.24 142.16,356.01 147.19,356.77 153.71,358.02 160.23,359.27 165.33,360.49 170.42,361.72 174.15,362.46 177.89,363.20 181.49,363.51 185.09,363.82 188.27,364.18 191.46,364.55 194.60,364.70 197.75,364.85 200.75,365.15 203.74,365.45 207.08,365.81 210.41,366.16 214.20,367.02 217.99,367.87 222.47,368.21 226.94,368.56 231.62,368.71 236.29,368.86 240.57,368.92 244.86,368.99 249.02,369.25 253.18,369.50 256.57,369.85 259.95,370.19 262.50,370.33 265.06,370.47 268.74,371.00 272.42,371.52 276.21,371.74 280.00,371.96 284.27,372.99 288.55,374.02 292.53,374.44 296.52,374.85 301.00,375.26 305.48,375.68 309.20,375.85 312.92,376.02 318.40,376.10 323.88,376.17 328.28,376.20 332.69,376.23 337.78,376.25 342.87,376.26 347.56,376.27 352.26,376.27 356.81,376.51 361.37,376.74 365.35,376.84 369.32,376.94 372.17,376.98 375.01,377.02 377.36,377.04 379.72,377.06 382.56,377.06 385.40,377.07 388.44,377.07 391.49,377.08 394.58,376.85 397.66,376.62 400.58,376.30 403.49,375.97 405.76,375.18 408.02,374.38 411.74,372.67 415.46,370.96 417.64,369.37 419.83,367.78 422.28,366.56 424.73,365.34 426.65,364.39 428.56,363.44 431.09,361.27 433.62,359.11 435.65,357.26 437.67,355.40 438.91,353.57 440.14,351.73 441.65,349.73 443.15,347.73 444.72,345.95 446.30,344.16 447.07,341.78 447.84,339.39 449.16,336.40 450.47,333.41 451.47,330.81 452.48,328.21 454.79,324.24 457.10,320.27 458.48,316.43 459.85,312.59 460.92,309.53 461.98,306.48 462.89,303.81 463.80,301.13 464.64,298.19 465.48,295.24 465.82,293.13 466.17,291.01 466.55,288.70 466.93,286.39 467.04,284.54 467.15,282.69 467.23,280.08 467.31,277.47 467.35,274.98 467.39,272.48 467.33,270.73 467.28,268.98 467.19,267.58 467.11,266.18 466.31,264.49 465.51,262.81 463.18,259.79 460.84,256.78 458.91,254.29 456.98,251.80 453.82,249.97 450.65,248.14 447.27,246.88 443.88,245.62 440.27,243.88 436.66,242.15 434.02,240.96 431.38,239.78 428.81,238.32 426.25,236.87 423.82,235.58 421.39,234.29 419.56,233.81 417.72,233.33 416.07,232.67 414.41,232.01 412.24,231.26 410.07,230.51 406.97,230.20 403.87,229.89 400.64,229.51 397.41,229.12 394.41,228.73 391.42,228.33 388.49,227.69 385.56,227.04 383.69,226.83 381.83,226.61 378.81,226.54 375.79,226.48 374.69,226.56 373.59,226.65 372.05,226.46 370.52,226.27 369.14,225.98 367.77,225.69 366.48,225.36 365.19,225.03 363.77,224.67 362.35,224.31 359.32,222.83 356.29,221.35 354.02,220.51 351.76,219.67 348.43,218.34 345.10,217.01 341.37,215.26 337.63,213.52 334.77,212.57 331.91,211.62 328.54,210.26 325.18,208.90 323.16,208.34 321.14,207.79 319.12,207.32 317.10,206.85 314.55,205.93 311.99,205.00 310.17,204.17 308.35,203.34 306.92,202.85 305.50,202.36 303.80,201.93 302.11,201.50 300.39,200.25 298.67,199.01 296.86,198.12 295.05,197.23 293.22,196.08 291.39,194.92 289.18,192.98 286.97,191.04 285.57,189.82 284.16,188.59 282.09,187.19 280.01,185.78 278.21,184.71 276.41,183.63 275.12,183.04 273.84,182.45 272.25,181.16 270.67,179.86 269.09,178.09 267.51,176.32 265.58,174.74 263.64,173.15 262.40,171.10 261.17,169.06 260.03,167.12 258.89,165.18 257.13,163.32 255.36,161.46 253.43,159.48 251.50,157.49 250.43,156.79 249.36,156.09 247.35,154.57 245.34,153.05 244.00,152.27 242.66,151.48 240.48,149.90 238.31,148.33 236.39,146.43 234.48,144.53 232.82,143.09 231.17,141.65 227.71,138.72 224.25,135.80 221.77,134.64 219.29,133.48 216.95,131.98 214.60,130.47 212.59,128.13 210.58,125.78 208.58,124.75 206.58,123.71 204.45,122.25 202.31,120.79 200.66,119.20 199.01,117.61 197.52,116.89 196.04,116.16 194.11,114.55 192.19,112.93 190.94,112.16 189.69,111.40 188.73,110.52 187.77,109.65 186.36,108.12 184.96,106.60 183.80,105.24 182.64,103.89 180.77,102.51 178.90,101.13 177.07,99.50 175.24,97.87 173.36,96.27 171.48,94.68 170.14,93.57 168.80,92.47 166.81,89.78 164.81,87.09 163.09,84.59 161.36,82.09 159.98,80.38 158.60,78.67 157.33,77.59 156.06,76.50 154.93,75.29 153.80,74.07 152.57,73.27 151.33,72.47 149.94,70.73 148.54,69.00 147.43,68.30 146.33,67.61 143.89,66.32 141.46,65.04 139.89,64.28 138.31,63.53 136.24,62.19 134.16,60.85 131.87,59.09 129.59,57.33 127.78,56.16 125.98,54.99 124.05,53.79 122.12,52.58 120.57,51.65 119.01,50.72 117.14,49.07 115.28,47.42 113.56,45.54 111.84,43.66 110.50,42.80 109.17,41.95 107.93,41.43 106.70,40.91 105.29,39.89 103.88,38.87 102.34,36.90 100.81,34.92 99.57,33.80 98.33,32.68 97.47,31.99 96.62,31.31 94.84,30.27 93.06,29.24 91.81,28.44 90.56,27.64 88.67,27.20 86.77,26.76 84.92,25.52 83.07,24.28 81.14,23.65 79.21,23.02 77.86,22.31 76.51,21.60 74.82,20.82 73.14,20.03 71.12,19.40 69.10,18.78 67.65,18.02 66.20,17.26 64.97,16.52 63.75,15.78 62.20,15.24 60.65,14.70 59.44,14.69 58.23,14.68 56.67,14.12 55.12,13.56 53.97,13.15 52.83,12.74 50.42,11.63 48.01,10.52 46.61,10.27 45.22,10.02 43.50,9.84 41.78,9.66 39.77,9.29 37.75,8.92 35.06,8.57 32.37,8.22 30.91,7.88 29.45,7.53 28.29,7.17 27.12,6.81 24.59,6.58 22.06,6.36 20.54,6.34 19.02,6.31 16.65,6.13 14.27,5.94 11.53,5.30 8.79,4.66 7.70,4.19 6.61,3.72 4.68,3.63 2.74,3.53 0.59,3.55 -1.54,3.56 -2.71,3.57 -3.88,3.57 -4.21,3.53 -4.54,3.49 -4.86,3.37 -5.17,3.25 -5.44,3.06 -5.72,2.87 -5.94,2.61 -6.16,2.36 -6.31,2.07 -6.46,1.77 -6.54,1.44 -6.62,1.12 -6.62,0.78 -6.62,0.45 -6.54,0.12 -6.45,-0.19 -6.30,-0.48 -6.14,-0.78 -5.92,-1.03 -5.69,-1.28 -5.42,-1.47 -5.14,-1.66 -4.83,-1.77 -4.51,-1.89 -4.18,-1.93 -3.85,-1.97 -2.17,-2.20 -0.50,-2.42 -0.10,-2.44 0.29,-2.46 0.68,-2.35 1.06,-2.23 1.39,-2.00 1.72,-1.78 1.96,-1.45 2.20,-1.13 2.32,-0.75 2.45,-0.37 2.44,0.02 2.44,0.43 2.31,0.80 2.17,1.18 1.93,1.50 1.68,1.82 1.34,2.04 1.01,2.26 0.62,2.36 0.23,2.46 -0.16,2.44 -0.56,2.41 -0.93,2.26 -1.30,2.11 -1.60,1.84 -1.90,1.58 -2.11,1.23 -2.31,0.89 -2.39,0.49 -2.47,0.10 -2.43,-0.29 -2.38,-0.69 -2.20,-1.05 -2.03,-1.41 -1.75,-1.70 -1.47,-1.99 -1.12,-2.17 -0.76,-2.36 -0.36,-2.42 0.02,-2.48 0.42,-2.41 0.82,-2.34 1.17,-2.14 1.52,-1.95 1.79,-1.66 2.07,-1.36 2.23,-1.00 2.39,-0.63 2.43,-0.23 2.47,0.16 2.38,0.55 2.29,0.94 2.08,1.28 1.87,1.62 1.56,1.88 1.25,2.14 0.87,2.28 0.50,2.42 0.50,2.42 0.50,2.42 -1.68,3.00 -3.88,3.57 -4.21,3.53 -4.54,3.49 -4.86,3.37 -5.17,3.25 -5.44,3.06 -5.72,2.87 -5.94,2.61 -6.16,2.36 -6.31,2.07 -6.46,1.77 -6.54,1.44 -6.62,1.12 -6.62,0.78 -6.62,0.45 -6.54,0.13 -6.45,-0.19 -6.30,-0.48 -6.14,-0.78 -5.92,-1.03 -5.69,-1.28 -5.42,-1.47 -5.14,-1.66 -4.83,-1.77 -4.51,-1.89 -4.18,-1.93 -3.85,-1.97 -2.68,-1.96 -1.51,-1.95 0.68,-1.89 2.87,-1.83 5.07,-1.63 7.27,-1.43 8.77,-0.70 10.27,0.01 11.61,0.42 12.95,0.83 14.05,0.99 15.15,1.14 17.13,1.45 19.11,1.76 20.67,1.80 22.22,1.83 24.39,1.80 26.56,1.77 28.58,2.43 30.59,3.09 31.87,3.44 33.15,3.80 34.67,4.06 36.20,4.32 37.28,4.51 38.36,4.69 40.21,4.88 42.07,5.06 44.04,5.12 46.02,5.17 47.90,5.46 49.78,5.75 52.23,6.74 54.67,7.73 56.68,8.59 58.69,9.44 60.30,9.71 61.91,9.98 63.03,10.38 64.16,10.78 65.15,11.41 66.14,12.03 67.27,12.80 68.41,13.57 69.27,14.19 70.13,14.81 72.47,15.26 74.81,15.71 76.88,16.39 78.95,17.06 79.95,17.63 80.95,18.19 82.12,18.63 83.30,19.08 84.59,19.67 85.88,20.26 86.84,21.01 87.80,21.76 89.14,22.02 90.48,22.28 91.65,22.78 92.81,23.29 94.19,24.44 95.57,25.60 96.57,26.34 97.56,27.07 98.43,27.79 99.29,28.50 100.01,29.31 100.72,30.12 102.09,31.45 103.46,32.77 104.81,34.38 106.17,35.98 107.23,36.90 108.29,37.82 109.64,38.61 110.98,39.40 112.45,40.55 113.93,41.69 115.58,43.44 117.22,45.18 118.95,46.65 120.67,48.12 122.15,49.12 123.62,50.12 125.59,51.30 127.56,52.47 129.50,53.66 131.45,54.84 133.66,56.44 135.87,58.05 137.88,59.21 139.89,60.38 141.44,61.19 142.99,62.00 145.74,63.31 148.49,64.62 149.84,65.72 151.19,66.81 152.32,68.20 153.45,69.59 154.91,70.73 156.38,71.86 157.27,73.05 158.16,74.23 159.49,75.54 160.81,76.85 162.29,78.62 163.77,80.39 165.51,82.82 167.26,85.24 169.11,87.65 170.95,90.07 172.16,91.22 173.37,92.38 175.32,93.95 177.27,95.51 179.04,96.98 180.81,98.45 183.09,100.04 185.36,101.63 186.37,102.93 187.38,104.24 189.47,106.51 191.56,108.79 192.78,109.77 194.00,110.76 195.73,112.19 197.45,113.62 199.14,114.65 200.83,115.69 202.33,117.14 203.82,118.59 205.84,119.97 207.86,121.35 210.22,122.67 212.58,123.99 214.34,126.09 216.10,128.19 218.29,129.59 220.48,130.98 223.26,132.30 226.04,133.62 229.55,136.53 233.06,139.44 234.81,140.91 236.57,142.37 238.34,144.07 240.12,145.76 242.30,147.22 244.48,148.69 245.81,149.64 247.14,150.60 249.24,152.10 251.35,153.60 252.40,154.59 253.45,155.58 255.41,157.57 257.37,159.56 259.34,161.64 261.31,163.72 262.48,165.65 263.66,167.58 264.61,169.22 265.56,170.86 267.69,172.52 269.82,174.19 271.31,175.75 272.81,177.31 274.12,178.44 275.44,179.57 276.65,180.35 277.86,181.14 279.76,182.21 281.66,183.29 283.96,184.78 286.26,186.28 287.59,187.53 288.92,188.79 290.97,190.54 293.02,192.29 294.72,193.31 296.42,194.33 298.60,195.31 300.77,196.30 301.92,197.31 303.08,198.31 304.90,198.83 306.72,199.36 308.16,200.05 309.60,200.73 311.26,201.57 312.92,202.41 315.33,203.27 317.73,204.12 319.80,204.59 321.87,205.06 324.06,205.63 326.25,206.20 329.54,207.48 332.82,208.76 335.88,209.71 338.93,210.65 342.61,212.27 346.29,213.89 349.59,215.07 352.89,216.25 355.40,216.99 357.92,217.73 360.71,218.88 363.51,220.02 364.98,220.44 366.45,220.85 367.63,221.26 368.81,221.68 369.99,222.05 371.18,222.42 372.42,222.71 373.66,223.00 374.76,223.13 375.87,223.25 377.99,223.28 380.12,223.30 381.17,223.53 382.22,223.77 384.18,224.08 386.14,224.39 388.96,225.00 391.78,225.60 394.75,225.98 397.72,226.35 400.94,226.70 404.15,227.05 407.57,227.38 410.99,227.71 413.34,228.47 415.68,229.23 417.07,229.96 418.47,230.69 420.55,231.31 422.63,231.93 425.10,233.23 427.57,234.53 430.03,235.92 432.48,237.31 435.16,238.49 437.85,239.68 441.35,241.35 444.85,243.01 448.47,244.35 452.09,245.69 455.65,247.82 459.22,249.94 461.22,252.43 463.22,254.91 465.81,258.19 468.39,261.46 469.43,263.76 470.46,266.06 470.37,267.53 470.28,269.00 470.20,270.76 470.12,272.51 470.09,275.03 470.07,277.55 470.02,280.24 469.96,282.93 469.74,284.87 469.52,286.82 469.14,289.13 468.76,291.44 468.38,293.70 468.00,295.96 467.15,298.97 466.29,301.98 465.37,304.66 464.46,307.35 463.39,310.41 462.32,313.48 460.85,317.53 459.37,321.59 457.15,325.37 454.92,329.16 453.90,331.81 452.88,334.47 451.60,337.36 450.32,340.25 449.31,343.04 448.31,345.83 446.78,347.57 445.25,349.31 443.78,351.26 442.31,353.21 440.88,355.27 439.46,357.33 437.39,359.22 435.32,361.12 432.53,363.45 429.75,365.78 427.82,366.74 425.89,367.69 423.63,368.80 421.37,369.91 418.96,371.63 416.56,373.35 412.72,375.10 408.88,376.86 406.34,377.72 403.80,378.58 400.83,378.91 397.86,379.24 394.67,379.47 391.49,379.70 388.44,379.70 385.39,379.70 382.54,379.69 379.70,379.68 377.33,379.66 374.97,379.65 372.11,379.60 369.26,379.56 365.25,379.46 361.24,379.36 356.75,379.13 352.25,378.90 347.56,378.89 342.86,378.89 337.77,378.87 332.67,378.86 328.26,378.83 323.84,378.80 318.32,378.72 312.79,378.65 309.02,378.47 305.24,378.29 300.74,377.88 296.24,377.46 292.09,377.02 287.93,376.57 283.88,375.58 279.84,374.58 275.94,374.35 272.05,374.12 268.48,373.61 264.91,373.09 262.30,372.95 259.69,372.80 256.35,372.46 253.01,372.13 248.92,371.87 244.82,371.61 240.51,371.55 236.20,371.48 231.47,371.33 226.74,371.18 222.08,370.80 217.41,370.43 213.77,369.60 210.13,368.77 206.81,368.42 203.48,368.06 200.55,367.77 197.62,367.48 194.39,367.32 191.16,367.16 188.01,366.80 184.86,366.43 181.12,366.11 177.38,365.78 173.59,365.02 169.80,364.27 164.77,363.06 159.74,361.85 153.27,360.61 146.79,359.37 141.79,358.61 136.79,357.85 131.48,357.13 126.17,356.42 122.41,355.83 118.64,355.25 115.69,354.94 112.73,354.63 108.36,354.45 103.99,354.26 99.76,353.82 95.53,353.39 89.93,352.91 84.33,352.43 79.69,352.37 75.05,352.32 69.53,352.18 64.02,352.05 59.78,351.75 55.55,351.44 51.46,351.26 47.37,351.08 43.27,350.66 39.16,350.23 33.79,349.78 28.42,349.33 23.42,348.81 18.42,348.29 15.17,348.13 11.93,347.98 9.32,347.63 6.71,347.28 3.72,347.00 0.74,346.71 -3.47,346.05 -7.69,345.38 -11.14,344.90 -14.60,344.42 -19.52,343.83 -24.43,343.23 -30.04,342.38 -35.65,341.52 -40.06,340.61 -44.46,339.70 -49.04,339.15 -53.61,338.60 -57.81,337.86 -62.01,337.12 -65.34,336.46 -68.67,335.81 -71.71,335.35 -74.74,334.89 -78.13,334.34 -81.52,333.79 -84.37,333.08 -87.22,332.36 -90.48,332.26 -93.74,332.17 -96.98,331.94 -100.21,331.71 -103.61,331.71 -107.00,331.71 -111.74,331.70 -116.49,331.70 -119.53,331.69 -122.56,331.68 -125.38,331.66 -128.20,331.63 -132.12,331.57 -136.04,331.52 -140.43,331.38 -144.83,331.24 -147.41,330.92 -149.99,330.60 -153.49,330.37 -156.99,330.15 -160.73,329.63 -164.47,329.11 -167.48,328.95 -170.50,328.79 -173.75,328.40 -176.99,328.02 -179.07,327.66 -181.15,327.31 -184.52,326.97 -187.88,326.64 -192.04,326.38 -196.19,326.11 -200.66,325.99 -205.14,325.86 -209.12,325.52 -213.11,325.17 -215.46,324.82 -217.81,324.46 -220.28,323.62 -222.75,322.78 -224.09,322.12 -225.43,321.47 -226.40,320.79 -227.36,320.12 -229.03,319.83 -230.69,319.55 -232.07,319.00 -233.45,318.44 -235.96,317.34 -238.47,316.24 -239.86,315.76 -241.25,315.28 -243.93,314.43 -246.60,313.58 -250.28,312.62 -253.95,311.65 -256.56,310.98 -259.18,310.30 -262.27,309.70 -265.35,309.09 -268.49,308.22 -271.64,307.34 -272.88,307.05 -274.11,306.76 -276.72,305.70 -279.32,304.63 -280.97,304.39 -282.62,304.15 -284.06,303.72 -285.49,303.28 -288.55,302.98 -291.62,302.69 -294.57,302.53 -297.52,302.37 -302.81,301.98 -308.10,301.60 -313.65,301.22 -319.19,300.83 -322.69,299.97 -326.19,299.10 -329.04,298.67 -331.89,298.23 -335.06,298.24 -338.24,298.24 -341.93,298.24 -345.62,298.23 -348.40,298.17 -351.19,298.12 -352.67,297.78 -354.14,297.44 -356.33,296.94 -358.52,296.44 -361.27,296.27 -364.02,296.10 -367.82,295.62 -371.63,295.14 -373.96,294.46 -376.29,293.79 -378.08,292.76 -379.87,291.73 -382.38,289.18 -384.88,286.62 -385.51,285.47 -386.13,284.32 -387.12,283.60 -388.11,282.89 -388.74,281.90 -389.37,280.91 -391.30,279.02 -393.24,277.12 -394.07,275.70 -394.90,274.28 -395.98,272.87 -397.05,271.47 -398.63,269.31 -400.21,267.15 -401.48,264.62 -402.76,262.09 -404.33,259.95 -405.91,257.82 -406.44,256.40 -406.97,254.98 -407.91,252.96 -408.85,250.93 -409.20,249.12 -409.55,247.30 -410.42,243.90 -411.29,240.50 -411.35,237.63 -411.41,234.77 -411.31,233.07 -411.20,231.38 -411.18,229.88 -411.17,228.38 -411.10,227.03 -411.03,225.68 -410.90,224.09 -410.78,222.50 -410.43,220.65 -410.09,218.80 -409.98,217.49 -409.87,216.18 -409.81,214.13 -409.75,212.08 -409.48,209.93 -409.20,207.79 -408.61,206.05 -408.02,204.30 -407.59,203.24 -407.17,202.17 -406.97,200.91 -406.76,199.65 -406.34,198.17 -405.91,196.69 -405.57,195.64 -405.23,194.59 -404.66,193.65 -404.08,192.71 -403.11,191.27 -402.14,189.84 -401.27,188.42 -400.40,187.01 -399.53,185.99 -398.66,184.96 -397.46,183.73 -396.26,182.49 -395.01,181.06 -393.76,179.62 -392.09,177.90 -390.42,176.17 -388.55,174.23 -386.67,172.28 -384.67,170.68 -382.66,169.07 -380.41,166.81 -378.16,164.55 -375.35,162.03 -372.54,159.51 -370.43,158.31 -368.32,157.11 -366.89,156.26 -365.47,155.42 -364.00,154.28 -362.54,153.15 -360.93,152.19 -359.32,151.23 -357.12,149.92 -354.93,148.62 -351.90,147.48 -348.87,146.35 -346.38,144.44 -343.90,142.52 -342.50,141.99 -341.11,141.45 -339.67,140.85 -338.22,140.25 -337.01,139.88 -335.79,139.52 -333.97,139.08 -332.14,138.65 -330.12,137.40 -328.09,136.14 -324.55,134.36 -321.00,132.57 -317.39,130.47 -313.78,128.37 -309.20,126.20 -304.62,124.02 -299.85,121.66 -295.07,119.29 -292.12,117.32 -289.17,115.35 -287.09,114.76 -285.01,114.17 -283.23,113.32 -281.44,112.47 -279.07,110.82 -276.69,109.16 -274.55,108.12 -272.40,107.08 -270.73,106.44 -269.07,105.79 -266.94,104.54 -264.81,103.30 -262.97,102.81 -261.14,102.32 -259.44,101.72 -257.74,101.13 -255.75,100.10 -253.76,99.07 -252.44,98.56 -251.12,98.05 -249.67,96.96 -248.22,95.87 -246.38,95.03 -244.54,94.18 -241.76,92.65 -238.97,91.12 -236.30,89.75 -233.62,88.38 -230.97,86.70 -228.31,85.02 -225.39,83.28 -222.46,81.54 -220.19,80.05 -217.93,78.56 -216.23,78.05 -214.54,77.55 -212.61,76.73 -210.68,75.92 -208.49,75.11 -206.29,74.31 -203.61,72.86 -200.94,71.41 -198.51,70.21 -196.08,69.01 -192.87,67.16 -189.65,65.31 -186.66,64.33 -183.66,63.34 -181.11,62.70 -178.55,62.06 -175.71,61.06 -172.86,60.07 -169.84,58.77 -166.83,57.47 -163.56,56.06 -160.29,54.64 -157.92,53.45 -155.56,52.25 -153.24,51.05 -150.92,49.86 -148.71,48.68 -146.50,47.49 -144.52,46.32 -142.54,45.15 -139.94,43.42 -137.34,41.69 -135.08,40.36 -132.82,39.03 -130.11,37.50 -127.39,35.96 -125.02,35.17 -122.65,34.39 -120.03,33.72 -117.41,33.05 -115.18,31.88 -112.96,30.71 -110.59,29.69 -108.22,28.67 -105.78,27.33 -103.34,25.99 -101.75,25.05 -100.15,24.11 -98.10,22.89 -96.06,21.68 -93.92,20.49 -91.78,19.29 -89.56,18.24 -87.35,17.19 -86.00,16.64 -84.66,16.09 -83.23,15.05 -81.81,14.02 -80.42,13.18 -79.03,12.34 -76.72,11.43 -74.40,10.52 -73.17,10.40 -71.94,10.28 -70.14,9.79 -68.35,9.30 -66.73,8.70 -65.11,8.10 -62.97,7.69 -60.82,7.29 -59.71,7.22 -58.60,7.16 -57.24,6.85 -55.87,6.53 -54.49,6.28 -53.11,6.04 -50.82,5.18 -48.54,4.32 -46.32,3.42 -44.11,2.52 -41.64,1.59 -39.16,0.66 -36.34,-0.35 -33.52,-1.38 -30.64,-1.90 -27.76,-2.41 -25.10,-2.72 -22.45,-3.03 -21.30,-2.98 -20.15,-2.92 -18.49,-2.88 -16.84,-2.83 -14.92,-2.79 -13.01,-2.74 -10.75,-2.75 -8.49,-2.76 -7.21,-2.76 -5.92,-2.77 -4.11,-2.70 -2.3,-2.64 -1.15,-2.61 0,-2.59 0.31,-2.55 0.62,-2.52 0.91,-2.40 1.20,-2.29 1.46,-2.12 1.72,-1.94 1.92,-1.70 2.13,-1.47 2.28,-1.19 2.42,-0.92 2.50,-0.61 2.57,-0.31 2.57,0.00 2.57,0.31 2.50,0.61 2.42,0.92 2.28,1.19 2.13,1.47 1.92,1.70 1.72,1.94 1.46,2.12 1.20,2.29 0.91,2.40 0.62,2.52 0.31,2.55 -0.00,2.59 -0.00,2.59 L 0,2.59 Z"></path></g><g stroke-opacity="0.3" fill-opacity="0.3" transform="translate(10 440.80003356933594) rotate(0 0.00005000000000165983 0.00004999999998744897)" stroke="none"><path fill="#000000" d="M 1.57,-1.57 Q 1.57,-1.57 1.77,-1.27 1.98,-0.98 2.09,-0.64 2.20,-0.29 2.19,0.05 2.18,0.41 2.05,0.75 1.93,1.09 1.70,1.37 1.48,1.65 1.18,1.84 0.87,2.04 0.52,2.12 0.18,2.21 -0.17,2.18 -0.53,2.15 -0.86,2.01 -1.19,1.87 -1.46,1.63 -1.73,1.39 -1.90,1.07 -2.08,0.76 -2.15,0.41 -2.21,0.05 -2.17,-0.29 -2.12,-0.65 -1.96,-0.97 -1.80,-1.29 -1.54,-1.54 -1.29,-1.80 -0.97,-1.96 -0.65,-2.12 -0.29,-2.17 0.06,-2.21 0.41,-2.15 0.76,-2.08 1.07,-1.90 1.39,-1.73 1.63,-1.46 1.87,-1.19 2.01,-0.86 2.15,-0.53 2.18,-0.17 2.21,0.18 2.12,0.52 2.03,0.87 1.84,1.18 1.65,1.48 1.37,1.70 1.09,1.93 0.75,2.05 0.41,2.18 0.05,2.19 -0.30,2.20 -0.64,2.09 -0.98,1.98 -1.27,1.77 -1.57,1.56 -1.57,1.57 -1.57,1.57 -1.73,1.35 -1.90,1.14 -2.01,0.90 -2.12,0.66 -2.16,0.39 -2.21,0.13 -2.20,-0.13 -2.18,-0.40 -2.10,-0.65 -2.02,-0.91 -1.88,-1.14 -1.74,-1.36 -1.55,-1.55 -1.36,-1.74 -1.14,-1.88 -0.91,-2.02 -0.65,-2.10 -0.40,-2.18 -0.13,-2.20 0.13,-2.21 0.39,-2.16 0.66,-2.12 0.90,-2.01 1.14,-1.90 1.35,-1.73 1.57,-1.57 1.57,-1.57 L 1.57,-1.57 Z"></path></g><g stroke-opacity="0.3" fill-opacity="0.3" transform="translate(1947.599998474121 311.99998474121094) rotate(0 0.00004999999998744897 0.00004999999998744897)" stroke="none"><path fill="#ffffff" d="M 1.57,-1.57 Q 1.57,-1.57 1.77,-1.27 1.98,-0.98 2.09,-0.64 2.20,-0.29 2.19,0.05 2.18,0.41 2.05,0.75 1.93,1.09 1.70,1.37 1.48,1.65 1.18,1.84 0.87,2.04 0.52,2.12 0.18,2.21 -0.17,2.18 -0.53,2.15 -0.86,2.01 -1.19,1.87 -1.46,1.63 -1.73,1.39 -1.90,1.07 -2.08,0.76 -2.15,0.41 -2.21,0.05 -2.17,-0.29 -2.12,-0.65 -1.96,-0.97 -1.80,-1.29 -1.54,-1.54 -1.29,-1.80 -0.97,-1.96 -0.65,-2.12 -0.29,-2.17 0.06,-2.21 0.41,-2.15 0.76,-2.08 1.07,-1.90 1.39,-1.73 1.63,-1.46 1.87,-1.19 2.01,-0.86 2.15,-0.53 2.18,-0.17 2.21,0.18 2.12,0.52 2.03,0.87 1.84,1.18 1.65,1.48 1.37,1.70 1.09,1.93 0.75,2.05 0.41,2.18 0.05,2.19 -0.30,2.20 -0.64,2.09 -0.98,1.98 -1.27,1.77 -1.57,1.56 -1.57,1.57 -1.57,1.57 -1.73,1.35 -1.90,1.14 -2.01,0.90 -2.12,0.66 -2.16,0.39 -2.21,0.13 -2.20,-0.13 -2.18,-0.40 -2.10,-0.65 -2.02,-0.91 -1.88,-1.14 -1.74,-1.36 -1.55,-1.55 -1.36,-1.74 -1.14,-1.88 -0.91,-2.02 -0.65,-2.10 -0.40,-2.18 -0.13,-2.20 0.13,-2.21 0.39,-2.16 0.66,-2.12 0.90,-2.01 1.14,-1.90 1.35,-1.73 1.57,-1.57 1.57,-1.57 L 1.57,-1.57 Z"></path></g></svg>